<svg id="Text" xmlns="http://www.w3.org/2000/svg" width="488" height="290.469" viewBox="0 0 488 290.469">
  <defs>
    <style>
      .cls-1, .cls-2, .cls-4, .cls-6 {
        fill: #333;
      }

      .cls-1 {
        fill-rule: evenodd;
      }

      .cls-2 {
        font-size: 36.869px;
      }

      .cls-2, .cls-3, .cls-4, .cls-5, .cls-6 {
        text-anchor: middle;
      }

      .cls-2, .cls-3, .cls-6 {
        font-family: Bebrush;
      }

      .cls-3 {
        font-size: 104.704px;
      }

      .cls-3, .cls-5 {
        fill: #eb1c24;
      }

      .cls-4 {
        font-size: 372.473px;
      }

      .cls-4, .cls-5 {
        font-family: CottonCandies;
      }

      .cls-5 {
        font-size: 158.706px;
      }

      .cls-6 {
        font-size: 71.256px;
      }
    </style>
  </defs>
  <path id="Shape" class="cls-1" d="M1343,579.673c0.76,0.028,1.54.035,2.32,0.021a14.51,14.51,0,0,0,1.72-.106,4.357,4.357,0,0,0-1.04-.128c-0.54-.029-1.15-0.036-1.8-0.021s-1.23.042-1.72,0.085a1.269,1.269,0,0,0-.79.191Zm-21.98-.192a3.108,3.108,0,0,0,.55-0.085,1.169,1.169,0,0,0,.3-0.106c0.03-.029-0.08-0.043-0.33-0.043a2.665,2.665,0,0,0-.38.043c-0.19.028-.37,0.049-0.55,0.064a0.573,0.573,0,0,0-.3.064,0.374,0.374,0,0,0,.3.085C1320.68,579.5,1320.82,579.5,1321.02,579.481Zm80.68-9.128a2.694,2.694,0,0,0-.66-0.106,4.088,4.088,0,0,0-.73.021,2.513,2.513,0,0,0-.47.085c-0.07.028-.04,0.05,0.08,0.064s0.43,0.022.91,0.022Zm9.01,0.064q0.66,0.106,1.47.277c0.48,0.056.93,0.12,1.37,0.191a3.536,3.536,0,0,0,.95.064q0.3-.042.03-0.3a1.015,1.015,0,0,0-.74-0.234,17.694,17.694,0,0,0-1.8-.149c-0.71-.028-1.35-0.036-1.94-0.021a6.468,6.468,0,0,0-1.01.064,1.557,1.557,0,0,0,.8.128A1.47,1.47,0,0,1,1410.71,570.417Zm-81.69,10.064a31.93,31.93,0,0,0-6.77.426c1.64-.114,3.49-0.17,5.57-0.17a46.881,46.881,0,0,0,8.57-.468q-0.33-.043-0.57-0.064c-0.17-.015-0.34-0.022-0.52-0.022a4.779,4.779,0,0,0-.77.086h-0.43a41.978,41.978,0,0,1-5.08.212h0Zm10.92-.723c-0.15,0-.35.014-0.63,0.042s-0.52.057-.73,0.086a1.732,1.732,0,0,0-.47.106c-0.09.043-.05,0.092,0.14,0.149a3.832,3.832,0,0,0,.76.021,7.778,7.778,0,0,0,1.12-.127c0.38-.072.68-0.128,0.9-0.171s0.28-.078.17-0.106a6.127,6.127,0,0,0-1.1,0h-0.16Zm64.95-9.17a0.7,0.7,0,0,1-.19.021,0.128,0.128,0,0,0-.11.021,0.077,0.077,0,0,0,.06.043,0.2,0.2,0,0,0,.13,0,0.566,0.566,0,0,1,.14-0.022,0.181,0.181,0,0,0,.11-0.042A0.152,0.152,0,0,0,1404.89,570.588Zm36.75-4.767c-1.14.071-1.12,0.107,0.09,0.107s3.05-.015,5.57-0.043,5.33-.071,8.46-0.127a13.318,13.318,0,0,0,2.76-.192c-0.24-.042-1.21-0.064-2.92-0.064s-3.7.028-5.96,0.085Q1443.37,565.716,1441.64,565.821Zm80.74-2.744a4.4,4.4,0,0,0-.87-0.022c-0.48.014-.98,0.022-1.51,0.022h-1.06a1.871,1.871,0,0,0-.85.085,5.2,5.2,0,0,0,.85.064q0.7,0.021,1.5,0c0.53-.015.88-0.022,1.07-0.022A1.643,1.643,0,0,0,1522.38,563.077Zm-237.65-1.468a1.067,1.067,0,0,0,.58-0.064,3.578,3.578,0,0,0-.74-0.085c-0.44-.029-0.97-0.043-1.58-0.043s-1.21.014-1.78,0.043a8.014,8.014,0,0,0-1.39.17h2.57C1283.51,561.63,1284.3,561.623,1284.73,561.609Zm-29.48,1a20.8,20.8,0,0,0-2.22.063c-1.32.071-2.86,0.163-4.61,0.277s-3.36.227-4.83,0.341a17.041,17.041,0,0,0-2.76.34c-0.73.227-.76,0.34-0.11,0.34s1.69-.063,3.11-0.191,2.9-.291,4.43-0.489c1.12-.086,2.09-0.178,2.89-0.277a8.891,8.891,0,0,1,1.64-.106A15.25,15.25,0,0,0,1255.25,562.609Zm224.92,2.766-2.73.063c-0.66.014-1.22,0.028-1.69,0.043s-1.1.064-1.86,0.149q9.45,0.213,21.84-.085t21.63-.681q-6.555,0-15.4.255-11.685.34-21.52,0.256h-0.27Zm-20.04.191q-0.5.064,0.27,0.085c0.51,0.014,1.25.028,2.21,0.043s1.97,0.021,3.01.021,1.86-.015,2.48-0.042a7.587,7.587,0,0,0,.76-0.043c0.19-.114-0.27-0.185-1.36-0.213s-2.59-.042-4.48-0.042C1461.42,565.46,1460.46,565.524,1460.13,565.566Zm-190.85-3.4a2.267,2.267,0,0,0,.44,0c0.18-.015.36-0.021,0.54-0.021s0.38-.008.58-0.022a0.846,0.846,0,0,0,.3-0.042,0.668,0.668,0,0,0-.28-0.022q-0.435,0-.87.022a6.743,6.743,0,0,0-.71.064C1269.17,562.141,1269.17,562.147,1269.28,562.162Zm-13.95,8.489c0.2,0.028-.05.086-0.74,0.171-0.25.027-.62,0.049-1.09,0.063s-0.9.028-1.28,0.043-0.65.021-.8,0.021-0.05-.021.28-0.064,1.02-.106,2.07-0.191A10.924,10.924,0,0,1,1255.33,570.651Zm14.39-1.4c0.62,0,1.07.014,1.36,0.043q0.27,0-.3.063t-1.5.107q-0.93.042-1.86,0.042H1266c-0.32,0-.34-0.021-0.05-0.063s0.95-.093,1.96-0.149C1268.5,569.261,1269.1,569.247,1269.72,569.247Zm18.95-.362q1.2-.063,1.77-0.085a2.369,2.369,0,0,1,.66.022c0.05,0.027,0,.056-0.14.085s-0.31.056-.49,0.085a2.835,2.835,0,0,1-.58.191c-0.2.043-.27,0.078-0.21,0.107a2.143,2.143,0,0,0,.57.063c0.33,0.014.96,0.007,1.91-.021,0.29-.028.66-0.05,1.09-0.064s0.8-.021,1.09-0.021c1.31,0.085,1,.184-0.92.3s-6.03.283-12.29,0.511q-10.98.382-17.47,0.574-6.51.192-6.34-.021,12.18-.852,24.03-0.979c0.94,0,1.68-.021,2.21-0.064s0.86-.071,1.01-0.085,0.19-.036.14-0.064a1.421,1.421,0,0,0-.25-0.085,1.933,1.933,0,0,0-.19-0.064c-0.06-.014-0.01-0.042.14-0.085a5.157,5.157,0,0,1,.92-0.106C1286.75,568.992,1287.86,568.928,1288.67,568.885Zm11.35,0.128c0.48,0.014.92,0.028,1.34,0.043a5.775,5.775,0,0,1,.93.085c0.2,0.042.18,0.078-.06,0.106s-0.77.043-1.61,0.043c-3.05.113-3.64,0.056-1.74-.171A3.735,3.735,0,0,1,1300.02,569.013Zm0.06-.83a6.944,6.944,0,0,1,.74.022q0.135,0.019,0,.042c-0.1.014-.23,0.028-0.41,0.043a4.284,4.284,0,0,1-.71-0.022c-1.17-.085-1.04-0.113.38-0.085h0Zm6.14-.127c0.38,0.028.72,0.042,1.01,0.042,0.4,0.085.55,0.134,0.44,0.149s-0.35.028-.71,0.043-0.77.021-1.2,0.021-0.82-.015-1.15-0.043-0.45-.063-0.35-0.106a4.7,4.7,0,0,1,.95-0.149C1305.5,568.013,1305.84,568.027,1306.22,568.056Zm104.71,10.234c0.07,0.014.09,0.028,0.05,0.042a0.943,0.943,0,0,1-.16.043,1.628,1.628,0,0,1-.3.021h-0.3c-0.22,0-.31-0.028-0.27-0.085a0.711,0.711,0,0,1,.49-0.085C1410.69,578.254,1410.85,578.275,1410.93,578.29Zm-4.78-.532c0.09,0.028.07,0.056-.05,0.085a3.908,3.908,0,0,1-.55.064c-0.24.014-.48,0.021-0.74,0.021s-0.45-.007-0.6-0.021-0.18-.05-0.11-0.107a4.331,4.331,0,0,1,.55-0.085,6.439,6.439,0,0,1,.71-0.042A4.894,4.894,0,0,1,1406.15,577.758Zm-6.53.255c0.04,0.028.05,0.057,0.03,0.085a0.312,0.312,0,0,1-.08.085,0.3,0.3,0,0,0-.08.086c-0.02.027-.01,0.049,0.03,0.063a1.249,1.249,0,0,0,.32.022c0.18,0,.44.014,0.77,0.042q1.74-.042,3.87.043,2.73,0.042,4.86,0a4.6,4.6,0,0,1-2.04.34c-1.19.057-2.56,0.078-4.13,0.064s-2.97-.05-4.23-0.106a17.76,17.76,0,0,1-2.43-.213q-0.54-.128,1.26-0.255a0.14,0.14,0,0,0,.11-0.107,0.184,0.184,0,0,0-.11-0.128,2.4,2.4,0,0,0-.22-0.106,1.345,1.345,0,0,0-.19-0.128q-0.09-.042-0.03-0.063a0.65,0.65,0,0,1,.25,0q0.18,0.021.6,0.063c0.27,0.028.64,0.071,1.12,0.128A0.856,0.856,0,0,1,1399.62,578.013Zm-5.35.553a2.392,2.392,0,0,1-.57-0.042c-0.09-.029-0.1-0.057-0.03-0.085s0.18-.064.33-0.107a2.44,2.44,0,0,1,.44-0.085,1.087,1.087,0,0,1,.38.022c0.65,0.17.47,0.269-.55,0.3h0Zm0.11-1.021a0.253,0.253,0,0,1-.16-0.042c-0.04,0-.03-0.015.03-0.043a1.089,1.089,0,0,1,.19-0.085,0.557,0.557,0,0,1,.22-0.043,0.762,0.762,0,0,1,.19.022c0.05,0.014.06,0.028,0.02,0.042a1.758,1.758,0,0,1-.27.064A0.357,0.357,0,0,1,1394.38,577.545Zm-1.28-.042a0.386,0.386,0,0,1-.27.149,3.28,3.28,0,0,1-.52.085,1.628,1.628,0,0,1-.38,0c-0.08-.015-0.02-0.079.16-0.192a1.946,1.946,0,0,1,.3-0.085,1.574,1.574,0,0,1,.35-0.043C1393,577.417,1393.12,577.445,1393.1,577.5Zm-73.17-1.83h-0.06c0.02,0,.07-0.008.17-0.022l0.27-.042a1.488,1.488,0,0,1,.25-0.021h0.16c0.07,0,.07.006,0,0.021s-0.22.035-.44,0.064h-0.35Zm6-.681q-0.03-.043.09-0.021a2.415,2.415,0,0,1,.24.063,0.311,0.311,0,0,1,.19.128c0.08,0.085.1,0.134,0.08,0.149a0.23,0.23,0,0,1-.16-0.043c-0.09-.042-0.17-0.078-0.25-0.106A1.832,1.832,0,0,1,1325.93,574.992Zm-7.5,4.787a4.545,4.545,0,0,1-1.15-.021,2.182,2.182,0,0,1-.63,0c-0.09-.029-0.11-0.05-0.05-0.064s0.15-.036.3-0.064a2.685,2.685,0,0,1,.52-0.042h0.51a0.953,0.953,0,0,1,.33.042C1318.59,579.687,1318.64,579.737,1318.43,579.779Zm67.6-1.34c0-.057.11-0.085,0.33-0.085,0.25,0,.38.035,0.38,0.106s-0.13.106-.38,0.106A0.356,0.356,0,0,1,1386.03,578.439Zm0.76-1.085q0.825-.064,1.5-0.128a8.087,8.087,0,0,0,.85-0.106,1.158,1.158,0,0,1,.74-0.192,0.875,0.875,0,0,1,.41.234,3.127,3.127,0,0,0,.38.255,0.906,0.906,0,0,1,.52.107c0.09,0.07.04,0.134-.14,0.191-0.36-.028-1.03-0.042-1.99-0.042h-3.14c-1.06-.029-2.02-0.043-2.9-0.043h-1.74a0.952,0.952,0,1,1,.43-0.064q0.885-.063,3.66-0.149C1385.77,577.417,1386.25,577.4,1386.79,577.354Zm-3.55,1.17c-0.4.056-1.06,0.1-1.99,0.128s-1.91.042-2.95,0.042-1.94-.007-2.7-0.021-1.19-.021-1.26-0.021c-0.25-.058-0.23-0.1.08-0.128s0.8-.057,1.48-0.085,1.42-.05,2.24-0.064,1.61-.021,2.37-0.021c0.8-.029,1.46-0.043,1.97-0.043a1.214,1.214,0,0,0,.65-0.042C1383.61,578.382,1383.64,578.467,1383.24,578.524Zm-6.17-1a0.23,0.23,0,0,1-.19.128,3.1,3.1,0,0,1-.46.106,0.55,0.55,0,0,1-.44-0.085c-0.11-.029-0.16-0.057-0.14-0.085a0.17,0.17,0,0,1,.14-0.043h0.27a1.6,1.6,0,0,0,.25-0.021,0.467,0.467,0,0,0,.19-0.064A0.486,0.486,0,0,1,1377.07,577.524Zm-25.83-4.745c-0.94.085-1.87,0.142-2.78,0.17q-3.66.17-8.03,0.809a14.027,14.027,0,0,0-2.51.553,4.461,4.461,0,0,1-1.2.362,7.79,7.79,0,0,1-1.75.021c-0.07,0-.06-0.029.03-0.085a1.118,1.118,0,0,1,.41-0.128c0.18-.028.38-0.057,0.6-0.085s0.4-.05.54-0.064a0.866,0.866,0,0,0,.3-0.064c0.06-.028.02-0.057-0.1-0.085a4.238,4.238,0,0,0-.74-0.042q-2.625.3-5.46,0.34a32.56,32.56,0,0,0-8.03.894c0.18-.17.1-0.27-0.24-0.3a9.827,9.827,0,0,0-1.42.021c-0.61.043-1.24,0.107-1.92,0.192s-1.26.155-1.77,0.213q-0.825.169-.93,0.17c-0.11.028-.15,0.056-0.14,0.085a0.5,0.5,0,0,0,.17.106,1.7,1.7,0,0,0,.3.107,1.222,1.222,0,0,1,.35.042c0.09,0.028.12,0.057,0.09,0.085a1.356,1.356,0,0,1-.41.085c-0.24.028-.61,0.057-1.12,0.086a7.2,7.2,0,0,0-1.56.063,7.051,7.051,0,0,0-1.06.277,7.774,7.774,0,0,1-1.92.383c-1.52.17-1.93,0.312-1.2,0.425,0.29,0.028.42,0.086,0.39,0.171a0.851,0.851,0,0,1-.61.17,0.606,0.606,0,0,0-.21.085,0.112,0.112,0,0,0-.06.085,0.269,0.269,0,0,0,.06.128,0.361,0.361,0,0,1,.08.106,0.109,0.109,0,0,1-.03.128,0.457,0.457,0,0,1-.22.106,1.609,1.609,0,0,0-.38.3c-0.04.057-.02,0.092,0.05,0.106a0.945,0.945,0,0,0,.33-0.021,1.7,1.7,0,0,1,.25.021c0.09,0.014.13,0.043,0.13,0.086a0.393,0.393,0,0,1-.21.191,0.762,0.762,0,0,0-.06.638,1.25,1.25,0,0,0,.47.66,1.009,1.009,0,0,0,.84.191,1.85,1.85,0,0,1,1.04.043c0.55,0.113,1.13.255,1.75,0.426,0.47,0.141.89,0.255,1.25,0.34a2.825,2.825,0,0,0,.77.106c0.14-.014.11-0.121-0.11-0.319-0.26-.114-0.36-0.191-0.3-0.234a1.214,1.214,0,0,1,.54-0.064h2.68a5.114,5.114,0,0,0,1.39-.17,50.469,50.469,0,0,1,7.92-.681c1.67-.028,3.24-0.085,4.7-0.17,0.14-.255-0.37-0.4-1.53-0.425s-2.6-.008-4.29.063-3.26.171-4.7,0.3a11.637,11.637,0,0,0-2.75.447,0.9,0.9,0,0,0,.11-0.532,0.593,0.593,0,0,0-.28-0.276,0.547,0.547,0,0,0-.16-0.086,0.3,0.3,0,0,1,.27-0.149,2.5,2.5,0,0,1,.55.022,6.214,6.214,0,0,1,.71-0.043,0.5,0.5,0,0,0,.44-0.17,3.848,3.848,0,0,1,.73-0.319,0.652,0.652,0,0,1,.44.021,0.791,0.791,0,0,1,.3.213c0.11,0.056.23,0.12,0.35,0.191a4.041,4.041,0,0,0,.41.192,0.677,0.677,0,0,0,.3.021,2.578,2.578,0,0,0,.36-0.064,1.053,1.053,0,0,0,.24-0.085c0.06-.028.05-0.057-0.02-0.085a1.47,1.47,0,0,0-.44-0.042,0.987,0.987,0,0,1-.65-0.086,0.551,0.551,0,0,1,.41-0.191c0.27-.071.6-0.142,0.98-0.213s0.72-.135,1.01-0.191a1.087,1.087,0,0,1,.49-0.043,0.835,0.835,0,0,1-.49.213,1.428,1.428,0,0,0-.47.276c-0.05.071-.01,0.135,0.14,0.192a27.643,27.643,0,0,1,3.39.043c1.09,0.056,2.17.077,3.25,0.063a12.486,12.486,0,0,0,2.81-.319,7.509,7.509,0,0,0,1.53.021c0.61-.042,1.29-0.121,2.02-0.234a21.2,21.2,0,0,1,3.38-.127q0.225,0.17.03,0.255a2.171,2.171,0,0,1-.6.128q-0.4.042-.9,0.085a7.485,7.485,0,0,0-.82.042,2.316,2.316,0,0,0-.6.128,3.129,3.129,0,0,1-1.01.192,11.161,11.161,0,0,1-1.18-.022,10.073,10.073,0,0,0-1.47.022,2.456,2.456,0,0,0-1.2.4q2.565-.086,5.84-0.3a109.643,109.643,0,0,1,13.82-.3,21.911,21.911,0,0,1-2.68.255,22.792,22.792,0,0,0-2.57.256,18.123,18.123,0,0,0,4.56.149c1.92-.128,3.65-0.292,5.22-0.49,0.29-.028.56-0.042,0.82-0.042l16.71-.043c2.14,0,4.02-.007,5.62-0.021s2.99-.029,4.15-0.043,2.13-.028,2.9-0.042,1.37-.036,1.83-0.064,0.8-.057,1.03-0.085a1.5,1.5,0,0,0,.47-0.107,0.185,0.185,0,0,0,.11-0.148c-0.04-.086.09-0.149,0.38-0.192s0.6-.078.93-0.106a1.27,1.27,0,0,1,.71.085c0.07,0.028.08,0.049,0.02,0.064a1.356,1.356,0,0,1-.3.021h-0.43c-0.26,0-.49.007-0.71,0.021a0.571,0.571,0,0,0-.39.107c-0.03.056,0.09,0.155,0.39,0.3q7.635,0.468,17.53.256,7.1-.128,12.66.042a17.719,17.719,0,0,1,4.1-.042,29.072,29.072,0,0,0,4.15.127,0.216,0.216,0,0,0,.22-0.149,1.1,1.1,0,0,0,.05-0.319,0.813,0.813,0,0,1,.03-0.255c0.02-.057.06-0.057,0.14,0a0.418,0.418,0,0,0,.49-0.319,2.036,2.036,0,0,0,.05-0.83,7.521,7.521,0,0,0-.11-0.766,3.979,3.979,0,0,0-1.2-1.043,12.366,12.366,0,0,0-2.13-1.148,4.309,4.309,0,0,0-1.85-.447,2.423,2.423,0,0,1-.44.042,0.242,0.242,0,0,1-.25-0.085q-0.03-.086.3-0.213,0.06-.341-0.57-0.574a7.453,7.453,0,0,0-1.47-.362c-0.57-.085-1.03-0.142-1.4-0.17a2.1,2.1,0,0,1-.38-0.085,26.042,26.042,0,0,0-7.59-1.277q-4.2-.128-8.24,0h-0.55q-22.56-1.063-54.01,1.447h0Zm-7.53,5.787h-1.48q-0.105,0,.06-0.042a5.33,5.33,0,0,1,1.53-.319,1.364,1.364,0,0,1,.79.106c0.09,0.085-.08.17-0.52,0.255h-0.38Zm2.89,0c-0.33.028-.64,0.05-0.95,0.064a0.972,0.972,0,0,1-.74-0.234,0.78,0.78,0,0,1,.49-0.17,7.908,7.908,0,0,1,.87-0.043q0.495,0,.93.043a3.267,3.267,0,0,1,.63.106q0.2,0.065.03,0.192a6.273,6.273,0,0,0-1.26.042h0Zm2.32-.319c-0.02-.042.02-0.085,0.11-0.127a1.019,1.019,0,0,1,.33-0.086q0.2-.021.3-0.021c0.18,0.057.26,0.121,0.25,0.192a0.272,0.272,0,0,1-.22.149,0.935,0.935,0,0,1-.47-0.043A0.38,0.38,0,0,1,1348.92,578.247Zm6.75,0.809a0.528,0.528,0,0,1-.28,0c0.04-.015.16-0.05,0.36-0.107s0.41-.113.63-0.17q0.7-.171,1.2-0.3a0.129,0.129,0,0,1,.05.085,3.289,3.289,0,0,1,.33.3,3.068,3.068,0,0,0-.49.043,6.326,6.326,0,0,0-.66.042Q1356,579.035,1355.67,579.056Zm-24.96-10.149h0.82l17.8-.554q18.135-.383,37.19-1.021,26.6-1.022,50.73-1.234c0.94-.085,1.32-0.156,1.12-0.213a10.773,10.773,0,0,0-1.86-.085h-7.84q-1.74.042-3.03,0.021c-0.85-.014-1.47-0.021-1.85-0.021s-0.38-.014.02-0.042q6.675-.3,16.58-0.468t20.07-.256q13.365-.086,22.22-0.3a9.06,9.06,0,0,0-3.03-.319c-1.44.014-2.9,0.064-4.4,0.149a48.025,48.025,0,0,1-5.57.085,12.7,12.7,0,0,0-1.99-.127q-1.725-.043-3.66-0.064c-1.29-.015-2.32-0.008-3.08.021-1.06-.085-1.32-0.17-0.79-0.255a23.135,23.135,0,0,1,2.78-.171q1.995-.042,3.96-0.042,19.71,0.169,38.66-.468a20.868,20.868,0,0,0,2.51-.064,2.949,2.949,0,0,0,1.26-.234,3.827,3.827,0,0,0-1.64-.255,3.878,3.878,0,0,1-1.47-.171q0.27-.042,1.77-0.063t3.36,0c1.24,0.014,2.31.035,3.22,0.063a4.246,4.246,0,0,1,1.37.128,10.187,10.187,0,0,1-2.13.213c-0.95.056-1.52,0.1-1.7,0.128s-0.03.07,0.44,0.127a12.757,12.757,0,0,0,2.84-.042,5.223,5.223,0,0,0,1.53-.468,8.018,8.018,0,0,1,1.64-.383,10.226,10.226,0,0,1,2.78.17,7.572,7.572,0,0,0,1.53.127c0.62,0,1.26-.028,1.91-0.085,0.55-.057,1.04-0.092,1.48-0.106s0.65,0.035.65,0.149a0.688,0.688,0,0,1-.44.17,1.926,1.926,0,0,0-.6.149c-0.14.07-.19,0.149-0.13,0.234a1.352,1.352,0,0,0,.52.341q-10.98-.171-23.1.382-8.955.341-17.09,0.384c-1.9,0-2.08.113-.55,0.34q10.86,0.17,25.39-.34,8.145-.214,14.75-0.3a93.961,93.961,0,0,1,9.93.255c-0.76.2-.81,0.29-0.13,0.277s1.72-.079,3.14-0.192,2.91-.255,4.47-0.426,2.92-.319,4.05-0.446a13.467,13.467,0,0,0,1.69-.234,1.256,1.256,0,0,1,.54-0.128,15.972,15.972,0,0,0,4.13,0q2.97-.255,5.81-0.7a25.538,25.538,0,0,0,3.66-.745c0.55-.2-0.22-0.227-2.29-0.085q-1.965.086-.99-0.128c0.19-.057.23-0.085,0.14-0.085h-1.72c-0.58,0-1.14.007-1.66,0.022a10.474,10.474,0,0,1-1.21-.022c-0.27-.028-0.31-0.071-0.13-0.127q0.54-.043,1.14-0.085c0.66-.058,1.36-0.122,2.11-0.192s1.35-.149,1.83-0.234,0.65-.17.54-0.255a0.643,0.643,0,0,0-.38.042c-0.47.028-1.02,0.057-1.64,0.085s-1.26.057-1.94,0.085a13.017,13.017,0,0,1-1.5,0c-0.33-.028-0.36-0.1-0.11-0.212,0.58-.2.17-0.284-1.25-0.256q-3.615-.042-0.6-0.3c0.65-.113.88-0.191,0.68-0.234a10.5,10.5,0,0,0-1.45-.085c-0.76-.014-1.65-0.014-2.65,0s-1.92.022-2.75,0.022c-1.24.027-2.01,0.042-2.3,0.042a12.909,12.909,0,0,0-3.38-.3q-2.79-.042-5.46-0.042-7.59.084-3.06-.3a12.116,12.116,0,0,0,1.72-.149,2.058,2.058,0,0,0-1.01-.107c-0.55.028-1.93,0.014-4.15-.042q-2.685-.086-5.98-0.106t-5.79.127a6.306,6.306,0,0,0-3.03.617q-4.59-.213-14.36-0.191t-18.19.064q-5.13.041-7.53,0.085-1.59.042-2.16,0.085c-0.38.028-.5,0.056-0.35,0.085a6.784,6.784,0,0,0,.87.064c0.44,0.014.98,0.021,1.64,0.021,0.58,0,1.15.007,1.72,0.021s0.99,0.036,1.28.064,0.29,0.071,0,.128q-53.19-1.4-107.3.3-14.52.468-28.69,0.68t-30.72.6q-23.37.512-47.34,1.553t-43.91,3.554c-0.76.056-2.14,0.17-4.12,0.34s-3.8.376-5.46,0.617-2.47.5-2.43,0.787c1.53,0.171,1.16.3-1.09,0.383a50.411,50.411,0,0,0-5.95.809,46.218,46.218,0,0,0-5.9,1.468c-1.68.553-2.55,1.085-2.62,1.6a2.555,2.555,0,0,1,1.2.808,11.093,11.093,0,0,0,1.04.639,0.5,0.5,0,0,0,.32-0.043,0.191,0.191,0,0,0-.16-0.085,0.4,0.4,0,0,1,.41-0.085,1.685,1.685,0,0,1,.3.255,0.36,0.36,0,0,0,.25.3,2.073,2.073,0,0,0,.95.085q2.835-.213,7.65-0.425c2-.085,3.87-0.171,5.62-0.256s3.09-.184,4.04-0.3q6.825-.51,16.38-0.808,10.98-.3,21.03-1.064,10.26-.468,27.63-1.021,18.78-.639,29.59-1.149a1.9,1.9,0,0,0,1.12-.3,3.764,3.764,0,0,0-1.14-.085q-1.02,0-2.16.085h-2.13c-0.18,0-.24-0.029-0.16-0.085a69.12,69.12,0,0,1,7.31.042,119.671,119.671,0,0,0,14.26-.085h0.98l1.85-.085H1330Zm189.38-9.575a2.125,2.125,0,0,1,.51-0.043h0.8c0.29,0,.55.007,0.79,0.022a2.733,2.733,0,0,0,.49,0c0.09-.015.04-0.015-0.14,0s-0.56.035-1.14,0.064c-1.35,0-1.79-.015-1.31-0.043h0Zm-15.95.383a3.785,3.785,0,0,1-.68.17,1.705,1.705,0,0,1-.44.021c-0.09-.014-0.05-0.063.14-0.148a1.1,1.1,0,0,1,.46-0.149,3.762,3.762,0,0,1,.66-0.064,1.423,1.423,0,0,1,.35.021,0.476,0.476,0,0,1-.33.149h-0.16Zm24.71,3.3c0.42-.015.87-0.029,1.36-0.043s0.95-.021,1.37-0.021,0.7,0.007.85,0.021,0.1,0.028-.14.043-0.79.049-1.67,0.106c-1.49.085-2.54,0.121-3.16,0.107s-0.46-.079.49-0.192Q1528.22,563.034,1528.85,563.013Zm-78.28,1.681c-0.95.028-1.53,0.042-1.75,0.042q-0.705-.213,0-0.3c0.48-.058,1.17-0.093,2.08-0.107s1.86-.007,2.87.021,1.78,0.057,2.34.086,0.73,0.063.5,0.106-1.12.064-2.65,0.064Q1452,564.651,1450.57,564.694Zm-12.01-.064c0.29-.043.72-0.078,1.28-0.106s1.18-.05,1.86-0.064,1.25-.021,1.72-0.021c1.53,0.027,2.56.063,3.08,0.106s0.72,0.092.58,0.149a4.264,4.264,0,0,1-1.07.106l-1.77.043q-0.93.021-1.8,0.021c-0.66-.029-1.25-0.05-1.78-0.064s-1.23-.021-2.1-0.021C1438.27,564.722,1438.27,564.673,1438.56,564.63Zm-4.48.149a1.781,1.781,0,0,1-.74-0.128,1.181,1.181,0,0,1,.8-0.212,5.058,5.058,0,0,1,.76-0.043q0.495,0,.93.043a0.668,0.668,0,0,1,.44.106,1.677,1.677,0,0,1-.71.149A6.874,6.874,0,0,1,1434.08,564.779Zm-102.6,3.319c0.18-.028.51-0.057,0.98-0.085,0.11,0.028.14,0.057,0.11,0.085a0.114,0.114,0,0,0-.06.085c0,0.028-.05.043-0.16,0.043a3.486,3.486,0,0,1-.87-0.085V568.1Zm-6.47.426c-0.24.028-.52,0.049-0.85,0.063a6.933,6.933,0,0,1-.77,0,0.384,0.384,0,0,1-.27-0.063c-0.04-.029.06-0.064,0.3-0.107a4.562,4.562,0,0,1,.79-0.064h0.8a0.58,0.58,0,0,1,.35.043A0.391,0.391,0,0,1,1325.01,568.524Zm-4.97-1.085q2.865,0.021,6.06-.064t5.16-.171l-0.28.171c-0.07.028-.16,0.07-0.27,0.127q-8.685.384-12.94,0.383a70.491,70.491,0,0,0-7.43.256c-0.54-.029-0.68-0.079-0.41-0.149a8.8,8.8,0,0,1,1.56-.149c0.47-.114.86-0.213,1.15-0.3a6.912,6.912,0,0,1,1.31-.255,12.189,12.189,0,0,1,2.24.042C1316.84,567.389,1318.13,567.424,1320.04,567.439Zm82.42-1.362c0.33-.043.98-0.085,1.94-0.128s2.04-.085,3.22-0.128,2.3-.071,3.34-0.085,1.84-.021,2.43-0.021a0.861,0.861,0,1,1,.27.043q1.41,0.084,2.46.085c0.83,0.056,1,.106.49,0.149s-1.46.078-2.84,0.106-2.89.057-4.51,0.085-3.02.043-4.2,0.043h-2.05C1402.32,566.169,1402.14,566.119,1402.46,566.077Zm-9.66-.66a13.331,13.331,0,0,1,2.16,0c0.49,0.057.63,0.107,0.43,0.149a12.978,12.978,0,0,1-1.88.021c-1.79-.057-2.02-0.113-0.71-0.17h0Zm-10.73,1.468c-0.02-.127.83-0.206,2.54-0.234,3.35-.085,3.36.014,0.05,0.3C1382.95,567.034,1382.09,567.013,1382.07,566.885Zm-9.04.447c-0.62,0-1.09.007-1.42,0.021s-0.56.022-.71,0.022a1.468,1.468,0,0,1-.3-0.022,0.087,0.087,0,0,1-.08-0.063,13.8,13.8,0,0,1,1.64-.149c0.8-.043,1.73-0.079,2.78-0.107s1.99-.05,2.79-0.064,1.36-.014,1.69,0,0.19,0.043-.41.086-1.87.106-3.79,0.191Q1373.96,567.333,1373.03,567.332Zm-19-.532a6.726,6.726,0,0,1-.93-0.021c0.07-.029.16-0.071,0.27-0.128l0.28-.085a0.957,0.957,0,0,0,.35.021,5.042,5.042,0,0,1,.52-0.021,3.488,3.488,0,0,0,.63.021c0.13-.014.19-0.007,0.19,0.022a0.829,0.829,0,0,1-.38.127C1354.67,566.764,1354.36,566.786,1354.03,566.8Zm0,1-3.44.043V567.8l0.71-.255c0.76-.057,1.69-0.085,2.78-0.085h2.98c0.89,0,1.56.014,1.99,0.042s0.42,0.057-.05.086-1.66.07-3.55,0.127Z" transform="translate(-1134 -291)"/>
  <text id="Limited_Offer" data-name="Limited Offer" class="cls-2" transform="matrix(0.759, 0.001, -0.002, 0.759, 389.146, 220.167)">Limited<tspan dy="44.243">Offer</tspan></text>
  <text id="Menu" class="cls-3" transform="matrix(0.688, 0, 0, 0.688, 202.52, 257.642)">Menu</text>
  <text id="Burger" class="cls-4" transform="matrix(0.617, 0.001, -0.001, 0.617, 239.025, 204.232)">Burger</text>
  <text id="Delicious" class="cls-5" transform="matrix(0.617, 0.001, -0.001, 0.617, 294.649, 86.613)">Delicious</text>
  <text id="Super" class="cls-6" transform="matrix(0.617, 0.001, -0.001, 0.617, 356.907, 32.454)">Super</text>
</svg>
