<svg xmlns="http://www.w3.org/2000/svg" viewBox="0 0 449.05 120.28"><defs><style>.cls-1{fill:#eb1c24;}.cls-2{fill:#f1c40f;}.cls-3{fill:#fff;}.cls-4{fill:#0c0c0c;}</style></defs><title>Asset 1</title><g id="Layer_2" data-name="Layer 2"><g id="Layer_1-2" data-name="Layer 1"><circle class="cls-1" cx="60.14" cy="60.14" r="60.14"/><path class="cls-2" d="M48.85,49.25c8.8.53,17.59.84,26.2-1.58a15.68,15.68,0,0,0,7.33-4c3.12-3.21,3.18-6.71.12-9.94a20.06,20.06,0,0,0-9.69-5.44c-12.08-3.21-23.57-1.88-34.16,5.07-3.71,2.44-5.1,4.54-6.07,8.7-1.07-.67-1-1.55-.75-2.56a11.86,11.86,0,0,1,4.69-6.31,36.13,36.13,0,0,1,17-7.08c8.63-1.21,17.13-.56,25.22,3,3.39,1.48,6.58,3.34,8.68,6.54,2.37,3.63,1.71,7.18-1.73,9.89a24.09,24.09,0,0,1-9.57,4.32c-7.39,1.75-14.88,1.58-22.38,1-1.72-.12-3.43-.43-5.14-.65C48.1,49.78,48.51,49.53,48.85,49.25Z"/><path class="cls-2" d="M88.83,83.82A9.32,9.32,0,0,1,85,88.37c-4.12,3-8.9,4.29-13.84,5.12a64.82,64.82,0,0,1-29.3-1.65,19.54,19.54,0,0,1-8.75-4.93A2.89,2.89,0,0,1,32.55,83c.53-.79,1.34-1.17,1.9-.24,3.07,5.1,8.3,6.55,13.5,7.61,8.95,1.83,18,2.26,27,.25a25.28,25.28,0,0,0,11.39-5.37A4.38,4.38,0,0,1,88.83,83.82Z"/><path class="cls-3" d="M84.47,66.28a2.55,2.55,0,0,0-2.61,2.3,2.52,2.52,0,0,0,2.54,2.57,2.48,2.48,0,0,0,2.5-2.38A2.58,2.58,0,0,0,84.47,66.28ZM85.66,70c-1.89,0-.69-2.5-2.55-2.45,1.21-1.06,2-.85,2.68,0A1.82,1.82,0,0,1,85.66,70Z"/><path class="cls-3" d="M93.9,55.81c-2.12,2-2.51,5.4-5.31,7.37a13.44,13.44,0,0,1,1.3-3.75c.25-.6.61-1.32-.09-1.77-1.7-1.1-1.2-2.37-.45-3.73.46-.84.64-1.7-.47-2.17s-2-.38-2.55.8a6.25,6.25,0,0,0-.6,2.5c-.08,2.83-3.24,7.23-5.9,8.22-.64.24-1.43.7-1.84-.31-.32-.79.26-1.09.89-1.42a10.41,10.41,0,0,0,4.29-4.45,2.39,2.39,0,0,0,.19-2.65c-.65-.9-1.65-.67-2.58-.43a8.31,8.31,0,0,0-5.43,4.29c-.51.94-.92,1.95-2.24,2.36.3-1.42-.38-2.65-.08-4.05.25-1.2-.94-2.27-2.24-2.45a5,5,0,0,0-3.65,1,9.82,9.82,0,0,0-3.81,5.6,6.39,6.39,0,0,1-3.2,4.44c.18-1.71,1.37-3,1.65-4.86-3.43-1.43-.71-3.55-.46-5.35a2.08,2.08,0,0,0-2.52-1,2.8,2.8,0,0,0-1.5,2.92c.13,2.78-1.57,4.69-2.94,6.76-.24.36-.6.89-1.41.34.46-2.12,1.62-4,2.48-6.06.8-1.88.52-2.38-1.75-3-1.41,3.22-3.69,5.86-6,8.5A54.63,54.63,0,0,1,50,58.34c1-2.22.75-2.76-1.67-3.52-.05,0-.14.07-.17.13-.81,1.67-1.64,3.34-2.42,5a13.13,13.13,0,0,0-.95,2.63,2.76,2.76,0,0,0,1.48,3.1c1.05.59,1.7-.35,2.37-1,.46-.45.91-.92,1.36-1.38.43.26.46.73.68,1.1,1.1,1.85,2.76,2.08,4.25.52a17.87,17.87,0,0,0,1.8-2.42,15.34,15.34,0,0,1,2-2.94c0,1.68-.78,2.69-1,3.85s-.31,2.49,1,3.24,2.34.08,3.21-.9c.56-.62,1.08-1.27,1.81-2.14.58,1.46,1.64,2,3.35,2-2.08,1.65-4,2.79-5.34,4.47-1.25,1.52-.58,3.17,1.36,3.52a3.71,3.71,0,0,0,3.46-1.36,25,25,0,0,0,4.45-6.86A7.51,7.51,0,0,1,74.45,62c1.77,3.74,4.15,4.43,7.25,2.17a10.82,10.82,0,0,0,2.69-2.79l2.46-3.67c.22,1.45-.69,2.56-.81,3.89a2.51,2.51,0,0,0,1.19,2.77c1.17.65,2.08.12,2.87-.73a25,25,0,0,0,4.2-6.75C94.43,56.58,94.43,56.27,93.9,55.81Zm-11.85-.25a5.6,5.6,0,0,1-3.14,4.08C79.47,57.92,80.19,56.32,82.05,55.56ZM62.23,71.86c.6-2,2.37-2.86,3.89-4C65.3,69.73,64.24,71.3,62.23,71.86Zm8-12.58a11.39,11.39,0,0,1-1.87,3.61A2,2,0,0,1,66.12,64a11.77,11.77,0,0,1,3.62-7.44c.66-.62.83-.55,2.23.13C70.68,57.18,70.51,58.27,70.2,59.28Z"/><path class="cls-3" d="M48.85,49.25l-.28,1c-1.4,3.47-4.65,4.94-7.72,7,1.68,1.17,2.93,2.48,2.63,4.62a7.25,7.25,0,0,1-3.85,5.43,17.42,17.42,0,0,1-10.54,2.56c-2.49-.23-3.53-1.87-2.64-4.28C27.91,68,30,67.88,32.31,67.29a17,17,0,0,0,6.19-3A6,6,0,0,0,40.74,61c.46-1.85,0-2.53-2-2.57-3.34-.07-5.9,2.39-6.32,6.11,0,.43.08.87-.29,1.21-2.08-.48-2.77-1.43-2.3-3.28a8.46,8.46,0,0,1,.72-1.8c.63-1.24,1.06-2.48.1-3.75,3.5-1.14,3.42-4.46,4.61-6.94.09-.19,0-.44.07-.65a2.83,2.83,0,0,1,.23-.57c2.34.18,3,1.09,2.42,3.11-.22.69-.52,1.35-.79,2l-.87,2.21c3.81-1.54,7.49-2.51,9.56-6.13-.17-.44.08-.76.31-1.09a3.4,3.4,0,0,0-2-3.9c-2.38-1.2-4.33-.05-4.62,2.74a2.07,2.07,0,0,1-1.58-2.43c.23-1.55,1.46-2.05,2.78-2.24,3-.45,6.8,2,7.72,5C48.68,48.41,48.75,48.84,48.85,49.25Z"/><path class="cls-3" d="M82.82,81.6A10.5,10.5,0,0,0,83,75.42a6.26,6.26,0,0,0-12.07-.2,11.36,11.36,0,0,0-.37,3.84c.08,4.88,3.11,7.55,7.85,6.71a3.79,3.79,0,0,1,3,.48l2.19-1.8A2.15,2.15,0,0,1,82.82,81.6Zm-3.55-1.34-1.49-.89A3,3,0,0,0,75.91,81c.06.75,1,.94,1,1.65-2.29-.32-2.71-1.25-2.46-5.34.3-.64.56.17.89,0,.67-.35.22-1.18.67-1.67A10.26,10.26,0,0,0,77,74a7.44,7.44,0,0,0,.55.83c.54.59.07,1.73,1.57,2C79.85,76.93,79.56,78.83,79.27,80.26Z"/><path class="cls-3" d="M56.06,80.35c-.39-.91-1.23-1.38-1.86-2.08.1-.2.19-.39.29-.56,1.94-3.13.87-5.87-2.66-6.7a13.06,13.06,0,0,0-6.42.17V86.7a17,17,0,0,0,7.76,0A4.59,4.59,0,0,0,56.06,80.35Zm-6.8-6.53c1.38,0,2.43.23,2.4,1.67s-1.1,1.64-2.38,1.66A5.06,5.06,0,0,1,49.26,73.82Zm0,10.11a9.87,9.87,0,0,1-.06-3.46c2.26-.24,3.12.23,3.16,1.61S51.64,84,49.29,83.93Z"/><path class="cls-3" d="M68.77,82.73c-.24-.94-1.21-1.18-1.61-1.93,2.42-2.83.32-5.22-2.44-5.42a34.2,34.2,0,0,0-6.23.16V87.06c2.75,0,5.39.49,8-.31A3.09,3.09,0,0,0,68.77,82.73Zm-5.65-5c.73,0,1.4.27,1.3,1.08-.17,1.45-1.28,1-2.25,1.09C61.91,78.6,61.76,77.72,63.12,77.7Zm1.67,5.89c-.47,1.3-1.56.86-2.53.93a2.4,2.4,0,0,1-.1-2,1.93,1.93,0,0,1,2-.13A.85.85,0,0,1,64.79,83.59Z"/><path class="cls-3" d="M56.82,30.51h8.32a2.79,2.79,0,0,1,.26,2.73c-1,.56-2,.07-3.17.63V46.18a8.82,8.82,0,0,1-3.78.13v-12c-.47-1-1.26-.6-1.68-1.08A4.84,4.84,0,0,1,56.82,30.51Z"/><path class="cls-3" d="M55.11,46.23a10.36,10.36,0,0,1-3.61.11V30.5a9.32,9.32,0,0,1,3.61,0Z"/><path class="cls-3" d="M66.53,40.49c.45.9,1.23.67,1.8.92A2.43,2.43,0,0,1,70,43.66a2.57,2.57,0,0,1-1.68,2.54,6.12,6.12,0,0,1-4.53,0,1.58,1.58,0,0,1,.25-1.92c.94-.38,2,.38,3-.21-.14-1-1.09-.76-1.66-1-1.1-.5-1.84-1.19-1.74-2.44A2.55,2.55,0,0,1,66,38.21a5.71,5.71,0,0,1,3.39.27c.49.63.27,1.21-.1,1.87C68.44,40.68,67.49,40,66.53,40.49Z"/><path class="cls-3" d="M38.46,79.1c.77,1.33,1.64.44,2.48,0,0,1.43-.82,2.06-2.06,1.42a6,6,0,0,0-3.17-.8,1.44,1.44,0,0,1-1.21-2.42A15.28,15.28,0,0,0,37,72.64a2.63,2.63,0,0,1,.8-1A1.51,1.51,0,0,1,40,71.58a1.36,1.36,0,0,1,0,2.1,22.65,22.65,0,0,1-2.15,2.12c-.8.72-.89,1.42-.08,2.18C38.87,77.81,39,76.5,40,76,40.61,77.72,38.77,78,38.46,79.1Z"/><path class="cls-3" d="M68.72,36.31a3.16,3.16,0,0,1-2.49-.12l1-3.85a3,3,0,0,1,2.63-.18A13.38,13.38,0,0,1,68.72,36.31Z"/><path class="cls-3" d="M46.24,48.86c0,.4.08.81-.31,1.09a12.46,12.46,0,0,1-4.75-1.68C42.93,48.09,44.55,48.72,46.24,48.86Z"/><path class="cls-4" d="M131.28,35.85h16.61c9.16,0,13.25,4.81,13.25,10.58,0,4.88-2.76,8-5.92,9.18a10.35,10.35,0,0,1,7.27,10c0,7.81-6,12.4-14.16,12.4H131.28Zm15.54,17.37c5.78,0,8.05-2.32,8.05-6.22,0-3.61-2.61-6.07-7.29-6.07H137.42V53.22Zm-9.4,19.72h10c5.22,0,8.63-2.4,8.63-7.39,0-4.35-2.8-7.26-9.51-7.26h-9.13Z"/><path class="cls-4" d="M194.69,69c0,3,0,7,.06,9h-5.81c-.12-.82-.18-2.65-.21-4.43-1.58,3.37-4.51,5.16-9.19,5.16-5.42,0-10.24-2.83-10.24-11.35V47.11h5.93v19c0,3.93,1.23,7.5,6.08,7.5,5.34,0,7.42-2.94,7.42-10.35V47.11h6Z"/><path class="cls-4" d="M203.54,55.51c0-4.08,0-6.57-.06-8.4h5.85c.08.84.17,3.39.17,6.14,1.57-4.06,5.18-6.73,10.32-6.87v5.88c-6.32.12-10.32,3.11-10.32,11.05V78h-6Z"/><path class="cls-4" d="M250.65,75.05c0,9.9-4,15.67-14.41,15.67-9.74,0-12.5-5.46-13-9.52h6.07c.85,3.14,3.34,4.87,7.19,4.87,6.73,0,8.34-4.25,8.34-11.16v-2.3c-1.64,3.31-4.42,5.22-9.48,5.22-7.71,0-12.79-6.29-12.79-15.21,0-10,5.86-16.24,13.38-16.24,5.78,0,8.23,2.72,8.89,4.66.06-1.3.2-3.31.26-3.93h5.64c0,2-.09,6-.09,8.92ZM228.74,62.36c0,6.29,3.25,10.46,8.06,10.46,6.37,0,8.21-4.29,8.21-10.83s-1.66-10.63-8-10.63C231.65,51.36,228.74,55.77,228.74,62.36Z"/><path class="cls-4" d="M263.48,63.7c0,5.82,3,10.15,8,10.15,4.64,0,6.11-2.3,7.06-4.49h6c-1.19,3.93-4.52,9.39-13.23,9.39-9.81,0-13.86-7.84-13.86-15.83,0-9.29,4.7-16.54,14.19-16.54,10.1,0,13.43,7.94,13.43,14.75A23.4,23.4,0,0,1,285,63.7Zm15.58-4.05c-.06-4.79-2.4-8.67-7.47-8.67s-7.43,3.59-7.93,8.67Z"/><path class="cls-4" d="M291.76,55.51c0-4.08,0-6.57-.06-8.4h5.85c.09.84.17,3.39.17,6.14,1.57-4.06,5.18-6.73,10.32-6.87v5.88c-6.32.12-10.32,3.11-10.32,11.05V78h-6Z"/><path class="cls-4" d="M329.89,35.85h16.6c9.16,0,13.26,4.81,13.26,10.58,0,4.88-2.76,8-5.93,9.18a10.35,10.35,0,0,1,7.28,10c0,7.81-6,12.4-14.17,12.4h-17Zm15.54,17.37c5.77,0,8-2.32,8-6.22,0-3.61-2.61-6.07-7.29-6.07H336V53.22ZM336,72.94h10c5.23,0,8.63-2.4,8.63-7.39,0-4.35-2.8-7.26-9.51-7.26H336Z"/><path class="cls-4" d="M369.47,35.85h16.61c9.16,0,13.25,4.81,13.25,10.58,0,4.88-2.76,8-5.92,9.18a10.35,10.35,0,0,1,7.28,10c0,7.81-6,12.4-14.17,12.4h-17ZM385,53.22c5.77,0,8-2.32,8-6.22,0-3.61-2.61-6.07-7.29-6.07H375.62V53.22Zm-9.4,19.72h10c5.23,0,8.63-2.4,8.63-7.39,0-4.35-2.8-7.26-9.51-7.26h-9.12Z"/><path class="cls-4" d="M446.22,56.72c0,11.62-6.6,21.91-20,21.91-12.56,0-19.49-9.6-19.49-21.69s7.18-21.7,20-21.7C438.72,35.24,446.22,44.11,446.22,56.72Zm-32.93,0c0,9,4.46,16.61,13.23,16.61,9.47,0,13.17-7.83,13.17-16.56s-4.2-16.28-13.19-16.28C417.31,40.52,413.29,47.91,413.29,56.75Zm23.42,16,12.34,8.68-3.76,4.31L431,75.66Z"/></g></g></svg>