<svg xmlns="http://www.w3.org/2000/svg" viewBox="0 0 487.93 176.2"><defs><style>.cls-1{fill:#f2901e;}.cls-2{fill:#da8318;}.cls-3{fill:#bf7114;}.cls-4{fill:#fd9a1f;}.cls-5{fill:#fea623;}.cls-6{fill:#feac38;}.cls-7{fill:#00b100;}.cls-8{fill:#00e700;}.cls-9{fill:#00e800;}.cls-10{fill:#00e600;}.cls-11{fill:#00e900;}.cls-12{fill:#ed1e26;}.cls-13{fill:#aa0f15;}.cls-14{fill:#aa0f16;}.cls-15{fill:#aa1016;}.cls-16{fill:#d3353c;}.cls-17{fill:#d2353c;}.cls-18{fill:#d53b42;}.cls-19{fill:#f73a40;}.cls-20{fill:#f73a41;}.cls-21{fill:#f63a3f;}</style></defs><title>Asset 20</title><g id="Layer_2" data-name="Layer 2"><g id="Layer_1-2" data-name="Layer 1"><g id="bottom"><path class="cls-1" d="M7.69,67.45C5,52.23,18.32,42.71,34.47,36.29c32.11-12.78,65.59-19.53,100.2-22.87,41.4-4,82.72-7.69,124.24-5.79,36.28,1.66,72.49,4.08,108.38,11.26,27.9,5.59,55.59,10.59,80.77,24.64,7.79,4.34,15,9,17.62,18.26,1.75,8.74.36,17.57.67,26.35-5.48,16.74-19.82,25.68-32.25,36.16-26.9,22.71-59.55,29.82-93.37,33.21-42.6,4.28-85.06,1.49-127.57-2.29-20.06-1.79-40.37-.44-60.32-4.1C135.41,140.27,115.36,135,97.32,125.4c-5.58-3-12-5-16.39-9.39C67.74,102.9,50.27,98.33,34.17,90.94,23,85.83,11.41,81,7.69,67.45Z"/><path class="cls-2" d="M150.74,148.78c55.71,2.19,111.22,8.5,167.1,7.62,29.32-.47,58.2-5.32,84.76-16.14,25-10.19,45.6-28.92,62.51-50.68,2.33,2.7.85,5.92,1.21,8.9a8.45,8.45,0,0,1-.92,3.59c-6.81,11.66-15.28,22.08-24,32.32-7.81,9.17-17.58,15.18-29.51,16.87C386,154.92,361.18,164,335.15,167c-13.31,1.57-26.61,3.1-40,3.62-74.69,2.9-148.29-6.14-221.36-20.32-23.08-4.48-45.6-11.4-64.55-26.47-3.87-6.57-1.68-13.62-1.62-20.51,3.79-2.8,7.42-.83,10.36,1.14C51.4,127,90.33,133.21,128.47,141.78,136.09,143.5,143.94,144.46,150.74,148.78Z"/><path class="cls-3" d="M9.19,123.86c.46-2.44,1.16-4.76,4-2.06,18.36,17.2,42.22,21.67,65.31,26.28,40.35,8,81.23,12.92,122.23,17,35.3,3.54,70.54,2.53,105.75,1.93,24.06-.41,47.85-5.69,71.22-11.86,9-2.37,17.77-5,27.22-5.6,21.45-1.37,34.49-15.59,46-31.78,4.28-6,7.69-12.79,14.1-17,2.3,7.5,1.3,15.07.44,22.64-2.7,10-10.83,14.92-19,19.31-25.07,13.39-52.49,19.4-80.21,23.58C270.5,180.75,175,180.08,80,159.68c-19-4.09-37.65-9.62-54.55-19.69C18.71,136,12,131.9,9.19,123.86Z"/><path class="cls-4" d="M150.74,148.78c-23.57-3-46.34-9.84-69.52-14.69-22.56-4.72-43-13.88-62.44-25.94-3.41-2.12-7.46-3.23-11.21-4.8l.12-35.9c12.83,19,34.74,22.9,53.6,31.72a65.5,65.5,0,0,1,15.75,10c16,13.89,36.19,20,55.06,28.62C138.63,140.72,147,140.93,150.74,148.78Z"/><path class="cls-4" d="M465.57,98.48q-.24-4.45-.46-8.9l.57-27.79c2.73,12.17,1.3,24.42.64,36.65Z"/><path class="cls-1" d="M465.57,98.48l.75,0c.71,8.35,1.79,16.71-.79,25q-.21-11.33-.44-22.64Z"/><path class="cls-5" d="M243.36,19A605.17,605.17,0,0,1,384.72,33.09c7.55,7.27,17.65,9.29,26.84,13.29,8.45,3.69,20.74,5.13,19.95,17.83-.73,11.77-12.1,14.69-21,17.26C383.29,89.32,356.1,97.18,329,105.3a10.08,10.08,0,0,0-2.93,1.6c-26,1.39-51.91,3-77.89,4.08a358.91,358.91,0,0,1-56.84-2.41c-22.51-10.5-46.84-14.5-70.86-19.49A278.31,278.31,0,0,1,64.94,71.8c-4-1.78-9.07-3.16-9-8.71,0-5.32,4.7-7.39,8.77-9.15,14.41-6.26,29.41-11,44.18-16.26,8.12-2.91,16.29-5.6,22.19-12.42,8.8-4.61,18.81-3.16,27.92-3.7,17.6-1,35.18-4.35,52.93-2.68C222.42,15.63,232.89,17.75,243.36,19Z"/><path class="cls-6" d="M131.07,25.26c1.34,8.36-5.84,9.29-10.7,11.17C102.77,43.25,84.87,49.29,67.21,56c-3.61,1.36-9,2.17-9.33,6.88-.41,5.67,5.76,4.86,9.1,6.45C90.6,80.55,116.33,84.44,141.46,90.6c15.2,3.73,31.54,4.15,45.14,13.55,1.87,1.29,3.76,2.28,4.72,4.42-50-1.18-99.2-7.59-146.51-25-5.76-2.13-10.41-5.76-15.59-8.64-13.59-7.56-13.74-15.59-.07-23.59,13.27-7.77,27.9-12.88,42.71-16.41C91.29,30.27,110.85,25.45,131.07,25.26Z"/><path class="cls-4" d="M326.05,106.9c4.11-6.21,11.3-7,17.39-8.82,21.17-6.52,42.61-12.15,63.9-18.27a34.25,34.25,0,0,0,10.12-4.43c4.78-3.35,12.87-3.73,12-12.66-.8-8.36-8.4-8.79-13.63-11.43-6.25-3.15-13.28-4.71-19.87-7.24-5.23-2-10.62-4.12-11.26-11C402.85,28.72,418,37.45,433.05,45c6.43,3.24,13.33,6.26,18.81,11.61,7.14,7,5.17,12.67-1.76,17.49-9.44,6.56-19.26,12.93-30.23,16.36C389.35,100,357.74,103.82,326.05,106.9Z"/><path class="cls-4" d="M243.36,19l-31.44-.13C222.43,11.42,232.89,16.94,243.36,19Z"/><path class="cls-7" d="M232.39,113.2c-7,8.22-14.26,13.11-23.49,15-13.77,2.79-17.84.2-19.78-13.83-7.83,4-15.78,7.16-24.73,6.34-5.24-.48-10.19-1.22-12.48-6.9-2.07-5.13.65-9,3.43-12.9.63-.88,1.8-1.55,2-2.49.84-3.2,9.13-4.57,3.85-8.39-4.52-3.25-4.48,3.76-6.13,6.28-4.34,6.65-9.62,8.43-16.57,4.31-2.17-1.3-4.27-2.73-6.34-4.18-14.22-9.94-15-9.75-23.53,5-3,5.18-6.37,9.76-13.33,9.5s-8.45-5.71-10.76-10.62c-1.33-2.83-1.09-6.56-5.11-8.81-4.48,9.34-12.24,14.81-21.92,17.85C45.11,113.3,41.44,111.2,38.62,97.9c-7.12,4.47-13.9,9.55-22.41,10.38-5.46.54-11.53.69-14.75-4.57C-1.4,99.05.37,93.76,3.12,89.28c11-17.87,26.45-31.68,42.12-45.15,14-12.08,30-21.51,46-30.7,5.37-3.09,12.32-3.92,15-11.2,1-2.6,5.11-2.26,8-2,4.77.41,9.65,1.69,13.08,4.8,19.82,18,42.85,32.59,59.38,53.85,6.13,7.89,9.18,9.14,17.63,3.6,17-11.12,35.77-18.81,55-25.33,3.75-1.27,7.83-1.64,10.68-6.28,2.59-4.21,8.36-2.13,12.83-.27,9.89,4.11,16,12.2,21.82,20.57,3.34,4.84,5.83,5.28,9.41.16,6-8.59,12.55-16.8,18.71-25.28,5.12-7,9.86-14.5,18-18.41,5-2.4,10.27-5.39,15,1.46,1.3,1.9,5.13,2.2,7.88,3,37.73,10.41,72.82,26.14,102.89,51.72,5.92,5,14.46,10.65,10.1,19.4-4.74,9.5-15.08,8.43-24.2,6.46-4.21-.91-8.21-2.77-12.31-4.2-2.07,15.92-19.41,20.58-34.54,9.31-2.77-2.07-4.51-5.63-9.15-6.55-.63,4.25-.91,8.09-1.81,11.78-2.78,11.42-11.27,13.94-20.15,6.14-15.36-13.5-15.34-13.48-30.43,1.19-3.55,3.46-6.64,6.53-8.11,12-2.84,10.72-14.81,14.21-27.05,8.59-6.07-2.79-10.62-5.84-15.09,2.85-2.95,5.72-9.29,6.5-15,1.88-1.68-1.37-3.39-2.73-5-4.18-14.27-12.81-14.32-12.87-26.92,1.7-3.63,4.2-7.88,6.29-13.38,5.45-5.74-.87-7.11-5.48-8.3-10.14C234.44,122,233.65,118.47,232.39,113.2Z"/><path class="cls-8" d="M111.78,94.92c-4.54-.09-6.5,3.31-8.63,6.43-1.1,1.61-1.59,3.68-3.24,4.88-1.44,1-2.29,4.13-4.57,2.48-2.06-1.49-2.53-4.07-.8-6.53,1.64.33.18,2.59,2.2,3,2.69-4,5.05-8.54,8.69-12.09a18.18,18.18,0,0,1,7.2,1C112.84,94.89,112.57,95.18,111.78,94.92Z"/><path class="cls-9" d="M451.23,83.71c0-1.24-3.17-.25-1.77-2.5l1.64-.28c3.63-.51,6.73,1.26,10,2.29,4.64,1.44,9.31,2.43,13.62-2-1.2,4.85-5.4,7.17-10.59,6-4.08-.91-8.06-2.26-12.09-3.41C451.78,83.8,451.51,83.75,451.23,83.71Z"/><path class="cls-10" d="M384.79,94.62c1.82,2,3.63,3.93,5.48,5.86s3.59,4.19,4-1.14c.66.74,1.18,1,1.2,1.39.11,2.15,1.41,5-.83,6.16-1.86.94-3.74-1.41-5.23-2.78-3.31-3-6.18-6.54-10.15-8.8C381,94.4,382.91,94.58,384.79,94.62Z"/><path class="cls-9" d="M443.44,81.56c4.57,3.71,3.92,10.86-2,13.6,2.67-3.65,2.12-6.88.61-10.07-.61-1.28-.09-2.34.55-3.4A2.28,2.28,0,0,1,443.44,81.56Z"/><path class="cls-11" d="M13.47,96.61c6.83,3.21,11.68.39,16.51-3a95.81,95.81,0,0,1,9.28-5.71c5.2-2.83,7.89-1.13,7.24,4.85-.4,3.75-.92,7.33,1.79,11.18-3.84-.77-5.61-2.3-5.35-5.63a15.79,15.79,0,0,0,0-2.28c-.41-5-1.49-5.62-5.71-3-4.73,2.95-9,6.7-14.78,7.69C18.86,101.33,15.91,100.82,13.47,96.61Z"/><path class="cls-11" d="M185.79,111.83c-4.48.79-8.28,3.48-12.86,4.2-4.28.67-7.35-.37-10.22-4.8,9.55,3.75,16.74-.79,24.25-4.32,2.42-1.13,5.45-3.49,7.94-1.42,2.19,1.8,1.24,5.19.57,7.75A12.59,12.59,0,0,0,197,123.85c-4.93-2-6.26-4.84-5.63-8.87.29-1.83,2-4.21-.06-5.36-1.9-1-3.88.85-5.51,2.19Z"/><path class="cls-9" d="M264.89,114.66c-3.15-.24-5.44,1-7.35,3.58a66.83,66.83,0,0,1-5.83,6.32c-1,1-2.09,2.49-3.85,1.49s-1.35-2.6-1.09-4.08a18.61,18.61,0,0,1,1.07-3c1.33.88-.23,3.19,1.63,3.35,1.48.12,2.17-1.42,2.79-2.64,5.16-10.09,16.87-11,25.27-8.47,3,.88,3.42,3.83,4.33,6.49-5-5.5-10.91-4.59-17-3.07Z"/><path class="cls-9" d="M302.05,117.45l-.94.94-3.43,2.42c1.83-6.5,9-9.61,13.76-5.62,4.18,3.5,8,4.23,13.25,1.23-4.51,5.58-10.82,6.34-15.45,2.28C307,116.7,304.83,115.67,302.05,117.45Z"/><path class="cls-12" d="M66.45,40.16c-2.21-12,3.35-20.2,12.79-26.63,26.29-17.9,80.12-18.11,106.58-.22,3.23,2.19,7.27,4.58,8.65,7.84,4.23,10,9.57,8.82,18.32,5.25,22.31-9.1,45.63-8.84,68.81-3.11,5,1.23,8.23.61,12.39-2.4C321.35,1.12,375.19.77,402.84,19.83,412.48,26.48,418.24,35,416,47.39c-6,18.42-22.72,22.27-38.21,27.25a68.09,68.09,0,0,1-19.42,2.92c-4.23.14-8.46.11-12.68,0a86.31,86.31,0,0,1-19.55-1.95c-4.41-.87-8.29-2.17-8.85-8C302.08,85,282.39,89.08,261.81,91c-4.2.14-8.4.06-12.6,0-24.81-.22-47.65-5.19-63.7-26.48-2.55-3.38-5.48-2.62-8.74-1.18a102.81,102.81,0,0,1-34.29,8c-4.48-.48-8.94,1-13.44.22C118,70.78,107,69.53,96.39,66,82.93,61.5,69.82,56.42,66.45,40.16Z"/><path class="cls-13" d="M141.63,70.06c13.39-3.8,27.75-4.3,40-11.84,1.72-1,3-.37,4,1.31,14.3,23.79,37.61,28.08,62.54,28.84,2.09,2.23,2.75,5,2.9,7.93.46,8.64-2,10.86-11.22,10-18.43-1.06-36.94-4.75-48.31-19.78-7.23-9.56-11.9-9.29-20.83-4.91a46.41,46.41,0,0,1-20.88,4.61c-3.45.65-7.43,2-9.51-1.88C137.76,79.57,137.67,74.5,141.63,70.06Z"/><path class="cls-14" d="M262,88.36c21.24-2,41.36-6.61,55.71-24.83C323,78.4,335.5,73,345.18,74.93c3.47,4.07,3.35,8.82,2.26,13.6-.78,3.41-2.51,6-6.74,4.45-17.56-4.06-33.8-2.89-49.69,7.55-8.58,5.63-19.84,6.67-30.58,6A21.15,21.15,0,0,1,262,88.36Z"/><path class="cls-14" d="M66.45,40.16c11,21,31.47,24.46,52,27.83,3.77.62,8-1.24,11.27,2,3.51,4.57,4.26,10,1,14.29-3.86,5-10,2.23-15.21,1.82-8.92-.37-17.32-3-25.41-6.47C70,71.06,64.73,62,66.45,40.16Z"/><path class="cls-15" d="M359,74.93c22.39-2.16,43.26-7.47,57-27.54,1.12,21.35-4.21,30.06-23.82,38.33-10.59,4.47-21.54,7.51-33.2,7.14C355.06,86.88,355,80.91,359,74.93Z"/><path class="cls-16" d="M262,88.36c-.14,6.08.78,12.25-1.52,18.14-6.87,1.43-13.74,2-20.58-.18,6.55.33,9.39-2.55,8.41-9.24-.41-2.85-.08-5.81-.08-8.71Z"/><path class="cls-17" d="M359,74.93q0,9,0,17.93c-6.08,1-12.17,1.89-18.26.12,8.77-4.21,2.57-12.14,4.48-18Z"/><path class="cls-18" d="M115.41,86.08c14.08-.79,14.08-.79,14.26-16.11,4,1.32,8-4.27,12,.09,1.5,6-5.11,16.14,8.2,16.18A79.3,79.3,0,0,1,115.41,86.08Z"/><path class="cls-19" d="M245.57,61.16c.35,7.46-13.76,17.11-20.51,14.48-5.18-2-10.64-3.45-14.21-8.22-2-2.64-3.3-5.23,1-6.93,10.34-4.1,20.93-4,31.62-1.68C244.82,59.11,245.89,59.78,245.57,61.16Z"/><path class="cls-20" d="M113.8,38.37c3.52,1,10.39-2.77,12.47,1.89,1.77,4-4.4,8-6.67,12.28-2.51,4.66-6,6.65-11.36,3.91a62.33,62.33,0,0,0-10-4c-4.42-1.39-8.36-3.48-7.69-8.66s5.82-4.7,9.36-5.28C104.06,37.8,108.41,38.35,113.8,38.37Z"/><path class="cls-19" d="M239.29,50.61c-6.07-2.11-13.4-4-20.08-7.21-5-2.39-5.43-6.1.47-9.06,5.66-2.83,11.84-3.48,17.86-4.56,4.31-.77,10.91,9.42,10.58,15.62C247.86,50.47,244.18,50.65,239.29,50.61Z"/><path class="cls-19" d="M367.93,35.39c-3.09-1-8.57,2.31-10-2.71s1.44-10.36,4.45-14.62c3.26-4.59,7.05-1,10.54.37,5.2,2,10.65,3.57,15.5,6.22,4,2.19,5.14,5-.86,7.08C381,34,375.59,35.43,367.93,35.39Z"/><path class="cls-19" d="M336.46,34.84c-8.95,1.66-14.73-2.49-20.69-5.71-5.63-3-3.73-5.75.82-8.17a37.79,37.79,0,0,1,18.71-4.62c8,.34,8.67,9.24,9.29,14.92C345.36,38.43,338.05,33.3,336.46,34.84Z"/><path class="cls-19" d="M272.15,48.84c-3.23-1-9.09,2.34-10.83-2.34-1.42-3.81.23-9.09,3.33-12.69,3.55-4.12,8.28-3.06,12.82-2a8,8,0,0,1,2.67,1.24c4.47,3.16,14.52,2,12.73,9.36-1.56,6.39-10.5,6.21-17.08,6.42C274.81,48.88,273.82,48.84,272.15,48.84Z"/><path class="cls-21" d="M119.18,30.26C117,29.56,113,28.3,109,27c-4.84-1.64-11.94-2.55-11.44-8.51C98,14,105,12.56,109.47,11.38c5-1.32,11.16-3.06,14.65,3.61,1.06,2,2.12,4,3.09,6.12C131,29.29,129.94,30.93,119.18,30.26Z"/><path class="cls-19" d="M153.78,28.67c-3.3-1.75-8.33,3.32-11.19-1.32-2.66-4.33.17-8.71,2.22-12.85C146.38,11.32,148.9,10,152,11c6.21,1.85,12.55,3.66,18.32,6.51s5.7,6.19-.63,9.2C164.61,29.07,159.48,28.37,153.78,28.67Z"/><path class="cls-19" d="M365.78,45.15c7,1.48,14.1,2.62,21,4.56,4.24,1.2,5.13,4.4.92,6.91a53.62,53.62,0,0,1-13.28,6.13c-8.46,2.26-17-5.52-16.23-14.29C358.64,42.89,363.19,46.31,365.78,45.15Z"/><path class="cls-19" d="M151.56,40.43c4.06,0,7.57.14,11.09,1.42,4.08,1.49,10.83.63,10.88,5.93.05,4.64-6.46,6-10.62,7.47-6,2.08-12.56,4.91-17-3.35-1.74-3.23-4.33-6.68-2.9-9.86C144.55,38.62,149,41,151.56,40.43Z"/><path class="cls-19" d="M273.56,76.54c-5.53,0-12.15-7.63-11.22-13,.54-3,2.36-5,5.41-4.44,7.07,1.2,14.1,2.67,21.08,4.31,1.74.41,4.05,1.13,4.14,3.58.06,1.83-1.48,2.85-3,3.52C284.65,72.91,279.9,76.91,273.56,76.54Z"/><path class="cls-19" d="M327.24,42.86c5.07,1.9,11.91-.26,15,5.47,1.46,2.69-11,16.08-14,15.85-10.67-.84-8.84-9.89-9.7-16.21C317.77,42,323.66,43.75,327.24,42.86Z"/></g></g></g></svg>