<svg xmlns="http://www.w3.org/2000/svg" viewBox="0 0 521.14 124.31"><defs><style>.cls-1{fill:#82b200;}.cls-2{fill:#a8df01;}.cls-3{fill:#abe201;}.cls-4{fill:#a8e100;}.cls-5{fill:#ace502;}.cls-6{fill:#ade801;}.cls-7{fill:#ace400;}</style></defs><title>Asset 21</title><g id="Layer_2" data-name="Layer 2"><g id="Layer_1-2" data-name="Layer 1"><g id="salad_2" data-name="salad 2"><path class="cls-1" d="M68,47.37c-.74,2.25.86,5.09-1.79,7-5.95-3.29-.44-8.59-2.32-13.22-9.33,2-18.4,11.35-30.57.91,9.77.93,17.24,1.4,24.06-2.86,2.93-1.83,6.36-4.43,10.08-1.73C71.45,40.36,69.08,44,68,47.37Z"/><path class="cls-1" d="M152.65,57.6c-13-6.38-22.39-4.67-30.39,4.41-1.5,1.71-3,4.75-6.12,3.08-1-.52-1.76-2.46-1.71-3.71.19-4.66,4.66-1.93,5.38-2.57,5.7-5,11.69-8.24,19.51-8C143.73,50.94,148,50.83,152.65,57.6Z"/><path class="cls-1" d="M334.81,94.27c-6.59.72-6.59.72-22.93-12.8-4.16,3.09-2.48,9.11-7.21,11.12-.58-.4-1.58-.94-1.53-1.07,7.09-17.7,7-17.65,22.05-4.19C328.12,90,331.59,92,334.81,94.27Z"/><path class="cls-1" d="M485.9,64.86c-6.56,3.59-12.43,2.64-18-1.76-6.43-5.09-12.2-8.2-12.53,4.43,0,1.1-1.6,2.17-2.74,3.61-2.84-2.58.07-3.91.46-5.46,3.62-14.36,3.75-14.53,16-6.16C474.21,63,479.32,65.79,485.9,64.86Z"/><path class="cls-1" d="M518.93,87.12c-3.7,5-9.66,5.1-15.27,4.29-8.84-1.28-16.58-5.23-23.47-10.92C472.61,97,453.91,97.7,440.47,82.14c-2.53-2.93-3.58-7.2-7.84-8.75-3.75,3-3.43,7.77-5.3,11.54-5.76,11.63-15.33,12.67-23,2.31C390.93,69,390.93,69,371.89,80.83c-10.45,6.51-15.24,5.4-21.33-4.77-1.41-2.35-1.58-7.66-5.54-5.57a6.82,6.82,0,0,0-1.14.74c-3.24,2.63,1.39,5.58,2.6,8,1.65,3.24,3.39,6.45,5.07,9.68a98,98,0,0,1,7.38,17.28c1.61,5.45,2.35,11.25-2.43,15.57-4.38,4-9.86,2.57-14.8,1.22-9.18-2.52-15.87-8.7-22.3-17.23-3.92,5.4-4.62,13.26-12.43,12-11.15-1.81-19.53-8.37-25.86-17.53-2.21-3.2-2-7.78-5.65-10.48-4.48,1.68-5.15,6.56-7.89,9.67-3.18,3.6-6,7.68-11.67,6.84-6.16-.92-9.54-4.89-11.72-10.52-8-20.56-8.18-20.9-28.61-12.68-13.66,5.5-26.76,10.7-39.91-.77-4.79-4.17-5.86,1.32-7.95,3.5-8.38,8.78-13.25,9-21.84.36-2.53-2.52-4.83-5.27-7.17-8-7-8.05-13.53-8.52-20.3.54C113.62,85.07,108.19,92,98.82,88.77c-8.9-3.06-8-11.76-8.89-19.13-.14-1.14-.49-2.26-1.21-5.53-8.67,7.32-17.1,13.49-28.18,14.12-15.53.89-18.07-1-19-16.78-7.79,3.22-15.53,6.65-24,5.93-6.68-.56-14.11-.94-16.85-8.72-2.53-7.21,2.38-12.34,7-16.57A209.38,209.38,0,0,1,40.31,17.64c1.43-.89,2.88-1.76,4.33-2.61-1.93,1.37-3.84,2.78-5.71,4.22L22.14,36.72l-1,8,6,5s6,2,7,2c.74,0,6.4-.55,9.3-.83,1.84-1,3.83-1.85,5.92-1.38l2.78-.79,6-3,2,3s0,6,1,7,2,4,3,4,6,1,6,1l12-2s6-2,7-2,12-9,12-9,5,0,5,1v10c0,1,2,5,2,6a9.77,9.77,0,0,0,1.36,4.19,9,9,0,0,0,3.16,1.4,27.79,27.79,0,0,1,11.68-4.91l.8-.68s3-6,4-6,1-2,3-2,6-2,6-2,10,3,10,4,5,7,5,7l8,6S167.88,69,171,69.38s7.13-6.66,7.13-6.66,5-2,6-1,16.32,5.93,16.32,5.93,10.4-.08,11-1,14.64-4.92,14.64-4.92L240,60.9c-2.83-1.88-6.65-2.66-13.78-4.08,8.57-4.87,20.43-.62,24.52,8.87A38.66,38.66,0,0,1,253.06,73c.44,2.06,7.45,2.26,2,5.65-2.83,1.77-4.42-1.75-5.53-3.82a105,105,0,0,0-5.68-10l1.31,7.88,6,10,8,3,9-12H274l.38-.15.19.15h.61l5,4,19,17,7,1,7-9,25,15,10-7-14-35.9,5-7.1,9,4.24,2.43,8.83,21.69-8.23,9.88-1.84,7.74,8.73a12.93,12.93,0,0,1,8.68,2.43c-8-7.64-14.26-19.21-29.21-12.54,13.76-7.94,20.25-4.93,32,14.79a40.82,40.82,0,0,1,4.39,5l9.42-13.37,3-5,9,2,13,15,8,2,10.11-4.06,1.89-6.94h4l10.65,5.7c1.45,0,3.37.89,6.18,2.68l14.17-2.38,3-9-22-28-9.21-11.83A264.67,264.67,0,0,0,442.73,0,300.72,300.72,0,0,1,468,18.12a274.19,274.19,0,0,1,40.51,39.77A147.1,147.1,0,0,1,518,71.53C521.21,76.5,522.66,82.07,518.93,87.12Z"/><path class="cls-2" d="M52.32,61.35c-.8,2.44.92,5.5-1.94,7.56-6.44-3.56-.47-9.29-2.5-14.29-10.1,2.12-19.9,12.26-33.06,1,10.21,1,18.09,1.48,25.28-2.66.24-.13.49-.28.73-.43.83-.52,1.7-1.1,2.61-1.62,1.84-1,3.83-1.85,5.92-1.38a6.27,6.27,0,0,1,1.77.73,5.09,5.09,0,0,1,.6.39C56.07,53.77,53.51,57.74,52.32,61.35Z"/><path class="cls-3" d="M316.05,98.23c-4.49,3.33-2.68,9.84-7.8,12-.62-.43-1.7-1-1.65-1.16,7.66-19.14,7.61-19.08,23.84-4.53,3.17,2.84,6.92,5,10.41,7.5C333.72,112.85,333.72,112.85,316.05,98.23Z"/><path class="cls-4" d="M223.43,71.57c9.27-5.26,22.1-.67,26.52,9.59a41.78,41.78,0,0,1,2.5,7.86c.47,2.23,8.06,2.44,2.14,6.12-3.06,1.9-4.78-1.91-6-4.14C240,74.94,240.1,74.91,223.43,71.57Z"/><path class="cls-5" d="M504.23,80.26c-7.1,3.89-13.45,2.86-19.45-1.9-7-5.5-13.2-8.87-13.56,4.79,0,1.2-1.73,2.34-3,3.9-3.08-2.78.07-4.23.49-5.89,1.27-5,2.14-8.47,3.19-10.48.78-1.49,1.65-2.21,2.84-2.26,1.45,0,3.37.89,6.18,2.68,1.43.91,3.1,2,5,3.38l1.38.93C492.51,78.76,497.7,81.19,504.23,80.26Z"/><path class="cls-6" d="M143.87,72.41c-7.29-3.58-13.54-4.81-19.07-3.78a20.11,20.11,0,0,0-5.92,2.09l-.72.4a24.82,24.82,0,0,0-3.35,2.35,33,33,0,0,0-3.8,3.71c-1.63,1.85-3.24,5.14-6.62,3.33-1.06-.56-1.9-2.66-1.85-4,.21-5,5-2.09,5.82-2.77.54-.48,1.09-1,1.64-1.39.88-.73,1.76-1.4,2.66-2a27.79,27.79,0,0,1,11.68-4.91,23,23,0,0,1,3.47-.32c.54,0,1.09,0,1.65,0C134.23,65.21,138.8,65.09,143.87,72.41Z"/><path class="cls-7" d="M413,84.07a53.94,53.94,0,0,1-6.8-6.44l-2.06-2.23h0c-3.41-3.65-6.94-7.11-11.34-8.74h0a15.13,15.13,0,0,0-3.26-.83c-3.21-.47-6.89,0-11.26,2a33.52,33.52,0,0,1,9.64-4.06,13.72,13.72,0,0,1,2-.29,12.93,12.93,0,0,1,8.68,2.43,21.72,21.72,0,0,1,2.77,2.25,40.82,40.82,0,0,1,4.39,5q1.27,1.66,2.61,3.64C409.8,78.89,411.33,81.33,413,84.07Z"/></g></g></g></svg>