<svg xmlns="http://www.w3.org/2000/svg" viewBox="0 0 470.14 297.08"><defs><style>.cls-1{fill:#ed1e26;}.cls-2{fill:#aa0f15;}.cls-3{fill:#aa0f16;}.cls-4{fill:#aa1016;}.cls-5{fill:#d3353c;}.cls-6{fill:#d2353c;}.cls-7{fill:#d53b42;}.cls-8{fill:#f73a40;}.cls-9{fill:#f73a41;}.cls-10{fill:#f63a3f;}.cls-11{fill:#00b340;}.cls-12{fill:#00670b;}.cls-13{fill:#00670c;}.cls-14{fill:#2dd884;}.cls-15{fill:#3ee18d;}.cls-16{fill:#01cc6f;}.cls-17{fill:#5fcc8f;}.cls-18{fill:#6fcc96;}.cls-19{fill:#5fcb87;}.cls-20{fill:#f7921c;}.cls-21{fill:#da8319;}.cls-22{fill:#bf7116;}.cls-23{fill:#ec8c1c;}.cls-24{fill:#feac39;}.cls-25{fill:#feac3a;}.cls-26{fill:#f4e3ba;}.cls-27{fill:#f4edca;}.cls-28{fill:#f6e9c3;}.cls-29{fill:#f4e1b8;}.cls-30{fill:#f1e7c1;}.cls-31{fill:#f4e5c1;}.cls-32{fill:#f3e5bd;}.cls-33{fill:#f2e1b3;}.cls-34{fill:#f3d9aa;}.cls-35{fill:#f4ddae;}.cls-36{fill:#f3e2b3;}.cls-37{fill:#f2e1b6;}.cls-38{fill:#f1dcae;}.cls-39{fill:#f2daaf;}.cls-40{fill:#f5ddb2;}.cls-41{fill:#f2ddb2;}.cls-42{fill:#f8e6bb;}.cls-43{fill:#f4e2bf;}.cls-44{fill:#f5e6c1;}.cls-45{fill:#f5deb2;}.cls-46{fill:#f4e8bf;}.cls-47{fill:#f6dfb1;}.cls-48{fill:#f5e3be;}.cls-49{fill:#f2e9c2;}.cls-50{fill:#f4e5be;}.cls-51{fill:#f5e6bd;}.cls-52{fill:#edd8a9;}.cls-53{fill:#efd6a6;}.cls-54{fill:#f5e7bf;}.cls-55{fill:#e9d9ae;}.cls-56{fill:#f1e5c0;}.cls-57{fill:#f4e5ba;}.cls-58{fill:#f6e9c1;}.cls-59{fill:#f3e6c1;}.cls-60{fill:#f2dfb5;}.cls-61{fill:#f2e6bf;}.cls-62{fill:#f5dcae;}.cls-63{fill:#f5e3b9;}.cls-64{fill:#f1dbae;}.cls-65{fill:#f0deb4;}.cls-66{fill:#f0deb5;}.cls-67{fill:#f5e5bf;}.cls-68{fill:#f1deb0;}.cls-69{fill:#f4e3b9;}.cls-70{fill:#f1ddb1;}.cls-71{fill:#f2ddb0;}.cls-72{fill:#f5e5ba;}.cls-73{fill:#f1dbb0;}.cls-74{fill:#f6dbab;}.cls-75{fill:#f5eac2;}.cls-76{fill:#f5deae;}.cls-77{fill:#f5e6c0;}.cls-78{fill:#f4e6bd;}.cls-79{fill:#f0d9aa;}.cls-80{fill:#f6e4c2;}</style></defs><title>Asset 16</title><g id="Layer_2" data-name="Layer 2"><g id="Layer_1-2" data-name="Layer 1"><g id="top"><path class="cls-1" d="M35.71,217.61c-2.69-14.24,3.89-24,15.08-31.73C82,164.46,146,164,177.54,185.09c3.85,2.58,8.66,5.41,10.32,9.28,5.08,11.91,11.43,10.44,21.81,6.15,26.48-10.93,54.23-10.74,81.81-4,5.91,1.44,9.79.68,14.73-2.92,32.44-23.65,96.46-24.34,129.44-1.8,11.5,7.85,18.39,18,15.76,32.71-7.1,21.94-26.91,26.59-45.31,32.6A81.1,81.1,0,0,1,383,260.64c-5,.19-10.06.17-15.09.08a102.76,102.76,0,0,1-23.25-2.23c-5.24-1-9.87-2.53-10.56-9.48-18,20.76-41.38,25.7-65.84,28.13-5,.2-10,.13-15,0-29.5-.13-56.69-5.94-75.88-31.17-3-4-6.53-3.08-10.4-1.36-13,5.77-26.64,8.63-40.74,9.7-5.33-.54-10.63,1.28-16,.34-13.16-.91-26.27-2.33-38.86-6.48C55.42,242.91,39.8,236.93,35.71,217.61Z"/><path class="cls-2" d="M125.27,252.79c15.9-4.58,33-5.25,47.56-14.28,2-1.25,3.49-.45,4.71,1.55,17.12,28.22,44.86,33.21,74.52,34,2.49,2.64,3.29,5.9,3.49,9.41.58,10.28-2.35,12.93-13.3,12-21.92-1.17-44-5.47-57.55-23.28-8.65-11.34-14.2-11-24.8-5.74A55.27,55.27,0,0,1,135.09,272c-4.09.79-8.82,2.4-11.31-2.2C120.71,264.13,120.58,258.09,125.27,252.79Z"/><path class="cls-3" d="M268.44,274c25.25-2.48,49.15-8.08,66.13-29.82,6.38,17.67,21.26,11.15,32.78,13.42,4.15,4.84,4,10.48,2.76,16.17-.91,4.06-3,7.12-8,5.32-20.9-4.74-40.21-3.27-59.05,9.23-10.17,6.74-23.56,8-36.33,7.25C264,288.08,264.69,280.91,268.44,274Z"/><path class="cls-3" d="M35.71,217.61c13.24,24.9,37.54,28.94,61.93,32.84,4.47.72,9.46-1.52,13.41,2.3,4.19,5.41,5.1,11.91,1.19,17-4.56,5.92-11.84,2.7-18.07,2.23-10.62-.38-20.61-3.48-30.26-7.56C40.11,254.34,33.78,243.63,35.71,217.61Z"/><path class="cls-4" d="M383.75,257.51c26.61-2.69,51.41-9.1,67.66-33,1.44,25.37-4.85,35.76-28.14,45.7-12.57,5.36-25.58,9-39.44,8.65C379.16,271.74,379,264.63,383.75,257.51Z"/><path class="cls-5" d="M268.44,274c-.13,7.22,1,14.55-1.72,21.57-8.16,1.74-16.32,2.4-24.47-.11,7.79.36,11.15-3.08,10-11-.51-3.39-.13-6.9-.15-10.36Z"/><path class="cls-6" d="M383.75,257.51q0,10.67.08,21.32c-7.23,1.17-14.46,2.31-21.72.23,10.42-5.05,3-14.45,5.24-21.49Z"/><path class="cls-7" d="M94.17,272c16.74-1,16.74-1,16.88-19.22,4.73,1.55,9.49-5.12,14.21,0,1.82,7.15-6,19.23,9.83,19.21A94.3,94.3,0,0,1,94.17,272Z"/><path class="cls-8" d="M248.82,241.7c.46,8.87-16.27,20.41-24.31,17.32-6.17-2.37-12.67-4-16.94-9.7-2.36-3.13-3.95-6.21,1.13-8.25,12.28-4.94,24.87-4.85,37.59-2.16C247.93,239.26,249.2,240.06,248.82,241.7Z"/><path class="cls-9" d="M92,215.25c4.2,1.19,12.34-3.35,14.84,2.18,2.13,4.72-5.19,9.58-7.88,14.63-3,5.56-7.14,7.95-13.48,4.71A74.84,74.84,0,0,0,73.56,232c-5.25-1.63-10-4.09-9.18-10.25s6.89-5.63,11.1-6.33C80.42,214.62,85.61,215.25,92,215.25Z"/><path class="cls-8" d="M241.3,229.18c-7.22-2.47-16-4.67-23.91-8.47-5.92-2.82-6.49-7.24.51-10.78,6.72-3.4,14.07-4.2,21.22-5.51,5.13-.94,13,11.15,12.66,18.52C251.49,229,247.12,229.2,241.3,229.18Z"/><path class="cls-8" d="M394.21,210.45c-3.68-1.17-10.18,2.78-11.9-3.17-1.77-6.13,1.66-12.33,5.23-17.41,3.85-5.49,8.37-1.2,12.53.38,6.2,2.37,12.68,4.19,18.46,7.31,4.79,2.59,6.14,5.94-1,8.43C409.79,208.69,403.32,210.45,394.21,210.45Z"/><path class="cls-8" d="M356.79,210c-10.64,2-17.53-2.9-24.64-6.69-6.71-3.57-4.46-6.82.93-9.72A45.06,45.06,0,0,1,355.31,188c9.51.37,10.36,10.94,11.12,17.7C367.39,214.17,358.66,208.11,356.79,210Z"/><path class="cls-8" d="M280.37,226.91c-3.84-1.17-10.79,2.83-12.89-2.73-1.71-4.51.23-10.81,3.9-15.1,4.2-4.92,9.84-3.69,15.23-2.42a9.25,9.25,0,0,1,3.19,1.46c5.32,3.73,17.28,2.28,15.18,11.06-1.82,7.61-12.46,7.45-20.27,7.72C283.54,227,282.36,226.91,280.37,226.91Z"/><path class="cls-10" d="M98.37,205.58c-2.57-.82-7.35-2.3-12.1-3.89-5.76-1.93-14.21-3-13.64-10.06.42-5.31,8.77-7,14.1-8.45,6-1.6,13.26-3.7,17.44,4.21,1.27,2.4,2.54,4.81,3.7,7.27C112.44,204.36,111.17,206.32,98.37,205.58Z"/><path class="cls-8" d="M139.51,203.51c-3.93-2.06-9.89,4-13.31-1.51-3.19-5.14.16-10.36,2.57-15.3,1.85-3.78,4.85-5.33,8.5-4.25,7.4,2.17,14.94,4.29,21.82,7.65s6.8,7.33-.71,11C152.39,203.93,146.28,203.13,139.51,203.51Z"/><path class="cls-8" d="M391.7,222.06c8.35,1.73,16.78,3,24.94,5.32,5.05,1.41,6.12,5.2,1.13,8.21S407.53,241.45,402,243c-10.05,2.73-20.26-6.48-19.37-16.92C383.2,219.41,388.63,223.45,391.7,222.06Z"/><path class="cls-8" d="M136.93,217.52c4.83-.07,9,.12,13.19,1.63,4.87,1.74,12.89.69,13,7,.08,5.52-7.65,7.2-12.59,8.94-7.12,2.51-14.91,5.91-20.24-3.9-2.08-3.83-5.18-7.92-3.49-11.72C128.58,215.39,133.82,218.25,136.93,217.52Z"/><path class="cls-8" d="M282.19,259.85c-6.58,0-14.49-9-13.4-15.37.61-3.59,2.77-5.92,6.41-5.31,8.41,1.39,16.77,3.11,25.08,5,2.07.47,4.82,1.32,4.94,4.22.08,2.18-1.74,3.41-3.53,4.21C295.36,255.47,289.73,260.26,282.19,259.85Z"/><path class="cls-8" d="M345.86,219.52c6,2.24,14.16-.36,17.89,6.44,1.75,3.19-13,19.18-16.54,18.92-12.7-.95-10.56-11.72-11.61-19.23C334.59,218.55,341.61,220.61,345.86,219.52Z"/><path class="cls-11" d="M176.87,270.16a15.11,15.11,0,0,1-12.15,1.3,9,9,0,0,1-3.17-7.72c.41-8.8-4.7-11.4-12.29-11.5C131.75,250,114,248.75,97.73,241c-13.26-6.33-26.91-12.53-29.51-29.61-2.89-14.78,3.69-25,15.33-33.27,38.81-27.53,109.2-23.45,151.81,9.39-.83-20,10.8-31.58,27.14-38.6,40.38-17.35,81-17.48,121.09,1.12,17,7.9,27.79,20.45,24.11,41-4.45,14.95-17.11,21-29.76,26.48-13.49,5.82-27.9,8.74-42.44,10.74-6.38,0-12.05,1-14.35,8.35-.7,2.23-2.43,4.4-5.45,2.27-2.23-7.42-6.08-11-14.9-12.06-22.85-2.65-44.26-9.92-62.24-29.09,4.41,24.18-9.85,33.95-26.71,41.75a148.49,148.49,0,0,1-27.53,9.08C167.87,252.54,166.28,257.13,176.87,270.16Z"/><path class="cls-12" d="M176.87,270.16c-10.15,1-10-5.43-10.1-12.78s1.85-10,9.72-10.93c15.91-1.89,31.31-6.81,44.86-15.56,9.64-6.22,18-14,14.35-27.8-.82-3.06-.12-6.52-.12-13.57,16.32,20.26,35.95,28.66,57.67,33,2.86.57,5.89,1.81,8.61,1.36,12.79-2.11,16.17,4.48,15.19,15.55,2.53,3.14,2.47,6.19-.35,9.13-28.46-.13-54.62-6.76-75.92-27.52C235.77,250.68,214.62,266.75,176.87,270.16Z"/><path class="cls-12" d="M68.22,211.38c14.33,25.39,39.36,31.22,65.17,35.36,5.28.85,10.92-.5,15.78,2.78,3.56,8,2.31,15.34-2.57,22.31-22.7.58-43.51-5.66-62.65-17.62C67.68,244.05,65.73,228.5,68.22,211.38Z"/><path class="cls-13" d="M334.08,227c7.64-5.08,16.83-4,25.16-6.36,18.92-5.36,36.26-13.24,48.46-29.57,2.74,21.53-1.52,33.64-27.65,46.4a102.44,102.44,0,0,1-36.19,10.06C330.57,247.76,327.87,242.08,334.08,227Z"/><path class="cls-14" d="M334.08,227c.08,3.65.68,7.38.14,10.93-1.2,8,3.09,9.79,9.66,9.6-8.94,3.73-18.13.67-27.18,1,.12-3.05.23-6.09.35-9.13C319.39,230.67,320.74,220.61,334.08,227Z"/><path class="cls-15" d="M146.6,271.83c.55-7.47-.37-15.12,2.57-22.31,15.23-.33,15.23-.33,15.55,21.94Z"/><path class="cls-16" d="M153.59,232.27c-21.21-2.39-42.73-2.94-60.64-17.15-11.82-9.36-11.4-17.23,2.18-24.56,27.74-15,57-18.45,87.56-10.71,10.55,2.67,21.21,5,30.39,11.43,13.08,9.18,13.36,16.92-.43,26.08C194.85,229.18,174.17,230.54,153.59,232.27Z"/><path class="cls-16" d="M321.3,209.39c-19.2-2.45-38.25-2.79-55.11-13.09s-17.28-22,.5-30.44c38.37-18.12,77.14-18.37,115,2.26,11.52,6.28,11.38,17,.43,25C363.76,206.51,342.05,206.76,321.3,209.39Z"/><path class="cls-17" d="M120.61,202.1a5.23,5.23,0,0,1-5.49,4.12c-3-.12-5.94-1.7-5.27-5.2.48-2.54,3.41-3.53,5.87-3.17C118,198.19,120.64,198.93,120.61,202.1Z"/><path class="cls-18" d="M283.5,183.07c-3.05.08-4.56-1.13-4.55-3.52a4.84,4.84,0,0,1,4.28-5.11,3.87,3.87,0,0,1,4.62,4.3C287.74,181.56,285.57,182.82,283.5,183.07Z"/><path class="cls-19" d="M315.71,197.43c-1,2.42-2.7,4-5.53,3.67-1.87-.2-3.2-1.46-2.69-3.14a5.13,5.13,0,0,1,5.52-3.72C314.93,194.34,315.71,195.61,315.71,197.43Z"/><g id="top-bread"><path class="cls-20" d="M3.19,135.2c8.58-39,33.34-66.42,65.15-87.83C127.22,7.73,193.2-4,262.82,1.14,301.93,4,339.58,13.06,374.47,31.74c1.17,5.67,2.36,11.32,6,16.08a19.44,19.44,0,0,1,1.38,3.26c5.68,12.56,8.71,26,14,38.78,9.36,22.65-4.87,54-29.7,67.9-9.13,5.12-19.19,7.5-29,10.52-50.43,15.45-102,24.6-154.73,22.66-42.78-1.57-85.12-6.62-125.65-22.88-15.39-6.18-30.28-12.4-43.79-21.92C8.79,143.22,5,140.09,3.19,135.2Z"/><path class="cls-21" d="M3.19,135.2c38.21,30.18,83.25,42,130.31,48.28,20.71,2.77,41.48,5,62.42,4.55,47.33-1,93.49-8.85,138.89-22.27,18.6-5.5,36-11.58,49-27.1,11.63-13.82,13.56-36.75,6.75-53.46-4.86-11.94-10.83-24.12-11.3-37.62.58-.86,2-.75,2.3-1.91-.76.64-1.51,1.29-2.2,2-7-3.64-7.83-9.21-4.92-15.93a167.71,167.71,0,0,1,45.47,30.12C421.33,67,424,72,421.58,77.46c-6.72,6.53,2,7.46,4,10.85,12.76,36.3-1.56,89-42.11,106-29.36,12.32-60.57,15.92-91.91,17.55C232.66,215,174.09,206,115.17,206.72c-28.51.33-57.09-4.68-83.53-17.58C16.87,181.92,5.85,171.75.44,156-.44,148.83,1.38,142,3.19,135.2Z"/><path class="cls-22" d="M.44,156c18.37,28.85,47,38.7,78.82,43.77,30.3,4.82,60.74,3.31,91.13,4.61,40.68,1.73,81.3,6.67,122.06,4.16,30.67-1.89,61.57-4.51,90-17.69,25.81-12,40.24-32.49,42.59-61.32,1.17-14.31,4.46-28.6-2.45-42.38-.64-3-3.49-5.43-2.38-8.91,2.37-5.5-4.55-10.85-.25-16.38,28.45,23.78,46.26,53.35,50,90.81,1.28,12.92-2.85,23.2-13,31.24-19.1,15.2-41.86,22-65,27.12C315.88,228,238.87,229.69,161.55,223.56,122.66,220.48,84.08,215.2,47,202.05c-12.67-4.5-24.9-9.88-35.07-18.93C3.93,176-1.64,167.55.44,156Z"/><path class="cls-23" d="M321.58,29.47c3,6.56,9.43,7.81,15.27,10.34,5,2.15,10.91,3.06,14.29,8.15,3.95-1.67,7.12-.73,9.49,2.86-.36,8.36,7.75,12.28,10.16,19.37,1.67,4.94,4.07,9.55,3.77,15,2.66,1.84,5,3.86,4.44,7.58-6.41-1.19-7.36-.5-12,6.45a21,21,0,0,1-11.88,8.26c-5.52,1.54-6.69,5.14-6.87,9.89a4.67,4.67,0,0,1-5.75.44c-9.5-1.74-18.06,2.8-26.79,4.83-30.1,7-60.65,9.72-91.25,12.86-27.33,2.8-54.62,5.6-82.08,4.22-14.74-.75-29.53-2.3-43.27-8.8-11.53-5.46-14-16.41-17-27-1.08-3.78,3.05-3.68,4.8-5.34,1.07-.22,2.54-.2,2-1.86-.18-.56-1.34-.58-2.13-.46-2.59-8.1,4.57-12.27,7.33-18.21,5.25-1.92,2-5.68,1.9-8.76,8.78-6.25,18-11.3,29.23-11.06,3.25,2.88,5.55,2.62,6.51-2,3-4.49,8.23-5.25,12.54-7.56,3.17-1.21,6.41-2.2,9.68-3.11C172.4,39.78,191.3,36.27,210.24,33a14.91,14.91,0,0,1,3.32-.39c9.91,1,18.82-4.19,28.5-4.57,2.16-1.47,5.09,6.12,6.8-.61a5.78,5.78,0,0,1,1.3-2.38c20.75.34,42-3.07,61.62,6.5,4.35,2.13,5-2.08,7.72-2.11A1.45,1.45,0,0,1,321.58,29.47Z"/><path class="cls-24" d="M211.46,33.45c-1.34,1.21-2.62,3.41-4,3.5C189,38,171.69,44.71,153.68,47.84c-4.16-5.29-6.22-.6-8.76,1.84-2.28,5-8.6,3.71-11.72,7.42-1.65,1.85-3.42,3.39-6.17,2.43-11,1.6-20.74,6.53-30.49,11.45.36,2-.23,3-2.41,2.12-.59-.45-1.18-1.29-1.77-1.28-5.29.1-12.37,4.93-15.17-2.12-2.41-6.07,2.93-11.08,7.88-14.89,2.47-2.43,6.32-1.63,8.9-3.8,5.9-8.12,14.54-11,23.91-12.43,2.91-3,8.06-2.42,10.35-6.43,6-3,13.37-1.86,18.69-6.63,4.54,1.07,2.45-4.43,5.14-5.19,2.7,5.35,7.31,1.78,11,2.37,4.41,1.91,8.33,1.31,11.66-2.3,4.6-.47,8.82-3.86,13.75-1.77,1,.91,2,2.32,3.54,1.94,1.28-.32,1-1.65.82-2.69,11.15-7.56,23.05-2.13,34.64-2,3.17,2.16,6.32,3.5,9.4-.14,6,.94,5.88,10.44,13.27,9.33,0,.83,0,1.67,0,2.5-1.88,2.39-4.55,2.09-7.13,2.1-9.75,1.94-18.82,7.93-29.4,4.82.59-2.34,1.95-4.63.46-7.27C211.84,28.81,213.53,32,211.46,33.45Z"/><path class="cls-25" d="M34.77,92.17c-.12-.85-.25-1.69-.37-2.53,1.16-3.49,4.8-4.6,6.89-7.18,3.79-2.43,7.31-5.52,12.32-4.82,3.36-2.24,7.51-.55,11-2.17,3.83,4.91,4.5,9.8-1.28,13.49C55.8,93.77,50,100.09,44.94,107.33c-2.74,3.9-6.73,6.6-11.82,3.93s-.78-6.76-1.08-10.17C35.44,98.88,36.83,96.05,34.77,92.17Z"/><path class="cls-26" d="M174.74,20.4c-.21,3.42-.54,7-4.6,7.91-4.44,1.05-5.26-3-7.06-5.61C166.58,20,168.38,8.6,174.74,20.4Z"/><path class="cls-27" d="M379,92.72c-3-1.65-4.67-4-4.44-7.58,1.62-.87,3.21-2.41,4.87-2.5,4.83-.24,8.67,3,8.5,7.14C387.68,95.91,382.13,91.9,379,92.72Z"/><path class="cls-28" d="M298.36,17.74c-1.05,3.21-3,4.94-6.51,5-4.09.05-5.13-2.47-5.23-5.7-.09-2.84.82-5.4,4.38-5S297.26,14.1,298.36,17.74Z"/><path class="cls-29" d="M128.23,32.15c1.74,10.51-6.61,4.76-10.36,6.43C116,27.87,121.22,28.56,128.23,32.15Z"/><path class="cls-30" d="M64.61,75.47c-1.92,9.64-7.33,1.51-11,2.17-1-3.43-1.11-7,2.92-8.14C61.08,68.26,62.32,72.87,64.61,75.47Z"/><path class="cls-31" d="M360.63,50.82,351.14,48c-.29-3.34-.74-8.1,3.74-7.42S363.93,44.49,360.63,50.82Z"/><path class="cls-32" d="M236.89,15.74c-.75,3,2.17,8.08-2.75,8.4-4.13.27-5.29-4.73-6.65-8.26C230.58,13.15,233.7,12.2,236.89,15.74Z"/><path class="cls-33" d="M333.38,31.24c-2.26.12-4.28-.14-3.87-2.78.45-2.82,2.21-4.83,5.28-5,2-.11,4.34.56,4.49,2.55C339.6,30.05,335.56,29.89,333.38,31.24Z"/><path class="cls-34" d="M375.38,128.41c-1.13,2.75-2,5.87-5.72,5.91a3.36,3.36,0,0,1-3.5-3.54c0-3.21,2.5-4.34,5.22-4.73C373.16,125.79,375.16,125.7,375.38,128.41Z"/><path class="cls-35" d="M342.5,117.76l5.75-.44c2.22,3.86.13,6.27-2.94,8.12a3.36,3.36,0,0,1-4.82-1C338.69,121.58,340.68,119.63,342.5,117.76Z"/><path class="cls-36" d="M94,51c.52,9.45-5.43,3.73-8.9,3.8-1-2.17-1.69-4.45.78-6C89.22,46.68,91.4,49.72,94,51Z"/><path class="cls-37" d="M74.61,135.32c-2.87-.06-5.25-.69-5.38-3.48s2-4.12,4.53-3.37c2.36.7,5.58,1.45,5.09,4.9C78.5,135.74,75.92,135,74.61,135.32Z"/><path class="cls-38" d="M321.58,29.47l-1-.08-1,.07c-2.21-2.64-4.9-5.39-.07-7.93a5.12,5.12,0,0,1,6.89,1.89C328.21,27.44,323.33,27.51,321.58,29.47Z"/><path class="cls-39" d="M48,137.47c-1.31,2.88-3.78,3.72-6.46,3.61-2.35-.1-3-2.06-2.77-4.06.31-2.66,2-4.07,4.67-3.44C45.5,134.07,48,134.5,48,137.47Z"/><path class="cls-40" d="M334.35,149.27c2,.11,4.47.74,4.37,2.76-.15,3-3,4.12-5.67,4.72a3.07,3.07,0,0,1-4-2.87C328.86,150.5,331.48,149.56,334.35,149.27Z"/><path class="cls-41" d="M249.46,171.29c-1.7,2-3.24,4.37-6.22,4.12-2.43-.21-2.77-2.3-2.44-4.19.57-3.34,3.18-3.83,6-3.59C248.87,167.82,250.23,168.83,249.46,171.29Z"/><path class="cls-42" d="M192.85,17.88c2.12.74,4.83,1.34,4.44,4.16-.36,2.62-3,3.22-5.28,3.12-4.63-.2-3.87-3.53-3.52-6.54Z"/><path class="cls-43" d="M180.94,170.43c-.21,2.22-1.46,3.27-3.05,2.67-2.84-1.08-6-2.48-5.27-6.34.2-1.13,2.15-2.89,3.08-2.76C179.4,164.49,179.68,168.1,180.94,170.43Z"/><path class="cls-44" d="M267.9,12.05c-4.25,1.08-7.76,3.22-10.6-.73-.48-.67.41-3.4,1.29-3.79C262.94,5.59,265.45,8,267.9,12.05Z"/><path class="cls-45" d="M275.1,171c-2.85.49-4.24-.84-4.28-2.88-.05-3.19,2.27-4.47,5.12-4.83,2.05-.26,4.22.39,3.95,2.65A6.24,6.24,0,0,1,275.1,171Z"/><path class="cls-46" d="M34.77,92.17c4.55-.38,4.88,2.44,4.15,5.75-.87,3.91-3.58,4.28-6.88,3.17C30.79,97.45,32.78,94.81,34.77,92.17Z"/><path class="cls-47" d="M137,159.57c-1,2.36-2.93,3.22-5.28,3.35s-4.81-.1-4.64-3.17c.15-2.6,2.3-3.68,4.76-3.55C134.09,156.31,136.16,157.06,137,159.57Z"/><path class="cls-48" d="M152.06,20.33c-.16,3.28.71,7.56-5.14,5.19-2.14-2.27-4.16-4.72-.92-7.47C149.08,15.45,150.48,18.37,152.06,20.33Z"/><path class="cls-49" d="M41.29,82.46c.15,4.74-2.77,6.53-6.89,7.17C31.2,82.63,31.56,82.26,41.29,82.46Z"/><path class="cls-50" d="M86.8,96.19c2.11-1.77,3.48-5.75,7.1-3.15.89.63.84,3.74.14,5.2-2,4.13-4.64,2.71-7.14.27C86.87,97.74,86.84,97,86.8,96.19Z"/><path class="cls-51" d="M94.13,73.1,96.54,71c2.7.76,7.13.83,6.5,4.3-.88,4.81-5.28,3.77-8.91,2.7Z"/><path class="cls-52" d="M420.19,78.24c1.24,2.85,7.57,4.34,2.38,8.91-3.14-.56-7.29-.05-8.06-4.14C413.79,79.15,417,78.32,420.19,78.24Z"/><path class="cls-53" d="M421.08,121.2c-1.4,2.56-3.35,4.45-6.23,4.19-2.48-.23-4.36-2.16-3.59-4.65.87-2.84,3.48-3.88,6.38-2.94C419.23,118.32,421.43,118.66,421.08,121.2Z"/><path class="cls-54" d="M379.39,47.67c-.18-4.55,1.18-7.63,6.54-6.28,1.77.45,4.25,1.84,3.41,3.63-2.09,4.43-6.36,2.9-10,2.56Z"/><path class="cls-55" d="M447.78,114.84c.41,2.63-1,3.83-3.15,3.46-2.53-.44-5.52-.9-5.88-4.33a3.24,3.24,0,0,1,3.31-3.77C445,110.23,446.74,112.34,447.78,114.84Z"/><path class="cls-56" d="M181.45,64c3.27-.27,4.15,1.72,4.09,4.16-.11,4-1.16,7.59-6,8a3.88,3.88,0,0,1-4.5-3.93C175.05,67.93,178.17,65.72,181.45,64Z"/><path class="cls-57" d="M211.46,33.45a9.91,9.91,0,0,0-.22-1.11c-1.08-3.37-4.47-6.79-.05-10.1a3.54,3.54,0,0,1,5.71,1.37c1.88,4.31,3.1,8.89-3.32,10.88Z"/><path class="cls-58" d="M249,82c.14,3.48-2.38,3.41-4.56,3.2-3.37-.33-7.12-.86-7.38-5.23-.18-3.09,2.23-4.85,5.13-4.61C246,75.69,247.59,78.93,249,82Z"/><path class="cls-59" d="M274.87,78c-3.17-.42-4.92-1.67-4.62-4.37.44-4,3.48-5.55,6.9-6.13,2.25-.39,3.37,1.3,3.07,3.43C279.72,74.41,277.88,77,274.87,78Z"/><path class="cls-60" d="M246.44,59.53c-3.44.3-5.3-1.08-5.37-3.59-.09-3.82,3-4.86,6.06-5.25,2.25-.29,5.13.11,4.7,3.07S248.67,58.6,246.44,59.53Z"/><path class="cls-61" d="M342,78.46c-.12,2.88-2.18,3.66-4.4,4.07-2.63.48-5.47.62-6.34-2.65-.93-3.45,1.46-4.68,4.35-4.68C338.17,75.19,340.81,75.57,342,78.46Z"/><path class="cls-62" d="M144.92,49.68c-.18-4.43.62-9.23,5.68-9.34,3.54-.08,2.79,4.6,3.08,7.5C151.19,50.51,148.21,50.82,144.92,49.68Z"/><path class="cls-63" d="M194.9,49.45c-.86,4-3.11,5.95-6.24,6.73-2.28.56-3.8-1-4.1-3-.5-3.26,1.6-4.8,4.6-5.29C191.45,47.55,193.54,47.68,194.9,49.45Z"/><path class="cls-64" d="M164.3,61.46c-2.72-.18-4.16-1.75-3.91-4.34.3-3.22,2.43-4.52,5.48-3.66,2.5.7,5.76,1.89,5,4.88C170.31,60.86,167,61.29,164.3,61.46Z"/><path class="cls-65" d="M233.13,71.4c-2.39-.28-3.84-1.55-3.64-3.66.35-3.67,2.48-6.52,6.15-6.91,2-.22,2.57,2.38,2.49,4.33C238,68.52,236.5,70.87,233.13,71.4Z"/><path class="cls-66" d="M175.84,105.49c-2.51-.72-4-2.41-3.29-4.91.83-2.87,2.55-5.64,6-5.48,2.12.1,2.67,2.36,2.45,4.3C180.63,102.52,179.61,105.21,175.84,105.49Z"/><path class="cls-67" d="M174.71,118.57c-.31,1.62.18,4.29-2.31,4.18-3.71-.16-6.07-2.66-6.48-6.38a3.44,3.44,0,0,1,3.42-3.7C173.18,112.45,174.26,115.27,174.71,118.57Z"/><path class="cls-68" d="M293.3,76.85c-.81,2.41-1.89,5.07-4.93,5.48-3.34.45-3.53-2.18-3.32-4.53.26-2.89,1.42-5.36,4.9-5A3.5,3.5,0,0,1,293.3,76.85Z"/><path class="cls-69" d="M362.35,97c.24,2.55-.87,4.07-3.09,3.62-2.54-.52-5.21-1.62-5.58-4.74-.32-2.67,1.19-4.36,3.89-4.1C360.66,92.11,361.7,94.64,362.35,97Z"/><path class="cls-70" d="M302.17,88.93c-3.18-.18-5.27-1.09-5.31-3.84a3.72,3.72,0,0,1,4.42-3.9c2.4.31,5.94.75,5.39,4.19C306.43,86.89,303.47,88,302.17,88.93Z"/><path class="cls-71" d="M125.16,94.27c2.75.48,3.67,2.42,3.46,5-.19,2.37-1,5.23-3.49,5.2s-3.36-2.83-3.55-5.22C121.37,96.66,122.26,94.72,125.16,94.27Z"/><path class="cls-72" d="M276.23,32.29c2.86.78,3.67,3.22,3.65,6,0,2-1.09,4-3.36,3.37-2.78-.75-4.22-3.27-4.29-6C272.17,33.5,273.73,32.3,276.23,32.29Z"/><path class="cls-73" d="M284.45,51.16c-.57,2-.62,4.93-3.78,4.29s-3.75-3.53-4-6.11a3.29,3.29,0,0,1,3.41-3.6C283.58,45.69,284.13,48.38,284.45,51.16Z"/><path class="cls-74" d="M312,60.79c-2-.6-3.81-1.54-3.68-3.79a6,6,0,0,1,4.94-5.58c2.15-.45,3.55,1.36,3.13,3.58C315.91,57.57,315.36,60.37,312,60.79Z"/><path class="cls-75" d="M243,29.67c1.73-2.89,4.31-2.91,7.13-2.1.56,2.56,4.74,5.74.35,7.47C247.07,36.36,244.41,33,243,29.67Z"/><path class="cls-76" d="M265.13,108.36c-2.25-.12-5,0-4.92-3.14.05-2.59,2.15-4,4.66-3.67,2.2.28,5,1.1,5.18,3.57C270.31,108.2,267.25,107.93,265.13,108.36Z"/><path class="cls-77" d="M219.17,48.76c-.64,2.47-.9,5.31-4.2,5.71a3,3,0,0,1-3.63-3.11c0-2.92,1.88-4.75,4.57-5.47C218.13,45.29,219.35,46.36,219.17,48.76Z"/><path class="cls-46" d="M127,59.53l6.17-2.43c.19,3.58,2.16,8.58-3.28,9.15C125.5,66.71,126.35,62.55,127,59.53Z"/><path class="cls-78" d="M219.42,92.09c2.32.59,5.13,1.19,5.16,4.41,0,2.52-2.45,2.27-4.16,2.4-2.4.18-4.6-.49-4.68-3.33C215.68,93.54,217,92.25,219.42,92.09Z"/><path class="cls-79" d="M239.21,111c-.2,2.19-1.11,3.54-3.55,2.92-2.74-.7-5-2.28-5-5.2a3.29,3.29,0,0,1,3.82-3.2C237.6,105.86,238.36,108.51,239.21,111Z"/><path class="cls-80" d="M136.92,78.07c2.57.23,3.15,1.9,2.75,4-.45,2.29-1.4,4.48-4.1,4.77a3.25,3.25,0,0,1-3.81-3.27C132,80.74,134.35,79.06,136.92,78.07Z"/></g></g></g></g></svg>