<svg xmlns="http://www.w3.org/2000/svg" viewBox="0 0 434.5 150.87"><defs><style>.cls-1{isolation:isolate;}.cls-2{fill:#cbdbd3;mix-blend-mode:multiply;}.cls-3{fill:#c8c4aa;}.cls-4{fill:#e7e1c2;}.cls-5{fill:#fff;}.cls-6{fill:#ffa944;}.cls-7{fill:#ffeab7;}.cls-8{fill:#ffd38d;}.cls-9{fill:#eac083;}.cls-10{fill:#f68d32;}.cls-11{fill:#5f8c3b;}.cls-12{fill:#5eb53e;}.cls-13{fill:#80ce36;}.cls-14{fill:#e0433b;}.cls-15{fill:#e22727;}.cls-16{fill:#f46451;}.cls-17{fill:#d6a374;}.cls-18{fill:#f2b981;}.cls-19{fill:#e86c10;}.cls-20{fill:#dd4d05;}.cls-21{fill:#f29d36;}.cls-22{fill:#8a9338;}.cls-23{fill:#c5d665;}.cls-24{fill:#a8ad44;}.cls-25{fill:#e9f291;}.cls-26{fill:#85d353;}.cls-27{fill:#507538;}</style></defs><title>Asset 28</title><g class="cls-1"><g id="Layer_2" data-name="Layer 2"><g id="Layer_1-2" data-name="Layer 1"><ellipse class="cls-2" cx="218.19" cy="109.07" rx="216.3" ry="41.8"/><ellipse class="cls-3" cx="217.25" cy="82.21" rx="184.14" ry="56.54"/><path class="cls-4" d="M0,69.14c0,28.76,97.27,52.07,217.25,52.07S434.5,97.9,434.5,69.14,337.23,17.08,217.25,17.08,0,40.39,0,69.14Z"/><ellipse class="cls-3" cx="218.88" cy="62.1" rx="167.95" ry="40.25"/><path class="cls-5" d="M230.25,110.47C110.26,110.47,13,87.15,13,58.4a15.22,15.22,0,0,1,3.28-9.06C5.8,55.45,0,62.13,0,69.14c0,28.76,97.27,52.07,217.25,52.07,107.09,0,196.08-18.57,214-43C398.71,97.13,321,110.47,230.25,110.47Z"/><path class="cls-6" d="M119.72,20.11c-7,3.07-13.75,25.36-10.51,31.7,2.5,4.92,10.06,24.27,110.05,24.77,114.45.58,113.07-27,113.07-30.86s-.81-21-15.36-26.88C308.93,15.62,159.59,2.69,119.72,20.11Z"/><path class="cls-7" d="M213.62.07c-73.37,1.2-100,16.26-101.48,34.85S141,66.53,224.73,66.07C307,65.61,324.36,49.57,327,39.57,332.07,19.87,298.81-1.33,213.62.07Z"/><path class="cls-8" d="M123.34,38.78A44.48,44.48,0,0,0,133.67,38c1.85-.44,1.06-2.68-.8-2.24a40.92,40.92,0,0,1-9.53.66c-1.94,0-1.94,2.32,0,2.32Z"/><path class="cls-8" d="M147.5,33.51a50.39,50.39,0,0,1,7.29-.65c2.38,0,2.39-2.35,0-2.33a58,58,0,0,0-8.27.74c-2.32.36-1.34,2.6,1,2.24Z"/><path class="cls-8" d="M131.58,29.14h4.88c1.48,0,2.71-.53,2.71-1.16s-1.23-1.17-2.71-1.17h-4.88c-1.48,0-2.72.53-2.72,1.17s1.24,1.16,2.72,1.16Z"/><path class="cls-8" d="M166.45,22.75c3.53,0,7-.05,10.5-.39,2.35-.23,1.35-2.47-1-2.24-3.14.3-6.33.3-9.51.3-2.38,0-2.38,2.33,0,2.33Z"/><path class="cls-8" d="M145.9,19.26a14.67,14.67,0,0,0,4.27-.51c.91-.26,1.14-1.08.66-1.59a2.6,2.6,0,0,0-2.53-.41,8.63,8.63,0,0,1-2.4.19c-1,0-1.85.53-1.85,1.16s.84,1.16,1.85,1.16Z"/><path class="cls-8" d="M171.28,11.78a12.7,12.7,0,0,1,2.95-.19c2.39,0,2.39-2.32,0-2.32a17.44,17.44,0,0,0-4.82.51c-.92.26-1.14,1.08-.67,1.59a2.62,2.62,0,0,0,2.54.41Z"/><path class="cls-8" d="M213.67,18.22h8.89c2.39,0,2.39-2.33,0-2.33h-8.89c-2.38,0-2.38,2.33,0,2.33Z"/><path class="cls-8" d="M190.9,30.07a65.91,65.91,0,0,0,7.71-.39c2.35-.28,1.35-2.52-1-2.24a58,58,0,0,1-6.73.3c-2.39,0-2.39,2.33,0,2.33Z"/><path class="cls-8" d="M194.05,14.92a10.76,10.76,0,0,1,4.13-.23c2.3.42,3.28-1.82,1-2.24a16.05,16.05,0,0,0-7,.46c-2.17.64-.29,2.64,1.86,2Z"/><path class="cls-8" d="M205.34,7.41h5c2.39,0,2.39-2.32,0-2.32h-5c-2.39,0-2.39,2.32,0,2.32Z"/><path class="cls-8" d="M246.51,14.69c3.77.71,7.75.43,11.61.74,2.36.19,2.33-2.14,0-2.33-3.53-.28-7.19,0-10.62-.65-2.29-.44-3.27,1.81-1,2.24Z"/><path class="cls-8" d="M238.67,29h5c2.39,0,2.39-2.32,0-2.32h-5c-2.38,0-2.38,2.32,0,2.32Z"/><path class="cls-8" d="M208.68,44.71h6.11c2.38,0,2.38-2.33,0-2.33h-6.11c-2.39,0-2.39,2.33,0,2.33Z"/><path class="cls-8" d="M153.68,46.45h2.22c1,0,1.85-.53,1.85-1.16s-.84-1.16-1.85-1.16h-2.22c-1,0-1.85.53-1.85,1.16s.84,1.16,1.85,1.16Z"/><path class="cls-8" d="M174.23,41.92c2.39,0,2.39-2.32,0-2.32s-2.39,2.32,0,2.32Z"/><path class="cls-8" d="M189.79,59.35h5c2.39,0,2.39-2.33,0-2.33h-5c-2.39,0-2.39,2.33,0,2.33Z"/><path class="cls-8" d="M254.23,57.26c2.6,0,5.17-.33,7.78-.35,2.38,0,2.39-2.35,0-2.33-2.61,0-5.18.33-7.78.35-2.39,0-2.39,2.35,0,2.33Z"/><path class="cls-8" d="M242,42.27h5c2.39,0,2.39-2.33,0-2.33h-5c-2.39,0-2.39,2.33,0,2.33Z"/><path class="cls-8" d="M290.83,46.76c4.06-.34,8.16-.36,12.22-.7,2.36-.2,1.35-2.44-1-2.24-4.06.34-8.16.35-12.22.7-2.36.2-1.35,2.43,1,2.24Z"/><path class="cls-8" d="M266.94,35.25a43.43,43.43,0,0,1,6.18-.65c2.38,0,2.39-2.35,0-2.32A49.77,49.77,0,0,0,266,33c-2.32.37-1.33,2.61,1,2.24Z"/><path class="cls-8" d="M300.34,31.46h4.44c2.39,0,2.39-2.32,0-2.32h-4.44c-2.39,0-2.39,2.32,0,2.32Z"/><path class="cls-8" d="M276.32,21.09a34.31,34.31,0,0,1,8.09-.29c1.86.16,2.39-2.14.52-2.3a38.26,38.26,0,0,0-8.87.3c-1.87.3-1.62,2.59.26,2.29Z"/><path class="cls-8" d="M240.34,6.71a17.39,17.39,0,0,0,4.82-.5c.92-.27,1.14-1.09.67-1.59a2.62,2.62,0,0,0-2.54-.42,12.7,12.7,0,0,1-2.95.19c-2.39,0-2.39,2.32,0,2.32Z"/><path class="cls-8" d="M281.45,12.64h3.89c2.39,0,2.39-2.32,0-2.32h-3.89c-2.39,0-2.39,2.32,0,2.32Z"/><path class="cls-9" d="M197.51,35.16q0,.17-.33.33c.1-.05-.26,0,0,0-.3,0-.11,0,0,0h.2c.51,0,.93-.27.93-.59s-.42-.58-.93-.58a3.37,3.37,0,0,0-1,.12.81.81,0,0,0-.65.7c0,.31.43.58.92.58s.9-.27.93-.58Z"/><path class="cls-9" d="M220.66,31.55h1.85c1.19,0,1.19-1.16,0-1.16h-1.85c-1.2,0-1.2,1.16,0,1.16Z"/><path class="cls-9" d="M208,23.48c-.12.07.13,0,0,0l.3,0c.3,0,.6,0,.89,0,1.2,0,1.2-1.16,0-1.16a5.22,5.22,0,0,0-2.5.4.45.45,0,0,0,0,.82,1.36,1.36,0,0,0,1.31,0Z"/><path class="cls-9" d="M251.77,21.1h1.48c.5,0,.92-.27.92-.58s-.42-.58-.92-.58h-1.48c-.51,0-.93.26-.93.58s.42.58.93.58Z"/><path class="cls-9" d="M236.21,10.64h1.85c1.2,0,1.2-1.16,0-1.16h-1.85c-1.19,0-1.19,1.16,0,1.16Z"/><path class="cls-9" d="M261.77,10.87h.37c.5,0,.92-.26.92-.58s-.42-.58-.92-.58h-.37c-.51,0-.93.26-.93.58s.42.58.93.58Z"/><path class="cls-9" d="M165.84,15.29h1.48c.51,0,.93-.27.93-.58s-.42-.58-.93-.58h-1.48c-.5,0-.93.26-.93.58s.43.58.93.58Z"/><path class="cls-9" d="M185.57,8.93a6.35,6.35,0,0,1,1.75-.15c1.2,0,1.2-1.16,0-1.16a9.54,9.54,0,0,0-2.69.31c-.46.13-.57.54-.33.79a1.27,1.27,0,0,0,1.27.21Z"/><path class="cls-9" d="M152.88,9.71a11.05,11.05,0,0,0,3.06-.31c.46-.13.56-.54.33-.8A1.32,1.32,0,0,0,155,8.39a7.86,7.86,0,0,1-2.12.16c-1.2,0-1.2,1.16,0,1.16Z"/><path class="cls-9" d="M128.53,20.79a6,6,0,0,1,1.75-.16c1.2,0,1.2-1.16,0-1.16a9.58,9.58,0,0,0-2.69.31c-.45.14-.56.54-.33.8a1.32,1.32,0,0,0,1.27.21Z"/><path class="cls-9" d="M145.47,22.26a6.27,6.27,0,0,0,.87-.11l.39-.08.22,0c.23,0-.2,0,0,0,.5,0,.93-.26.93-.58s-.42-.6-.93-.59a5.06,5.06,0,0,0-.87.12l-.39.08-.22,0c-.23,0,.2,0,0,0-.5,0-.93.25-.93.58s.42.59.93.58Z"/><path class="cls-9" d="M122.14,30.39a7.63,7.63,0,0,0,2.31-.31c.46-.14.58-.54.34-.79a1.3,1.3,0,0,0-1.27-.21,3.91,3.91,0,0,1-1.38.15c-1.2,0-1.2,1.16,0,1.16Z"/><path class="cls-9" d="M235.1,38.76H237c1.2,0,1.2-1.16,0-1.16H235.1c-1.19,0-1.19,1.16,0,1.16Z"/><path class="cls-9" d="M267.45,39.2a16.24,16.24,0,0,0,3.21.26c1.19,0,1.19-1.17,0-1.17a13.62,13.62,0,0,1-2.72-.21c-1.14-.23-1.63.9-.49,1.12Z"/><path class="cls-9" d="M273.62,27.14a5.26,5.26,0,0,0,2.51-.4.45.45,0,0,0,0-.82,1.33,1.33,0,0,0-1.31,0c.12-.07-.14,0,0,0l-.3,0c-.3,0-.6,0-.89,0-1.19,0-1.19,1.16,0,1.16Z"/><path class="cls-9" d="M301.27,28.05a15.9,15.9,0,0,1,3.09-.21c1.19,0,1.19-1.17,0-1.17a18.53,18.53,0,0,0-3.58.26c-1.14.22-.65,1.34.49,1.12Z"/><path class="cls-9" d="M290.66,19.7h1.85c1.19,0,1.19-1.16,0-1.16h-1.85c-1.2,0-1.2,1.16,0,1.16Z"/><path class="cls-9" d="M292.51,13.89h.6c.06,0,.33.06.09,0l.11,0c.19.07-.15-.09,0,0a1.39,1.39,0,0,0,1.3,0,.45.45,0,0,0,0-.83,4.07,4.07,0,0,0-2.13-.4c-.51,0-.93.27-.93.58s.42.58.93.58Z"/><path class="cls-9" d="M312.14,25.28h3c1.2,0,1.2-1.16,0-1.16h-3c-1.2,0-1.2,1.16,0,1.16Z"/><path class="cls-9" d="M306.68,18a9.84,9.84,0,0,1,2.5-.16c1.19,0,1.19-1.16,0-1.16a12.5,12.5,0,0,0-3.43.31c-.46.13-.57.55-.34.8a1.32,1.32,0,0,0,1.27.21Z"/><path class="cls-9" d="M121.39,44.34h1.86c1.19,0,1.19-1.17,0-1.17h-1.86c-1.19,0-1.19,1.17,0,1.17Z"/><path class="cls-9" d="M148.06,37.36a5.26,5.26,0,0,0,2.51-.4.45.45,0,0,0,0-.82,1.38,1.38,0,0,0-1.31,0c.12-.07-.13,0,0,0l-.3,0c-.29,0-.59,0-.89,0-1.19,0-1.19,1.17,0,1.16Z"/><path class="cls-9" d="M168.06,27.14h2.59c1.2,0,1.2-1.16,0-1.16h-2.59c-1.19,0-1.19,1.16,0,1.16Z"/><path class="cls-9" d="M184,15.75h.74c.5,0,.93-.26.93-.58s-.43-.58-.93-.58H184c-.51,0-.93.26-.93.58s.42.58.93.58Z"/><path class="cls-9" d="M195.47,3.67a11.45,11.45,0,0,0,3.06-.31c.46-.14.57-.55.33-.8a1.3,1.3,0,0,0-1.26-.21,7.91,7.91,0,0,1-2.13.16c-1.19,0-1.19,1.16,0,1.16Z"/><path class="cls-9" d="M225.1,3.2h1.48c.51,0,.93-.26.93-.58s-.42-.58-.93-.58H225.1c-.5,0-.93.26-.93.58s.43.58.93.58Z"/><path class="cls-9" d="M169.54,54.33H171c.5,0,.92-.26.92-.58s-.42-.58-.92-.58h-1.49c-.5,0-.92.26-.92.58s.42.58.92.58Z"/><path class="cls-9" d="M234.73,58.28h.37c.51,0,.93-.26.93-.58s-.42-.58-.93-.58h-.37c-.5,0-.93.26-.93.58s.43.58.93.58Z"/><path class="cls-9" d="M271.49,46.35a6.42,6.42,0,0,1,1.76-.15c1.19,0,1.19-1.17,0-1.17a9.19,9.19,0,0,0-2.69.32c-.46.13-.57.54-.33.79a1.3,1.3,0,0,0,1.26.21Z"/><path class="cls-9" d="M284.36,54.1h.37c.51,0,.93-.27.93-.58s-.42-.59-.93-.59h-.37c-.5,0-.93.27-.93.59s.43.58.93.58Z"/><path class="cls-9" d="M313.72,36.36c.71-.21,1.5-.26,2.22-.47.46-.13.57-.54.33-.79a1.27,1.27,0,0,0-1.27-.21c-.7.2-1.5.25-2.22.46-.46.14-.57.54-.33.8a1.32,1.32,0,0,0,1.27.21Z"/><path class="cls-10" d="M332.3,45.72a38.44,38.44,0,0,0-.37-5.16,19.32,19.32,0,0,0-2.86,5.67c-.93,3.8-4.25,6.81-7.38,10.09-2.73,2.87-9.13,5.73-13.73,7.35a114.34,114.34,0,0,1-22.45,5.58c-15.91,2.06-31.33,2.14-47.79,2.65-16.8.52-34.3.18-51-.81a192.39,192.39,0,0,1-27.89-3.5c-8.6-1.81-18.35-1.69-25.76-4.94C127,60,119.23,59.07,114.93,55.11a91.13,91.13,0,0,0-6.53-6.62,8.82,8.82,0,0,0,.78,3.32c2.51,4.92,10.06,24.27,110.06,24.77C333.68,77.16,332.3,49.56,332.3,45.72Z"/><path class="cls-11" d="M226,26.85c-4.48,2.12-8.9,3.9-13.24,6.12-5,2.56-9.72,2.65-16.84,1.09-3.19-.7-6.35-1.27-9.61-1.91-1.89-.37-8.08-2.76-9.43-1.85a1.11,1.11,0,0,0-.64.08c2.47,2.39,10.66,3.81,14.36,4.74l11.62,2.51c14.71,3.1,18.83,18.86,27,26.75,2.38,2.3,6.73,6.67,4.4.1-.71-2-3.31-4.53-4.66-6.49-2.09-3-14.59-13.73-10.73-15.22,1.78-.69,8.65,3.16,10.38,4.65,3.42,2.95,5.09,5.19,6.38,8.66,1.85,5,2.9,9,6.52,13.64,1.33,1.71,7,5.63,8.63,5.26,1-.23-2.3-6.53-3.21-8.25-2.45-4.7-6.55-9.09-9.53-13.72-1.13-1.75-9.47-10.13-.22-5.94,2.82,1.28,5.42,1.92,7.06,3.19,8.8,6.82,14.74,29.25,18.19,28.1,5-1.66-11.5-25.67-11.12-26.5,1.14-2.47,6.64,2.38,8,3.57A96.93,96.93,0,0,0,270.07,63c4.74,3.12,10.76,6.22,16.63,6.76,12.17,1.12,1.92-6.77-4.5-9.31-5-2-26.17-8.82-29.57-12.61-1.13-1.27,2-1.76,5.31-2.2,1.51-.19,25.62-2,21.8-4.25-8.27-3.62-26.05,4.26-35.9,3.54-2-.15-12.54-2.07-12.38-4.33.13-1.89,8.72-1.92,10.61-2.17,3.54-.46,15-3.2,16.41-4.57,3.58-3.58-14-1-16.15-.38-5.89,1.8-10.67,3.46-17.2,4.31-1.31.17-7.29,1.35-8-.8-.62-1.91,4.41-4.18,5.92-4.47,3.59-.68,11.18-4.22,13.3-7.09C239.18,21.63,228.11,25.86,226,26.85Z"/><path class="cls-12" d="M193.27,11.69c-2,3.47-4.07,6.58-5.84,10.12-2.05,4.09-5.45,5.53-11.7,5.94-2.8.19-5.48.51-8.29.77-1.63.16-9.82-1.61-8.55,1,2,4.9,10.29.91,13.6.81l10.16-.71c12.81-1,25.92,14.17,37,20,3.21,1.7,6.34,2.18,3.31-1.15-1.75-1.92-5.34-3.76-7.59-5.4-3.47-2.53-19.52-10.06-17.63-12.71.87-1.23,8.39.8,10.62,1.85a32,32,0,0,1,10.22,7.15A91.5,91.5,0,0,0,233.12,52c2.07,1.39,5.22,3.45,6,1.22.58-1.71-3.17-4.64-4.93-6.16-4.81-4.17-10.64-7.55-15.79-11.5-1.95-1.5-13.45-7.81-4-6.1,2.89.52,5.22.44,7.23,1.29,10.85,4.56,11.21,10.12,17.81,15.12,2.29,1.74,13.35,11.89,13.55,8.82.28-4-24.88-23.34-25.13-24.31-.74-2.88,8.46.49,10.25,1.33,4.51,2.12,21.58,5.79,26.74,5.49,12.81-.75-1-4.55-8.16-6.64a91.47,91.47,0,0,0-21.61-3.38c-2.53-.06-15,.51-6.3-5.1,1-.63,15.74-7,14.49-9.65C232.1,10.5,225.68,23.3,218,25.37c-1.53.41-10.55,1.44-11.88-.95-1.11-2,5.2-4.48,6.43-5.28,2.3-1.5,9-7.62,9.15-9.42.35-4.74-11,2.93-12.13,4.21-3.18,3.55-5.64,6.63-9.91,9.38-.85.55-4.5,3.49-6.39,1.45-1.67-1.8.58-5.59,1.51-6.32,2.2-1.73,5.52-7.57,5.25-11.15C199.62,2.51,194.19,10.06,193.27,11.69Z"/><path class="cls-13" d="M161.31,31.2c1.35.35,3.94-.52,5.18-.62,1.71-.15,3-.9,4.73-1,3.65-.2,7.28-.45,10.92-.67,7.61-.45,15.49-.3,23.27-.33,7.32,0,14.7.08,22.2.59S243,30.77,250.79,32a121.42,121.42,0,0,1,15.12,3c.39.11,3.48.93,3.51.72s-3.08-1.21-3.49-1.33a154.06,154.06,0,0,0-22-4.28c-7.71-1.08-15.3-1.88-22.86-2.2s-14.87-.28-22.22-.21c-3.87,0-7.77,0-11.62.07s-7.34.38-11,.6c-2.44.15-4.91.26-7.36.41-2,.13-6,0-8,.12C160.14,29,161.31,31.2,161.31,31.2Z"/><path class="cls-13" d="M182.19,28.63c1.12.45,2.11-.35,2.72-.74,1.07-.69,2-1.5,3-2.27,2.93-2.28,6.5-9.13,6.45-12.69,0-.56-1.31,3.33-1.84,4.32a24.79,24.79,0,0,1-5.07,7.19c-.73.67-1.56,1.29-2.36,1.91-.44.33-.88.65-1.35,1-.2.13-2.29,1-1.51,1.32Z"/><path class="cls-13" d="M190.23,28.41a49.42,49.42,0,0,0,5,3.7c.68.44,7.75,4.71,7.07,4.26-1.66-1.09-9.63-7.11-11.08-8.36-.58-.5-1.52-.11-.94.4Z"/><path class="cls-13" d="M204.2,28.8c1.56.7,3,1.56,4.47,2.38.71.4,7.09,3.53,6.37,3.13-1.56-.88-8.77-5.52-10.43-6.26-.77-.34-1.17.41-.41.75Z"/><path class="cls-13" d="M199.13,28.62c3.29-1.29,6.69-5.66,7.2-8.5.1-.55-1.24,1.16-1.89,2-1.7,2.14-3.1,4.52-6.14,5.71-.62.24.21,1.07.83.82Z"/><path class="cls-13" d="M217,28.63c3.19-1.39,8.32-5,10.26-7.26.36-.43-2.46,1.22-2.82,1.65-1.9,2.25-5.16,3.43-8.27,4.78-.6.27.23,1.09.83.83Z"/><path class="cls-13" d="M221.73,29c1.67,1.33,3.88,2.18,5.43,3.59.28.26,3.59,3,3.82,2.9s-2.81-2.81-3.09-3.07c-1.63-1.48-3.71-2.62-5.47-4-.61-.48-1.3.12-.69.6Z"/><path class="cls-14" d="M216.4,31.65s-1.63-2.59,0-3.75a20,20,0,0,1,3.77-2.2L218.89,22l-7-.91a4.93,4.93,0,0,1-1-5.28c1.58-3.47,5.54-5.47,8.29-6.58,3.16-1.28,7.36-.82,9,.42a7.72,7.72,0,0,1,2.72,6.24l3.91.21s2.59-4.09,5-5.24a9.64,9.64,0,0,1,8.51.14c2,1.06,5.2,4.2,4.14,7.58s-5.46,5.06-5.46,5.06l-8-.95s-1.09,1.87-1,2.19,1.84,1.42.6,4.61,4.33-.53,4.33-.53l5.43-3.83,5.76-5,1-7-4.86-5.52-8.14-1.92-8.36,3.83L231.2,6.47l-6.1-2.13-9,2.13-5.88,5.31-2.93,6.48,3.27,2.87,4,1.49-2.94,5.1Z"/><path class="cls-15" d="M256.52,11.46c-3.08-3.85-4-3.5-4-3.5l1.58,8-3.84,6.8-7.23,1.17-2.83,6.16-11.41,5.31-7.8-.53-6.55-3.08-2.94-4,2.94-5.1,1.92-1.81-7.57-.74-3.39-3.4c0,.32-.68,4-.68,4s-.67,1.6,2.49,3.82a8.6,8.6,0,0,0,4.52,1.6s-1.81-.22-2,2.55-1.22,5.37,0,7c1.58,2.13,5.79,5.48,12.32,6.06,7.23.63,13.79.63,18.53-3.08,5.23-4.1,5.54-7.87,5.54-7.87A16.94,16.94,0,0,0,252,29.63a12.07,12.07,0,0,0,6.66-7.33A12.09,12.09,0,0,0,256.52,11.46Z"/><path class="cls-16" d="M250.25,6.26c-9.32-3.82-15.76,1.28-15.76,1.28S231.05,3.85,227,3.28a18.08,18.08,0,0,0-14.4,3.94c-3.29,2.75-9,8.13-6.61,12a7.55,7.55,0,0,0,6.61,3.51s-7,7.43,1,11.48c9,4.51,20.83,2.77,24.92.63,4.57-2.39,5.42-8,5.42-8s6.89,1.68,10.73-3.74C258.44,17.82,259.11,9.9,250.25,6.26Zm2.58,10.09c-.31,2.91-1.44,4.46-3.24,5.24-3.72,1.6-8.22-1.1-8.22-1.1l-2.48,2.24a3.7,3.7,0,0,1,.9,4.88c-1.2,2.43-6.1,6.27-13,6.17-6.67-.11-12.77-2.45-12.77-6,0-3.76,4.86-5.79,4.86-5.79l-1.35-2.55s-6.06,1.22-7.58-.38-.68-5.63,2.37-8.18S221,4.75,226.46,6.15c5,1.28,4.89,5.1,4.89,5.1l3.65.11s3.88-4.58,9.88-3.93C248.83,7.85,253.3,11.81,252.83,16.35Z"/><path class="cls-17" d="M220.13,25.7s2.94-1.13,3.46-1.91-1.05-4.25-1.05-4.25l-2.94.57L218.89,22l-1.25,1.39.83.5-.83,1.42,1.43-.64L218.32,26Z"/><path class="cls-18" d="M222.54,19.54c-.38-.92-5-.05-5-.05l-1.55,1,1.2.21-.9.78s1.05.21,1.28.21-.83.78-.83.78l2.15-.4S222.92,20.46,222.54,19.54Z"/><path class="cls-17" d="M236.78,19.82s-1.51,1.91-1.28,2.76,2,1.92,2.41,2.34a6.61,6.61,0,0,0,1.51,1l-.53-1.48.6.49-.68-1.56.68.57V22.66Z"/><path class="cls-18" d="M242.05,22.66l-.53-1,1.21.43-1.36-1.6s-2.56-1.73-4.22-1,1.74,3.26,1.74,3.26l1.58,1.48-.68-1.34,1.66.56s-.68-1-.9-1.06S242.05,22.66,242.05,22.66Z"/><path class="cls-17" d="M231,12.21s-.39,3.77-.34,4.25.63,1.75,1.7,1.64a3.31,3.31,0,0,0,2.35-2c.36-.8.25-4.57.25-4.57Z"/><path class="cls-18" d="M234.22,10.75l-.23-1-.6,1.07-.3-1.28-.46,1.06L232,9.48l-.68,1.77s-1.13,2.55,1.21,2.69S235,11.36,235,11.36l.12-1.67Z"/><path class="cls-19" d="M251.68,27s-.18-3,1.8-3.36a21.25,21.25,0,0,1,4.41-.33l.69-3.78-5.79-3.83a4.91,4.91,0,0,1,1.67-5.13c3.09-2.4,7.59-2.49,10.57-2.29,3.44.23,7,2.45,7.76,4.25,1.54,3.37-.62,6.7-.62,6.7l3.37,1.88s4.29-2.52,7-2.51A9.31,9.31,0,0,1,290,22.4c1.22,1.79,2.57,6,0,8.52s-7.33,2.15-7.33,2.15L276,28.76s-1.89,1.2-1.94,1.53.95,2.06-1.71,4.35,4.11,1.4,4.11,1.4L283.16,35l7.56-2L295,27.23l-1.63-7L287.12,15l-9.3-.21L277.11,11l-4.39-4.52-9.07-2-7.81,2.19-5.77,4.49,1.51,4,2.79,3-5.09,3.27Z"/><path class="cls-20" d="M297.18,26.35c-.86-4.75-1.81-4.82-1.81-4.82l-2.48,7.76-6.73,4.39-7-2.08-5.51,4.26-12.74-.19-6.67-3.83-4.32-5.57-.64-4.85,5.09-3.27,2.59-.78-6.37-3.92L249.24,9c-.16.28-2.57,3.29-2.57,3.29s-1.38,1.13.34,4.47a8.05,8.05,0,0,0,3.24,3.37s-1.5-1-3.05,1.39-3.7,4.24-3.42,6.23c.37,2.57,2.48,7.37,8,10.69,6.12,3.69,11.94,6.51,18,5.25,6.64-1.39,8.75-4.6,8.75-4.6a17,17,0,0,0,5.79,1.49,13.06,13.06,0,0,0,9.5-3.64A12.25,12.25,0,0,0,297.18,26.35Z"/><path class="cls-21" d="M294.14,19a16,16,0,0,0-14.63-5.66s-1.26-4.76-4.56-7a18.18,18.18,0,0,0-14.72-2.71c-4.27,1-12,3.36-11.7,7.78a7,7,0,0,0,4.17,6S242.82,21,248,28c5.77,7.88,17.16,11.44,21.83,11.31,5.23-.16,8.71-4.75,8.71-4.75s5.3,4.46,11.36,1.3C295.78,32.83,300.24,26.07,294.14,19ZM291.51,29.1c-1.68,2.45-3.45,3.35-5.43,3.27-4.09-.18-6.77-4.52-6.77-4.52l-3.29.91s1.38,2.59-1.58,4.74c-2.25,1.63-8.48,2.94-14.56-.13-5.87-3-10.16-7.67-8.45-10.79,1.84-3.34,7.15-3,7.15-3l0-2.85s-6-1.53-6.56-3.6,2.15-5.3,6.1-6.25,10.72-1.76,14.89,1.83c3.8,3.28,1.86,6.65,1.86,6.65L278.1,17s5.68-2.41,10.7.75C292.11,19.83,294.15,25.27,291.51,29.1Z"/><path class="cls-17" d="M257.89,23.32s3.17.26,4-.2S263,18.88,263,18.88l-2.89-.76-1.57,1.42-1.79.7.49.8-1.42.9,1.58,0-1.29.81Z"/><path class="cls-18" d="M263,18.88c.11-1-4.42-2.19-4.42-2.19l-1.85.19,1,.71-1.18.3s.83.64,1,.74-1.11.34-1.11.34l2.11.57S262.93,19.87,263,18.88Z"/><path class="cls-17" d="M275.56,25.27s-2.27,1.05-2.49,1.91.88,2.57,1,3.11a6.19,6.19,0,0,0,.85,1.53l.26-1.55.29.7.16-1.67.33.79.62-1.13Z"/><path class="cls-18" d="M278.86,30.06l0-1.11.86.9-.43-2s-1.43-2.65-3.25-2.73,0,3.64,0,3.64l.68,2,.05-1.49L278,30.5a4.71,4.71,0,0,0-.29-1.34C277.5,29,278.86,30.06,278.86,30.06Z"/><path class="cls-17" d="M274.16,16s-2.19,3.18-2.37,3.63-.3,1.83.7,2.19a3.54,3.54,0,0,0,3.05-.73c.71-.55,2.45-3.95,2.45-3.95Z"/><path class="cls-18" d="M277.7,16.11l.28-1-1.05.69.35-1.27-.92.75,0-1.27-1.47,1.29s-2.24,1.78-.24,2.91S278.1,17,278.1,17l.92-1.44Z"/><path class="cls-22" d="M185.54,9.48C174,9.33,165,9.92,161.65,13.05c-.89.84-1.3,2.91-1.33,3.94-.18,7,8.59,10.61,23.76,10.61,20.83,0,27.82-4.17,29.23-7.87.74-1.9.73-5.63-1.64-7.39C208.6,10.06,200.49,9.68,185.54,9.48Z"/><path class="cls-23" d="M185.17,5.91c-14.62-.2-24.48,4.52-24.12,9.41s7.5,8.7,22.66,8.7c20.83,0,29.06-4.53,28.87-8.34S211.67,6.26,185.17,5.91Z"/><path class="cls-24" d="M212.58,15.76c-.18-3.82-.91-9.42-27.41-9.78-14.62-.19-24.48,4.53-24.12,9.42s7.5,8.7,22.66,8.7C204.54,24.1,212.77,19.57,212.58,15.76Zm-28.57,7c-13.77,0-20.55-3-20.89-7.42S171.74,6.6,185,6.78c24.06.32,25.62,5.27,25.79,8.74S202.92,22.75,184,22.75Z"/><path class="cls-25" d="M186.14,9c-6.34,0-16.63,1.62-17.64,5-.87,2.9,4.65,6.45,18.19,6.46s20.28-4.34,19.39-6.75C204.88,10.43,198.88,8.91,186.14,9Z"/><path class="cls-5" d="M183.31,9.24l-.12,0a3,3,0,0,0,.41,3,9,9,0,0,0,2.31,2.49,5.37,5.37,0,0,0-.36-3.17A4.68,4.68,0,0,0,183.31,9.24Z"/><path class="cls-5" d="M186.85,14.56c2.23-1.1,4.34-3.14,4.17-5-2.54,1.2-4.62,3-4.62,5.15l.55-.2S186.86,14.5,186.85,14.56Z"/><path class="cls-5" d="M178,14.8c-2,.2-5.28.51-6.6,1.53h0a13.72,13.72,0,0,0,3.62.58,26.6,26.6,0,0,0,3.1-.2,16.4,16.4,0,0,0,5.75-1.66A20.59,20.59,0,0,0,178,14.8Z"/><path class="cls-5" d="M178.42,19.45h0a12.83,12.83,0,0,0,2.36-.28,10.74,10.74,0,0,0,2.12-1.05,4.83,4.83,0,0,0,1.31-1.37c.24-.39.21-.81.44-1.18C183.64,15.84,178.73,17.17,178.42,19.45Z"/><path class="cls-5" d="M193.53,16.31c-.9-.26-5.92-1.08-6.15-.84h0c.36.57,3.15,2,4.06,2.37,2.26.8,5.35.82,6,1.13C197.13,17.76,195.19,16.79,193.53,16.31Z"/><path class="cls-5" d="M197.2,13.37a21.5,21.5,0,0,0-4.76.32,14.6,14.6,0,0,0-3.69,1.11s1.43.09,1.87.14a56.3,56.3,0,0,0,6.27.37,29.22,29.22,0,0,0,6.44-.87A22.44,22.44,0,0,0,197.2,13.37Z"/><path class="cls-26" d="M167.71,23.87a8.65,8.65,0,0,1,.87.25.75.75,0,0,0,.8-.14.34.34,0,0,0-.21-.55,10.9,10.9,0,0,0-1.15-.34.66.66,0,0,0-.72.28c-.09.22.11.43.41.5Z"/><path class="cls-26" d="M170.51,25.56c.33.06.65.16,1,.22a.68.68,0,0,0,.72-.28c.08-.21-.11-.44-.41-.5s-.65-.16-1-.22a.67.67,0,0,0-.72.29c-.08.21.1.44.41.49Z"/><path class="cls-26" d="M171.91,24.66c.44,0,.86.08,1.29.11s.58-.2.58-.4-.26-.38-.58-.41-.85-.1-1.29-.1c-.75,0-.75.79,0,.8Z"/><path class="cls-26" d="M175.46,26.68l1.21,0c.75,0,.75-.8,0-.8l-1.21,0c-.75,0-.75.8,0,.81Z"/><path class="cls-26" d="M177.45,25.22a.42.42,0,0,1-.22.11c.12,0-.14,0,0,0h.26l.49,0c.32,0,.59-.19.59-.4s-.27-.4-.59-.4c-.55,0-1.19-.14-1.55.25-.17.18-.06.44.21.55a.78.78,0,0,0,.8-.14Z"/><path class="cls-26" d="M180.64,26.89c.41,0,.85-.12,1.25-.07.73.11,1.05-.66.31-.77a11.57,11.57,0,0,0-1.56,0c-.75,0-.75.78,0,.8Z"/><path class="cls-26" d="M181.73,25.29a2.69,2.69,0,0,0,1,0c.3-.07.49-.28.4-.5a.63.63,0,0,0-.71-.28l-.16,0c-.06,0-.05,0,0,0h-.27c-.17,0,.12,0,0,0a.64.64,0,0,0-.71.28c-.09.21.1.43.4.49Z"/><path class="cls-26" d="M190.58,25.33a9.81,9.81,0,0,0,1.21-.06c.31-.05.48-.3.4-.5a.64.64,0,0,0-.72-.28,6.55,6.55,0,0,1-.89,0c-.32,0-.59.18-.59.4s.27.4.59.4Z"/><path class="cls-26" d="M185.94,26.33h.78c.32,0,.59-.18.59-.4s-.27-.41-.59-.41h-.78c-.32,0-.58.19-.58.41s.26.4.58.4Z"/><path class="cls-26" d="M197.82,26.39h.12c-.17,0,0,0,0,0l.42,0c.31,0,.49-.3.41-.49a.66.66,0,0,0-.72-.29s-.18,0,0,0h-.13l-.4,0c-.31.05-.49.29-.4.49a.64.64,0,0,0,.71.28Z"/><path class="cls-22" d="M172.4,25.52c-11.38-.19-20.29.54-23.57,4.43-.89,1-1.29,3.6-1.32,4.89C147.33,43.57,156,48,171,48c20.56,0,27.46-5.17,28.86-9.76.72-2.37.72-7-1.62-9.17C195.16,26.24,187.16,25.77,172.4,25.52Z"/><path class="cls-23" d="M172,21.08c-14.43-.24-24.17,5.62-23.8,11.69s7.39,10.8,22.36,10.8c20.56,0,28.68-5.63,28.5-10.36S198.2,21.53,172,21.08Z"/><path class="cls-24" d="M199.1,33.31c-.18-4.73-.9-11.69-27.06-12.13-14.43-.25-24.17,5.62-23.8,11.69s7.39,10.79,22.36,10.79C191.16,43.66,199.28,38,199.1,33.31ZM170.89,42c-13.59,0-20.28-3.7-20.61-9.2s8.51-10.84,21.62-10.61c23.74.4,25.28,6.54,25.45,10.84S189.56,42,170.89,42Z"/><path class="cls-25" d="M173,24.88c-6.25,0-16.41,2-17.4,6.16-.86,3.6,4.59,8,17.95,8s20-5.39,19.14-8.38C191.5,26.69,185.57,24.81,173,24.88Z"/><path class="cls-5" d="M170.2,25.21l-.12.05a4.45,4.45,0,0,0,.41,3.7,10.14,10.14,0,0,0,2.29,3.09,8.41,8.41,0,0,0-.37-3.93C172,27.16,171.36,25.75,170.2,25.21Z"/><path class="cls-5" d="M173.7,31.82c2.2-1.36,4.28-3.89,4.11-6.24-2.5,1.49-4.56,3.75-4.56,6.39l.54-.24S173.7,31.75,173.7,31.82Z"/><path class="cls-5" d="M165,32.12c-2,.25-5.21.63-6.51,1.9h0c.24.34,3,.73,3.57.71a20.92,20.92,0,0,0,3.06-.24,13.8,13.8,0,0,0,5.68-2.06A16.17,16.17,0,0,0,165,32.12Z"/><path class="cls-5" d="M165.38,37.89h0a10.3,10.3,0,0,0,2.33-.35,9.7,9.7,0,0,0,2.09-1.31,5.26,5.26,0,0,0,1.29-1.7c.24-.47.21-1,.43-1.46C170.53,33.41,165.69,35.06,165.38,37.89Z"/><path class="cls-5" d="M180.29,34c-.89-.32-5.84-1.34-6.07-1h0c.36.7,3.11,2.53,4,2.93,2.24,1,5.29,1,6,1.4C183.85,35.8,181.93,34.59,180.29,34Z"/><path class="cls-5" d="M183.91,30.34a17.08,17.08,0,0,0-4.69.4,12.28,12.28,0,0,0-3.65,1.38s1.42.11,1.85.17a43.68,43.68,0,0,0,6.19.47A24.13,24.13,0,0,0,190,31.68,17.7,17.7,0,0,0,183.91,30.34Z"/><path class="cls-24" d="M154.8,43.37a8,8,0,0,1,.86.32.63.63,0,0,0,.79-.18.46.46,0,0,0-.2-.68,9.15,9.15,0,0,0-1.14-.42.59.59,0,0,0-.71.35.5.5,0,0,0,.4.61Z"/><path class="cls-24" d="M157.57,45.47c.33.08.64.2,1,.27a.59.59,0,0,0,.71-.35.49.49,0,0,0-.4-.61c-.33-.08-.64-.2-1-.27a.59.59,0,0,0-.71.35.5.5,0,0,0,.4.61Z"/><path class="cls-24" d="M159,44.36c.42,0,.84.09,1.26.13a.54.54,0,0,0,.58-.5c0-.29-.26-.47-.58-.5s-.84-.12-1.26-.13a.5.5,0,1,0,0,1Z"/><path class="cls-24" d="M162.46,46.86c.39,0,.79,0,1.19,0a.5.5,0,1,0,0-1c-.4,0-.8,0-1.19,0a.5.5,0,1,0,0,1Z"/><path class="cls-24" d="M164.42,45a.37.37,0,0,1-.22.15c.12,0-.13,0,0,0h.25l.49,0a.51.51,0,1,0,0-1c-.55,0-1.19-.17-1.54.32a.46.46,0,0,0,.21.68.63.63,0,0,0,.79-.18Z"/><path class="cls-24" d="M167.57,47.13A8.59,8.59,0,0,1,168.8,47c.73.14,1-.83.31-1a9.91,9.91,0,0,0-1.54.05.5.5,0,1,0,0,1Z"/><path class="cls-24" d="M168.65,45.14a2.11,2.11,0,0,0,1,0,.5.5,0,0,0,.4-.62.6.6,0,0,0-.71-.35l-.15,0c-.06,0-.05,0,0,0H169c-.17,0,.12,0,0,0a.59.59,0,0,0-.71.35.49.49,0,0,0,.4.61Z"/><path class="cls-24" d="M177.38,45.19a6.74,6.74,0,0,0,1.19-.08.5.5,0,0,0,.4-.62.61.61,0,0,0-.71-.35,5.2,5.2,0,0,1-.88,0,.51.51,0,1,0,0,1Z"/><path class="cls-24" d="M172.8,46.43h.77a.55.55,0,0,0,.58-.5.54.54,0,0,0-.58-.5h-.77a.55.55,0,0,0-.58.5.56.56,0,0,0,.58.5Z"/><path class="cls-24" d="M184.53,46.51l.11,0c-.16,0,0,0,0,0l.42-.05a.49.49,0,0,0,.4-.61.6.6,0,0,0-.71-.35s-.18,0,0,0h-.13l-.39,0a.5.5,0,0,0-.4.62.61.61,0,0,0,.71.35Z"/><path class="cls-24" d="M148.66,39.61l.11.1c-.11-.11,0,0,0,0L149,40a.65.65,0,0,0,.79.18.47.47,0,0,0,.2-.69,2.79,2.79,0,0,0-.47-.57.66.66,0,0,0-.82,0,.46.46,0,0,0,0,.71Z"/><path class="cls-24" d="M151,41a2.58,2.58,0,0,1,.54.3.64.64,0,0,0,.79-.18.45.45,0,0,0,.06-.39.58.58,0,0,0-.27-.29,2.19,2.19,0,0,0-.54-.3.67.67,0,0,0-.44-.05.54.54,0,0,0-.35.23A.47.47,0,0,0,151,41Z"/><path class="cls-22" d="M211.7,25.13c-10-4.68-18.34-7.54-23.31-5.39-1.34.58-3,2.7-3.74,3.83-4.76,7.69.61,15.07,13.93,21,18.29,8.14,27.15,6.27,30.81,2.74,1.89-1.82,4.33-5.93,3.39-8.8C231.57,34.78,224.7,31.19,211.7,25.13Z"/><path class="cls-23" d="M213.72,21c-12.72-5.93-24.47-4.56-27.34,1s.89,12.54,14.21,18.46c18.3,8.14,28.48,6.35,30.81,2.07S236.75,31.79,213.72,21Z"/><path class="cls-24" d="M231.35,42.63c2.33-4.29,5.35-10.76-17.68-21.5-12.72-5.93-24.47-4.57-27.34,1s.89,12.54,14.21,18.46C218.83,48.7,229,46.91,231.35,42.63Zm-29.67-3.45c-12.09-5.38-16.09-11.32-13.49-16.35S201.47,16.56,213,22C233.93,31.7,232.07,37.78,230,41.66S218.29,46.57,201.68,39.18Z"/><path class="cls-25" d="M212.56,24.79c-5.58-2.44-15.65-4.71-18.73-1.4-2.66,2.86-.13,8.94,11.75,14.24s20.66,3.12,21.44.12C228.07,33.73,223.79,29.71,212.56,24.79Z"/><path class="cls-5" d="M209.9,24h-.13a4.76,4.76,0,0,0-1.59,3.45,9.11,9.11,0,0,0,.41,3.66,8.81,8.81,0,0,0,1.74-3.64C210.46,26.42,210.65,24.92,209.9,24Z"/><path class="cls-5" d="M209.54,31.25c2.67-.34,5.85-1.77,6.94-3.93-3,.34-6,1.54-7.42,3.89h.61S209.58,31.19,209.54,31.25Z"/><path class="cls-5" d="M201.61,28.06c-1.9-.56-5-1.5-6.8-.88h0c0,.39,2.31,1.84,2.81,2a19.61,19.61,0,0,0,2.85,1,14.56,14.56,0,0,0,6.13.41A14.7,14.7,0,0,0,201.61,28.06Z"/><path class="cls-5" d="M198.93,33.36h0a10.32,10.32,0,0,0,2.26.61,10.88,10.88,0,0,0,2.55-.34,6.52,6.52,0,0,0,2-1c.46-.33.71-.8,1.15-1.13C205.88,31.41,200.7,31,198.93,33.36Z"/><path class="cls-5" d="M214.26,35.79c-.63-.64-4.5-3.51-4.86-3.32h0c-.05.76,1.44,3.48,2,4.19,1.45,1.77,4.16,3,4.57,3.61C216.47,38.8,215.4,37,214.26,35.79Z"/><path class="cls-5" d="M219.4,34A16.35,16.35,0,0,0,215,32.47a13,13,0,0,0-4-.21s1.2.66,1.55.88A39.69,39.69,0,0,0,217.86,36a23.44,23.44,0,0,0,6.22,1.56A15.31,15.31,0,0,0,219.4,34Z"/><path class="cls-23" d="M186.64,34.05a7,7,0,0,1,.6.62.64.64,0,0,0,.79.16.47.47,0,0,0,.18-.7,10.13,10.13,0,0,0-.79-.82.66.66,0,0,0-.82,0,.47.47,0,0,0,0,.71Z"/><path class="cls-23" d="M188,37c.26.2.47.43.72.62a.66.66,0,0,0,.82,0,.45.45,0,0,0,0-.7c-.25-.2-.46-.43-.71-.62a.66.66,0,0,0-.82,0,.45.45,0,0,0,0,.7Z"/><path class="cls-23" d="M189.81,36.57c.38.18.71.42,1.06.62a.62.62,0,0,0,.78-.22.48.48,0,0,0-.25-.67c-.36-.2-.68-.44-1.06-.62-.65-.31-1.18.58-.53.89Z"/><path class="cls-23" d="M191.61,40.18l1,.5c.66.3,1.19-.59.53-.89l-1-.5c-.66-.3-1.19.59-.53.89Z"/><path class="cls-23" d="M194.31,39.34a.36.36,0,0,1-.27,0c.13,0-.12-.05,0,0l.22.11c.14.07.27.16.42.23a.63.63,0,0,0,.77-.22.46.46,0,0,0-.25-.67c-.48-.23-1-.63-1.53-.33a.47.47,0,0,0-.18.69.65.65,0,0,0,.8.15Z"/><path class="cls-23" d="M196,42.44a8.08,8.08,0,0,1,1.14.41c.57.41,1.36-.32.78-.73a9.89,9.89,0,0,0-1.39-.57c-.65-.32-1.17.57-.53.89Z"/><path class="cls-23" d="M198,41.1a2,2,0,0,0,.9.37.59.59,0,0,0,.68-.39.5.5,0,0,0-.44-.59l-.15,0h0l-.11,0-.13-.06c-.14-.07.09.07,0,0a.68.68,0,0,0-.82,0,.47.47,0,0,0,0,.71Z"/><path class="cls-23" d="M205.77,44.6a6.53,6.53,0,0,0,1.1.4.59.59,0,0,0,.68-.39.51.51,0,0,0-.44-.59,4.77,4.77,0,0,1-.82-.31.63.63,0,0,0-.77.22.47.47,0,0,0,.25.67Z"/><path class="cls-23" d="M201,43.89l.69.3a.61.61,0,0,0,.77-.21.48.48,0,0,0-.25-.68l-.68-.3a.62.62,0,0,0-.78.22.48.48,0,0,0,.25.67Z"/><path class="cls-23" d="M211.44,48.6l.11,0c-.16,0,0,0,0,0l.4.12a.58.58,0,0,0,.68-.39c.07-.28-.14-.51-.44-.59h0l-.12,0-.37-.11A.59.59,0,0,0,211,48a.5.5,0,0,0,.45.59Z"/><path class="cls-23" d="M183.16,28.27a.5.5,0,0,0,0,.13c0-.14,0,0,0,0l0,.27a.56.56,0,0,0,.6.48.54.54,0,0,0,.55-.53,3.22,3.22,0,0,0-.12-.69.62.62,0,0,0-.73-.33.49.49,0,0,0-.37.63Z"/><path class="cls-23" d="M184.52,30.43a1.92,1.92,0,0,1,.32.48.65.65,0,0,0,.8.15.5.5,0,0,0,.25-.32.45.45,0,0,0-.08-.37,1.92,1.92,0,0,0-.32-.48.62.62,0,0,0-.79-.15.46.46,0,0,0-.18.69Z"/><path class="cls-27" d="M191.22,41l.81,4.1a19.11,19.11,0,0,0,2-.9,15.81,15.81,0,0,1,1.73-.8Z"/><path class="cls-22" d="M185.54,9.48C174,9.33,165,9.92,161.65,13.05c-.89.84-1.3,2.91-1.33,3.94-.18,7,8.59,10.61,23.76,10.61,20.83,0,27.82-4.17,29.23-7.87.74-1.9.73-5.63-1.64-7.39C208.6,10.06,200.49,9.68,185.54,9.48Z"/><path class="cls-23" d="M185.17,5.91c-14.62-.2-24.48,4.52-24.12,9.41s7.5,8.7,22.66,8.7c20.83,0,29.06-4.53,28.87-8.34S211.67,6.26,185.17,5.91Z"/><path class="cls-24" d="M212.58,15.76c-.18-3.82-.91-9.42-27.41-9.78-14.62-.19-24.48,4.53-24.12,9.42s7.5,8.7,22.66,8.7C204.54,24.1,212.77,19.57,212.58,15.76Zm-28.57,7c-13.77,0-20.55-3-20.89-7.42S171.74,6.6,185,6.78c24.06.32,25.62,5.27,25.79,8.74S202.92,22.75,184,22.75Z"/><path class="cls-25" d="M186.14,9c-6.34,0-16.63,1.62-17.64,5-.87,2.9,4.65,6.45,18.19,6.46s20.28-4.34,19.39-6.75C204.88,10.43,198.88,8.91,186.14,9Z"/><path class="cls-5" d="M183.31,9.24l-.12,0a3,3,0,0,0,.41,3,9,9,0,0,0,2.31,2.49,5.37,5.37,0,0,0-.36-3.17A4.68,4.68,0,0,0,183.31,9.24Z"/><path class="cls-5" d="M186.85,14.56c2.23-1.1,4.34-3.14,4.17-5-2.54,1.2-4.62,3-4.62,5.15l.55-.2S186.86,14.5,186.85,14.56Z"/><path class="cls-5" d="M178,14.8c-2,.2-5.28.51-6.6,1.53h0a13.72,13.72,0,0,0,3.62.58,26.6,26.6,0,0,0,3.1-.2,16.4,16.4,0,0,0,5.75-1.66A20.59,20.59,0,0,0,178,14.8Z"/><path class="cls-5" d="M178.42,19.45h0a12.83,12.83,0,0,0,2.36-.28,10.74,10.74,0,0,0,2.12-1.05,4.83,4.83,0,0,0,1.31-1.37c.24-.39.21-.81.44-1.18C183.64,15.84,178.73,17.17,178.42,19.45Z"/><path class="cls-5" d="M193.53,16.31c-.9-.26-5.92-1.08-6.15-.84h0c.36.57,3.15,2,4.06,2.37,2.26.8,5.35.82,6,1.13C197.13,17.76,195.19,16.79,193.53,16.31Z"/><path class="cls-5" d="M197.2,13.37a21.5,21.5,0,0,0-4.76.32,14.6,14.6,0,0,0-3.69,1.11s1.43.09,1.87.14a56.3,56.3,0,0,0,6.27.37,29.22,29.22,0,0,0,6.44-.87A22.44,22.44,0,0,0,197.2,13.37Z"/><path class="cls-26" d="M167.71,23.87a8.65,8.65,0,0,1,.87.25.75.75,0,0,0,.8-.14.34.34,0,0,0-.21-.55,10.9,10.9,0,0,0-1.15-.34.66.66,0,0,0-.72.28c-.09.22.11.43.41.5Z"/><path class="cls-26" d="M170.51,25.56c.33.06.65.16,1,.22a.68.68,0,0,0,.72-.28c.08-.21-.11-.44-.41-.5s-.65-.16-1-.22a.67.67,0,0,0-.72.29c-.08.21.1.44.41.49Z"/><path class="cls-26" d="M171.91,24.66c.44,0,.86.08,1.29.11s.58-.2.58-.4-.26-.38-.58-.41-.85-.1-1.29-.1c-.75,0-.75.79,0,.8Z"/><path class="cls-26" d="M175.46,26.68l1.21,0c.75,0,.75-.8,0-.8l-1.21,0c-.75,0-.75.8,0,.81Z"/><path class="cls-26" d="M177.45,25.22a.42.42,0,0,1-.22.11c.12,0-.14,0,0,0h.26l.49,0c.32,0,.59-.19.59-.4s-.27-.4-.59-.4c-.55,0-1.19-.14-1.55.25-.17.18-.06.44.21.55a.78.78,0,0,0,.8-.14Z"/><path class="cls-26" d="M180.64,26.89c.41,0,.85-.12,1.25-.07.73.11,1.05-.66.31-.77a11.57,11.57,0,0,0-1.56,0c-.75,0-.75.78,0,.8Z"/><path class="cls-26" d="M181.73,25.29a2.69,2.69,0,0,0,1,0c.3-.07.49-.28.4-.5a.63.63,0,0,0-.71-.28l-.16,0c-.06,0-.05,0,0,0h-.27c-.17,0,.12,0,0,0a.64.64,0,0,0-.71.28c-.09.21.1.43.4.49Z"/><path class="cls-26" d="M190.58,25.33a9.81,9.81,0,0,0,1.21-.06c.31-.05.48-.3.4-.5a.64.64,0,0,0-.72-.28,6.55,6.55,0,0,1-.89,0c-.32,0-.59.18-.59.4s.27.4.59.4Z"/><path class="cls-26" d="M185.94,26.33h.78c.32,0,.59-.18.59-.4s-.27-.41-.59-.41h-.78c-.32,0-.58.19-.58.41s.26.4.58.4Z"/><path class="cls-26" d="M197.82,26.39h.12c-.17,0,0,0,0,0l.42,0c.31,0,.49-.3.41-.49a.66.66,0,0,0-.72-.29s-.18,0,0,0h-.13l-.4,0c-.31.05-.49.29-.4.49a.64.64,0,0,0,.71.28Z"/><path class="cls-22" d="M172.4,25.52c-11.38-.19-20.29.54-23.57,4.43-.89,1-1.29,3.6-1.32,4.89C147.33,43.57,156,48,171,48c20.56,0,27.46-5.17,28.86-9.76.72-2.37.72-7-1.62-9.17C195.16,26.24,187.16,25.77,172.4,25.52Z"/><path class="cls-23" d="M172,21.08c-14.43-.24-24.17,5.62-23.8,11.69s7.39,10.8,22.36,10.8c20.56,0,28.68-5.63,28.5-10.36S198.2,21.53,172,21.08Z"/><path class="cls-24" d="M199.1,33.31c-.18-4.73-.9-11.69-27.06-12.13-14.43-.25-24.17,5.62-23.8,11.69s7.39,10.79,22.36,10.79C191.16,43.66,199.28,38,199.1,33.31ZM170.89,42c-13.59,0-20.28-3.7-20.61-9.2s8.51-10.84,21.62-10.61c23.74.4,25.28,6.54,25.45,10.84S189.56,42,170.89,42Z"/><path class="cls-25" d="M173,24.88c-6.25,0-16.41,2-17.4,6.16-.86,3.6,4.59,8,17.95,8s20-5.39,19.14-8.38C191.5,26.69,185.57,24.81,173,24.88Z"/><path class="cls-5" d="M170.2,25.21l-.12.05a4.45,4.45,0,0,0,.41,3.7,10.14,10.14,0,0,0,2.29,3.09,8.41,8.41,0,0,0-.37-3.93C172,27.16,171.36,25.75,170.2,25.21Z"/><path class="cls-5" d="M173.7,31.82c2.2-1.36,4.28-3.89,4.11-6.24-2.5,1.49-4.56,3.75-4.56,6.39l.54-.24S173.7,31.75,173.7,31.82Z"/><path class="cls-5" d="M165,32.12c-2,.25-5.21.63-6.51,1.9h0c.24.34,3,.73,3.57.71a20.92,20.92,0,0,0,3.06-.24,13.8,13.8,0,0,0,5.68-2.06A16.17,16.17,0,0,0,165,32.12Z"/><path class="cls-5" d="M165.38,37.89h0a10.3,10.3,0,0,0,2.33-.35,9.7,9.7,0,0,0,2.09-1.31,5.26,5.26,0,0,0,1.29-1.7c.24-.47.21-1,.43-1.46C170.53,33.41,165.69,35.06,165.38,37.89Z"/><path class="cls-5" d="M180.29,34c-.89-.32-5.84-1.34-6.07-1h0c.36.7,3.11,2.53,4,2.93,2.24,1,5.29,1,6,1.4C183.85,35.8,181.93,34.59,180.29,34Z"/><path class="cls-5" d="M183.91,30.34a17.08,17.08,0,0,0-4.69.4,12.28,12.28,0,0,0-3.65,1.38s1.42.11,1.85.17a43.68,43.68,0,0,0,6.19.47A24.13,24.13,0,0,0,190,31.68,17.7,17.7,0,0,0,183.91,30.34Z"/><path class="cls-24" d="M154.8,43.37a8,8,0,0,1,.86.32.63.63,0,0,0,.79-.18.46.46,0,0,0-.2-.68,9.15,9.15,0,0,0-1.14-.42.59.59,0,0,0-.71.35.5.5,0,0,0,.4.61Z"/><path class="cls-24" d="M157.57,45.47c.33.08.64.2,1,.27a.59.59,0,0,0,.71-.35.49.49,0,0,0-.4-.61c-.33-.08-.64-.2-1-.27a.59.59,0,0,0-.71.35.5.5,0,0,0,.4.61Z"/><path class="cls-24" d="M159,44.36c.42,0,.84.09,1.26.13a.54.54,0,0,0,.58-.5c0-.29-.26-.47-.58-.5s-.84-.12-1.26-.13a.5.5,0,1,0,0,1Z"/><path class="cls-24" d="M162.46,46.86c.39,0,.79,0,1.19,0a.5.5,0,1,0,0-1c-.4,0-.8,0-1.19,0a.5.5,0,1,0,0,1Z"/><path class="cls-24" d="M164.42,45a.37.37,0,0,1-.22.15c.12,0-.13,0,0,0h.25l.49,0a.51.51,0,1,0,0-1c-.55,0-1.19-.17-1.54.32a.46.46,0,0,0,.21.68.63.63,0,0,0,.79-.18Z"/><path class="cls-24" d="M167.57,47.13A8.59,8.59,0,0,1,168.8,47c.73.14,1-.83.31-1a9.91,9.91,0,0,0-1.54.05.5.5,0,1,0,0,1Z"/><path class="cls-24" d="M168.65,45.14a2.11,2.11,0,0,0,1,0,.5.5,0,0,0,.4-.62.6.6,0,0,0-.71-.35l-.15,0c-.06,0-.05,0,0,0H169c-.17,0,.12,0,0,0a.59.59,0,0,0-.71.35.49.49,0,0,0,.4.61Z"/><path class="cls-24" d="M177.38,45.19a6.74,6.74,0,0,0,1.19-.08.5.5,0,0,0,.4-.62.61.61,0,0,0-.71-.35,5.2,5.2,0,0,1-.88,0,.51.51,0,1,0,0,1Z"/><path class="cls-24" d="M172.8,46.43h.77a.55.55,0,0,0,.58-.5.54.54,0,0,0-.58-.5h-.77a.55.55,0,0,0-.58.5.56.56,0,0,0,.58.5Z"/><path class="cls-24" d="M184.53,46.51l.11,0c-.16,0,0,0,0,0l.42-.05a.49.49,0,0,0,.4-.61.6.6,0,0,0-.71-.35s-.18,0,0,0h-.13l-.39,0a.5.5,0,0,0-.4.62.61.61,0,0,0,.71.35Z"/><path class="cls-24" d="M148.66,39.61l.11.1c-.11-.11,0,0,0,0L149,40a.65.65,0,0,0,.79.18.47.47,0,0,0,.2-.69,2.79,2.79,0,0,0-.47-.57.66.66,0,0,0-.82,0,.46.46,0,0,0,0,.71Z"/><path class="cls-24" d="M151,41a2.58,2.58,0,0,1,.54.3.64.64,0,0,0,.79-.18.45.45,0,0,0,.06-.39.58.58,0,0,0-.27-.29,2.19,2.19,0,0,0-.54-.3.67.67,0,0,0-.44-.05.54.54,0,0,0-.35.23A.47.47,0,0,0,151,41Z"/><path class="cls-22" d="M211.7,25.13c-10-4.68-18.34-7.54-23.31-5.39-1.34.58-3,2.7-3.74,3.83-4.76,7.69.61,15.07,13.93,21,18.29,8.14,27.15,6.27,30.81,2.74,1.89-1.82,4.33-5.93,3.39-8.8C231.57,34.78,224.7,31.19,211.7,25.13Z"/><path class="cls-23" d="M213.72,21c-12.72-5.93-24.47-4.56-27.34,1s.89,12.54,14.21,18.46c18.3,8.14,28.48,6.35,30.81,2.07S236.75,31.79,213.72,21Z"/><path class="cls-24" d="M231.35,42.63c2.33-4.29,5.35-10.76-17.68-21.5-12.72-5.93-24.47-4.57-27.34,1s.89,12.54,14.21,18.46C218.83,48.7,229,46.91,231.35,42.63Zm-29.67-3.45c-12.09-5.38-16.09-11.32-13.49-16.35S201.47,16.56,213,22C233.93,31.7,232.07,37.78,230,41.66S218.29,46.57,201.68,39.18Z"/><path class="cls-25" d="M212.56,24.79c-5.58-2.44-15.65-4.71-18.73-1.4-2.66,2.86-.13,8.94,11.75,14.24s20.66,3.12,21.44.12C228.07,33.73,223.79,29.71,212.56,24.79Z"/><path class="cls-5" d="M209.9,24h-.13a4.76,4.76,0,0,0-1.59,3.45,9.11,9.11,0,0,0,.41,3.66,8.81,8.81,0,0,0,1.74-3.64C210.46,26.42,210.65,24.92,209.9,24Z"/><path class="cls-5" d="M209.54,31.25c2.67-.34,5.85-1.77,6.94-3.93-3,.34-6,1.54-7.42,3.89h.61S209.58,31.19,209.54,31.25Z"/><path class="cls-5" d="M201.61,28.06c-1.9-.56-5-1.5-6.8-.88h0c0,.39,2.31,1.84,2.81,2a19.61,19.61,0,0,0,2.85,1,14.56,14.56,0,0,0,6.13.41A14.7,14.7,0,0,0,201.61,28.06Z"/><path class="cls-5" d="M198.93,33.36h0a10.32,10.32,0,0,0,2.26.61,10.88,10.88,0,0,0,2.55-.34,6.52,6.52,0,0,0,2-1c.46-.33.71-.8,1.15-1.13C205.88,31.41,200.7,31,198.93,33.36Z"/><path class="cls-5" d="M214.26,35.79c-.63-.64-4.5-3.51-4.86-3.32h0c-.05.76,1.44,3.48,2,4.19,1.45,1.77,4.16,3,4.57,3.61C216.47,38.8,215.4,37,214.26,35.79Z"/><path class="cls-5" d="M219.4,34A16.35,16.35,0,0,0,215,32.47a13,13,0,0,0-4-.21s1.2.66,1.55.88A39.69,39.69,0,0,0,217.86,36a23.44,23.44,0,0,0,6.22,1.56A15.31,15.31,0,0,0,219.4,34Z"/><path class="cls-23" d="M186.64,34.05a7,7,0,0,1,.6.62.64.64,0,0,0,.79.16.47.47,0,0,0,.18-.7,10.13,10.13,0,0,0-.79-.82.66.66,0,0,0-.82,0,.47.47,0,0,0,0,.71Z"/><path class="cls-23" d="M188,37c.26.2.47.43.72.62a.66.66,0,0,0,.82,0,.45.45,0,0,0,0-.7c-.25-.2-.46-.43-.71-.62a.66.66,0,0,0-.82,0,.45.45,0,0,0,0,.7Z"/><path class="cls-23" d="M189.81,36.57c.38.18.71.42,1.06.62a.62.62,0,0,0,.78-.22.48.48,0,0,0-.25-.67c-.36-.2-.68-.44-1.06-.62-.65-.31-1.18.58-.53.89Z"/><path class="cls-23" d="M191.61,40.18l1,.5c.66.3,1.19-.59.53-.89l-1-.5c-.66-.3-1.19.59-.53.89Z"/><path class="cls-23" d="M194.31,39.34a.36.36,0,0,1-.27,0c.13,0-.12-.05,0,0l.22.11c.14.07.27.16.42.23a.63.63,0,0,0,.77-.22.46.46,0,0,0-.25-.67c-.48-.23-1-.63-1.53-.33a.47.47,0,0,0-.18.69.65.65,0,0,0,.8.15Z"/><path class="cls-23" d="M196,42.44a8.08,8.08,0,0,1,1.14.41c.57.41,1.36-.32.78-.73a9.89,9.89,0,0,0-1.39-.57c-.65-.32-1.17.57-.53.89Z"/><path class="cls-23" d="M198,41.1a2,2,0,0,0,.9.37.59.59,0,0,0,.68-.39.5.5,0,0,0-.44-.59l-.15,0h0l-.11,0-.13-.06c-.14-.07.09.07,0,0a.68.68,0,0,0-.82,0,.47.47,0,0,0,0,.71Z"/><path class="cls-23" d="M205.77,44.6a6.53,6.53,0,0,0,1.1.4.59.59,0,0,0,.68-.39.51.51,0,0,0-.44-.59,4.77,4.77,0,0,1-.82-.31.63.63,0,0,0-.77.22.47.47,0,0,0,.25.67Z"/><path class="cls-23" d="M201,43.89l.69.3a.61.61,0,0,0,.77-.21.48.48,0,0,0-.25-.68l-.68-.3a.62.62,0,0,0-.78.22.48.48,0,0,0,.25.67Z"/><path class="cls-23" d="M211.44,48.6l.11,0c-.16,0,0,0,0,0l.4.12a.58.58,0,0,0,.68-.39c.07-.28-.14-.51-.44-.59h0l-.12,0-.37-.11A.59.59,0,0,0,211,48a.5.5,0,0,0,.45.59Z"/><path class="cls-23" d="M183.16,28.27a.5.5,0,0,0,0,.13c0-.14,0,0,0,0l0,.27a.56.56,0,0,0,.6.48.54.54,0,0,0,.55-.53,3.22,3.22,0,0,0-.12-.69.62.62,0,0,0-.73-.33.49.49,0,0,0-.37.63Z"/><path class="cls-23" d="M184.52,30.43a1.92,1.92,0,0,1,.32.48.65.65,0,0,0,.8.15.5.5,0,0,0,.25-.32.45.45,0,0,0-.08-.37,1.92,1.92,0,0,0-.32-.48.62.62,0,0,0-.79-.15.46.46,0,0,0-.18.69Z"/><path class="cls-27" d="M191.22,41l.81,4.1a19.11,19.11,0,0,0,2-.9,15.81,15.81,0,0,1,1.73-.8Z"/></g></g></g></svg>