<svg xmlns="http://www.w3.org/2000/svg" viewBox="0 0 434.5 150.87"><defs><style>.cls-1,.cls-4{fill:#333;}.cls-1{opacity:0.21;}.cls-2{fill:#262324;}.cls-3{fill:#4c4a4a;}.cls-5{fill:#ffa944;}.cls-6{fill:#ffeab7;}.cls-7{fill:#ffd38d;}.cls-8{fill:#eac083;}.cls-9{fill:#f68d32;}</style></defs><title>Asset 27</title><g id="Layer_2" data-name="Layer 2"><g id="Layer_1-2" data-name="Layer 1"><ellipse class="cls-1" cx="218.19" cy="109.07" rx="216.3" ry="41.8"/><ellipse class="cls-2" cx="217.25" cy="82.21" rx="184.14" ry="56.54"/><path class="cls-3" d="M0,69.14c0,28.76,97.27,52.07,217.25,52.07S434.5,97.9,434.5,69.14,337.23,17.08,217.25,17.08,0,40.39,0,69.14Z"/><ellipse class="cls-4" cx="218.88" cy="62.1" rx="167.95" ry="40.25"/><path class="cls-4" d="M230.25,110.47C110.26,110.47,13,87.15,13,58.4a15.22,15.22,0,0,1,3.28-9.06C5.8,55.45,0,62.13,0,69.14c0,28.76,97.27,52.07,217.25,52.07,107.09,0,196.08-18.57,214-43C398.71,97.13,321,110.47,230.25,110.47Z"/><path class="cls-5" d="M122.72,20.11c-7,3.07-13.75,25.36-10.51,31.7,2.5,4.92,10.06,24.27,110.05,24.77,114.45.58,113.07-27,113.07-30.86s-.81-21-15.36-26.88C311.93,15.62,162.59,2.69,122.72,20.11Z"/><path class="cls-6" d="M216.62.07c-73.37,1.2-100,16.26-101.48,34.85S144,66.53,227.73,66.07C310,65.61,327.36,49.57,330,39.57,335.07,19.87,301.81-1.33,216.62.07Z"/><path class="cls-7" d="M126.34,38.78A44.48,44.48,0,0,0,136.67,38c1.85-.44,1.06-2.68-.8-2.24a40.92,40.92,0,0,1-9.53.66c-1.94,0-1.94,2.32,0,2.32Z"/><path class="cls-7" d="M150.5,33.51a50.39,50.39,0,0,1,7.29-.65c2.38,0,2.39-2.35,0-2.33a58,58,0,0,0-8.27.74c-2.32.36-1.34,2.6,1,2.24Z"/><path class="cls-7" d="M134.58,29.14h4.88c1.48,0,2.71-.53,2.71-1.16s-1.23-1.17-2.71-1.17h-4.88c-1.48,0-2.72.53-2.72,1.17s1.24,1.16,2.72,1.16Z"/><path class="cls-7" d="M169.45,22.75c3.53,0,7-.05,10.5-.39,2.35-.23,1.35-2.47-1-2.24-3.14.3-6.33.3-9.51.3-2.38,0-2.38,2.33,0,2.33Z"/><path class="cls-7" d="M148.9,19.26a14.67,14.67,0,0,0,4.27-.51c.91-.26,1.14-1.08.66-1.59a2.6,2.6,0,0,0-2.53-.41,8.63,8.63,0,0,1-2.4.19c-1,0-1.85.53-1.85,1.16s.84,1.16,1.85,1.16Z"/><path class="cls-7" d="M174.28,11.78a12.7,12.7,0,0,1,2.95-.19c2.39,0,2.39-2.32,0-2.32a17.44,17.44,0,0,0-4.82.51c-.92.26-1.14,1.08-.67,1.59a2.62,2.62,0,0,0,2.54.41Z"/><path class="cls-7" d="M216.67,18.22h8.89c2.39,0,2.39-2.33,0-2.33h-8.89c-2.38,0-2.38,2.33,0,2.33Z"/><path class="cls-7" d="M193.9,30.07a65.91,65.91,0,0,0,7.71-.39c2.35-.28,1.35-2.52-1-2.24a58,58,0,0,1-6.73.3c-2.39,0-2.39,2.33,0,2.33Z"/><path class="cls-7" d="M197.05,14.92a10.76,10.76,0,0,1,4.13-.23c2.3.42,3.28-1.82,1-2.24a16.05,16.05,0,0,0-7,.46c-2.17.64-.29,2.64,1.86,2Z"/><path class="cls-7" d="M208.34,7.41h5c2.39,0,2.39-2.32,0-2.32h-5c-2.39,0-2.39,2.32,0,2.32Z"/><path class="cls-7" d="M249.51,14.69c3.77.71,7.75.43,11.61.74,2.36.19,2.33-2.14,0-2.33-3.53-.28-7.19,0-10.62-.65-2.29-.44-3.27,1.81-1,2.24Z"/><path class="cls-7" d="M241.67,29h5c2.39,0,2.39-2.32,0-2.32h-5c-2.38,0-2.38,2.32,0,2.32Z"/><path class="cls-7" d="M211.68,44.71h6.11c2.38,0,2.38-2.33,0-2.33h-6.11c-2.39,0-2.39,2.33,0,2.33Z"/><path class="cls-7" d="M156.68,46.45h2.22c1,0,1.85-.53,1.85-1.16s-.84-1.16-1.85-1.16h-2.22c-1,0-1.85.53-1.85,1.16s.84,1.16,1.85,1.16Z"/><path class="cls-7" d="M177.23,41.92c2.39,0,2.39-2.32,0-2.32s-2.39,2.32,0,2.32Z"/><path class="cls-7" d="M192.79,59.35h5c2.39,0,2.39-2.33,0-2.33h-5c-2.39,0-2.39,2.33,0,2.33Z"/><path class="cls-7" d="M257.23,57.26c2.6,0,5.17-.33,7.78-.35,2.38,0,2.39-2.35,0-2.33-2.61,0-5.18.33-7.78.35-2.39,0-2.39,2.35,0,2.33Z"/><path class="cls-7" d="M245,42.27h5c2.39,0,2.39-2.33,0-2.33h-5c-2.39,0-2.39,2.33,0,2.33Z"/><path class="cls-7" d="M293.83,46.76c4.06-.34,8.16-.36,12.22-.7,2.36-.2,1.35-2.44-1-2.24-4.06.34-8.16.35-12.22.7-2.36.2-1.35,2.43,1,2.24Z"/><path class="cls-7" d="M269.94,35.25a43.43,43.43,0,0,1,6.18-.65c2.38,0,2.39-2.35,0-2.32A49.77,49.77,0,0,0,269,33c-2.32.37-1.33,2.61,1,2.24Z"/><path class="cls-7" d="M303.34,31.46h4.44c2.39,0,2.39-2.32,0-2.32h-4.44c-2.39,0-2.39,2.32,0,2.32Z"/><path class="cls-7" d="M279.32,21.09a34.31,34.31,0,0,1,8.09-.29c1.86.16,2.39-2.14.52-2.3a38.26,38.26,0,0,0-8.87.3c-1.87.3-1.62,2.59.26,2.29Z"/><path class="cls-7" d="M243.34,6.71a17.39,17.39,0,0,0,4.82-.5c.92-.27,1.14-1.09.67-1.59a2.62,2.62,0,0,0-2.54-.42,12.7,12.7,0,0,1-2.95.19c-2.39,0-2.39,2.32,0,2.32Z"/><path class="cls-7" d="M284.45,12.64h3.89c2.39,0,2.39-2.32,0-2.32h-3.89c-2.39,0-2.39,2.32,0,2.32Z"/><path class="cls-8" d="M200.51,35.16q0,.17-.33.33c.1-.05-.26,0,0,0-.3,0-.11,0,0,0h.2c.51,0,.93-.27.93-.59s-.42-.58-.93-.58a3.37,3.37,0,0,0-1,.12.81.81,0,0,0-.65.7c0,.31.43.58.92.58s.9-.27.93-.58Z"/><path class="cls-8" d="M223.66,31.55h1.85c1.19,0,1.19-1.16,0-1.16h-1.85c-1.2,0-1.2,1.16,0,1.16Z"/><path class="cls-8" d="M211,23.48c-.12.07.13,0,0,0l.3,0c.3,0,.6,0,.89,0,1.2,0,1.2-1.16,0-1.16a5.22,5.22,0,0,0-2.5.4.45.45,0,0,0,0,.82,1.36,1.36,0,0,0,1.31,0Z"/><path class="cls-8" d="M254.77,21.1h1.48c.5,0,.92-.27.92-.58s-.42-.58-.92-.58h-1.48c-.51,0-.93.26-.93.58s.42.58.93.58Z"/><path class="cls-8" d="M239.21,10.64h1.85c1.2,0,1.2-1.16,0-1.16h-1.85c-1.19,0-1.19,1.16,0,1.16Z"/><path class="cls-8" d="M264.77,10.87h.37c.5,0,.92-.26.92-.58s-.42-.58-.92-.58h-.37c-.51,0-.93.26-.93.58s.42.58.93.58Z"/><path class="cls-8" d="M168.84,15.29h1.48c.51,0,.93-.27.93-.58s-.42-.58-.93-.58h-1.48c-.5,0-.93.26-.93.58s.43.58.93.58Z"/><path class="cls-8" d="M188.57,8.93a6.35,6.35,0,0,1,1.75-.15c1.2,0,1.2-1.16,0-1.16a9.54,9.54,0,0,0-2.69.31c-.46.13-.57.54-.33.79a1.27,1.27,0,0,0,1.27.21Z"/><path class="cls-8" d="M155.88,9.71a11.05,11.05,0,0,0,3.06-.31c.46-.13.56-.54.33-.8A1.32,1.32,0,0,0,158,8.39a7.86,7.86,0,0,1-2.12.16c-1.2,0-1.2,1.16,0,1.16Z"/><path class="cls-8" d="M131.53,20.79a6,6,0,0,1,1.75-.16c1.2,0,1.2-1.16,0-1.16a9.58,9.58,0,0,0-2.69.31c-.45.14-.56.54-.33.8a1.32,1.32,0,0,0,1.27.21Z"/><path class="cls-8" d="M148.47,22.26a6.27,6.27,0,0,0,.87-.11l.39-.08.22,0c.23,0-.2,0,0,0,.5,0,.93-.26.93-.58s-.42-.6-.93-.59a5.06,5.06,0,0,0-.87.12l-.39.08-.22,0c-.23,0,.2,0,0,0-.5,0-.93.25-.93.58s.42.59.93.58Z"/><path class="cls-8" d="M125.14,30.39a7.63,7.63,0,0,0,2.31-.31c.46-.14.58-.54.34-.79a1.3,1.3,0,0,0-1.27-.21,3.91,3.91,0,0,1-1.38.15c-1.2,0-1.2,1.16,0,1.16Z"/><path class="cls-8" d="M238.1,38.76H240c1.2,0,1.2-1.16,0-1.16H238.1c-1.19,0-1.19,1.16,0,1.16Z"/><path class="cls-8" d="M270.45,39.2a16.24,16.24,0,0,0,3.21.26c1.19,0,1.19-1.17,0-1.17a13.62,13.62,0,0,1-2.72-.21c-1.14-.23-1.63.9-.49,1.12Z"/><path class="cls-8" d="M276.62,27.14a5.26,5.26,0,0,0,2.51-.4.45.45,0,0,0,0-.82,1.33,1.33,0,0,0-1.31,0c.12-.07-.14,0,0,0l-.3,0c-.3,0-.6,0-.89,0-1.19,0-1.19,1.16,0,1.16Z"/><path class="cls-8" d="M304.27,28.05a15.9,15.9,0,0,1,3.09-.21c1.19,0,1.19-1.17,0-1.17a18.53,18.53,0,0,0-3.58.26c-1.14.22-.65,1.34.49,1.12Z"/><path class="cls-8" d="M293.66,19.7h1.85c1.19,0,1.19-1.16,0-1.16h-1.85c-1.2,0-1.2,1.16,0,1.16Z"/><path class="cls-8" d="M295.51,13.89h.6c.06,0,.33.06.09,0l.11,0c.19.07-.15-.09,0,0a1.39,1.39,0,0,0,1.3,0,.45.45,0,0,0,0-.83,4.07,4.07,0,0,0-2.13-.4c-.51,0-.93.27-.93.58s.42.58.93.58Z"/><path class="cls-8" d="M315.14,25.28h3c1.2,0,1.2-1.16,0-1.16h-3c-1.2,0-1.2,1.16,0,1.16Z"/><path class="cls-8" d="M309.68,18a9.84,9.84,0,0,1,2.5-.16c1.19,0,1.19-1.16,0-1.16a12.5,12.5,0,0,0-3.43.31c-.46.13-.57.55-.34.8a1.32,1.32,0,0,0,1.27.21Z"/><path class="cls-8" d="M124.39,44.34h1.86c1.19,0,1.19-1.17,0-1.17h-1.86c-1.19,0-1.19,1.17,0,1.17Z"/><path class="cls-8" d="M151.06,37.36a5.26,5.26,0,0,0,2.51-.4.45.45,0,0,0,0-.82,1.38,1.38,0,0,0-1.31,0c.12-.07-.13,0,0,0l-.3,0c-.29,0-.59,0-.89,0-1.19,0-1.19,1.17,0,1.16Z"/><path class="cls-8" d="M171.06,27.14h2.59c1.2,0,1.2-1.16,0-1.16h-2.59c-1.19,0-1.19,1.16,0,1.16Z"/><path class="cls-8" d="M187,15.75h.74c.5,0,.93-.26.93-.58s-.43-.58-.93-.58H187c-.51,0-.93.26-.93.58s.42.58.93.58Z"/><path class="cls-8" d="M198.47,3.67a11.45,11.45,0,0,0,3.06-.31c.46-.14.57-.55.33-.8a1.3,1.3,0,0,0-1.26-.21,7.91,7.91,0,0,1-2.13.16c-1.19,0-1.19,1.16,0,1.16Z"/><path class="cls-8" d="M228.1,3.2h1.48c.51,0,.93-.26.93-.58s-.42-.58-.93-.58H228.1c-.5,0-.93.26-.93.58s.43.58.93.58Z"/><path class="cls-8" d="M172.54,54.33H174c.5,0,.92-.26.92-.58s-.42-.58-.92-.58h-1.49c-.5,0-.92.26-.92.58s.42.58.92.58Z"/><path class="cls-8" d="M237.73,58.28h.37c.51,0,.93-.26.93-.58s-.42-.58-.93-.58h-.37c-.5,0-.93.26-.93.58s.43.58.93.58Z"/><path class="cls-8" d="M274.49,46.35a6.42,6.42,0,0,1,1.76-.15c1.19,0,1.19-1.17,0-1.17a9.19,9.19,0,0,0-2.69.32c-.46.13-.57.54-.33.79a1.3,1.3,0,0,0,1.26.21Z"/><path class="cls-8" d="M287.36,54.1h.37c.51,0,.93-.27.93-.58s-.42-.59-.93-.59h-.37c-.5,0-.93.27-.93.59s.43.58.93.58Z"/><path class="cls-8" d="M316.72,36.36c.71-.21,1.5-.26,2.22-.47.46-.13.57-.54.33-.79a1.27,1.27,0,0,0-1.27-.21c-.7.2-1.5.25-2.22.46-.46.14-.57.54-.33.8a1.32,1.32,0,0,0,1.27.21Z"/><path class="cls-9" d="M335.3,45.72a38.44,38.44,0,0,0-.37-5.16,19.32,19.32,0,0,0-2.86,5.67c-.93,3.8-4.25,6.81-7.38,10.09-2.73,2.87-9.13,5.73-13.73,7.35a114.34,114.34,0,0,1-22.45,5.58c-15.91,2.06-31.33,2.14-47.79,2.65-16.8.52-34.3.18-51-.81a192.39,192.39,0,0,1-27.89-3.5c-8.6-1.81-18.35-1.69-25.76-4.94C130,60,122.23,59.07,117.93,55.11a91.13,91.13,0,0,0-6.53-6.62,8.82,8.82,0,0,0,.78,3.32c2.51,4.92,10.06,24.27,110.06,24.77C336.68,77.16,335.3,49.56,335.3,45.72Z"/></g></g></svg>