<svg xmlns="http://www.w3.org/2000/svg" viewBox="0 0 251.54 37"><defs><style>.cls-1{fill:#ffbe00;}.cls-2{fill:#ffd84d;opacity:0.5;}.cls-3{fill:#f9ed98;}.cls-4{fill:#ef9c07;}</style></defs><title>Asset 24</title><g id="Layer_2" data-name="Layer 2"><g id="Layer_1-2" data-name="Layer 1"><path class="cls-1" d="M120.69,0C112-.44-4.39,13,.13,15.33S17.37,17.05,32.78,19C55.23,21.93,88,28.17,112.31,31.8c13.6,2,12,5.06,23.67,5.15,8.6.06,9-3,22.36-5.36,24.16-4.33,51.23-9.4,70.45-11.91,7.14-.94,21.44-1.49,22.21-3.15C252,14.38,140.15,1,120.69,0Z"/><path class="cls-2" d="M141.6,26.4c-6.87-1.64-18.1-2.24-26.09-3.42-11.76-1.74-23.91-3.29-36-4.9-4.61-.61-8.76-1.29-13.07-2-3.34-.55-9.17-1.09-11.54-1.9-4.84-1.67,3.34-3.35,8.3-4.35,8.67-1.75,5.57-3.2-4.89-2.18-3.61.35-11.21,1-12,1.53L39.68,10c-6.33.83-11.89,1.84-17.88,2.85-2.59.44-7.82.84-5.19,1.71,1.34.44,10,.86,12.28,1,10.58.84,18.3,1.6,27.87,3.09,6.31,1,13.8,1.47,20.47,2.31,6.37.81,12.12,1.87,18,2.87,10.52,1.78,20.64,3.48,28.49,6,2.76.88,5.2,1.76,7.74,2.67,4,1.43,4.8,1.23,8.16-.15C144.31,30.48,149.75,28.35,141.6,26.4Z"/><path class="cls-2" d="M217.57,12.63c-8.93-.67-17.42-1.31-25.91-2.43-4-.53-8.07-1-12.07-1.5-3.37-.45-6-1.33-9.4-1.65l-1.43-.42c-4.22-.94-6.25.11-4.16,1.08a41.54,41.54,0,0,0,7.29,1.73c6,1.06,12.52,1.64,18,3,8.65,2.13,5,3.24,3.3,5.74-2.16,3.12,10.83,1.47,17.08.66,4.4-.58,7.57-.8,12-1,3.34-.19,8.32-.5,9.81-1.45C234.76,14.58,222.74,13,217.57,12.63Z"/><path class="cls-3" d="M46.14,9.93l-1.48.22c-4.71.66-9.2,1.42-13.75,2.12-2.22.35-12.94,1.77-4.76,2,5.41.13,10.49-1.44,14.12-2.2,3.46-.73,8.72-1.27,11.19-2.22A12.21,12.21,0,0,0,46.14,9.93Z"/><path class="cls-4" d="M251.54,16.58c.07-.16-.52-.4-1.7-.69-.81.18-.11.79-1.07,1-7.25,1.34-15,1.62-23.4,2.58-20.37,2.32-38.79,5.64-57,8.94-7.17,1.3-12.85,2.54-19.44,4.11-3.57.85-6.51,2.91-15.24,3.13-1.18,0-6.68-.1-9.29-.86A28.54,28.54,0,0,0,136.51,37c8.61.06,9-3,22.36-5.36,24.16-4.33,51.23-9.4,70.45-11.91C236.46,18.79,250.76,18.24,251.54,16.58Z"/></g></g></svg>