<svg xmlns="http://www.w3.org/2000/svg" viewBox="0 0 211 58"><defs><style>.cls-1{fill:#893c29;}.cls-2{fill:#c25739;}.cls-3{fill:#f9735d;}</style></defs><title>Asset 23</title><g id="Layer_2" data-name="Layer 2"><g id="Layer_1-2" data-name="Layer 1"><path class="cls-1" d="M191.1,10.54C176,6.28,33.34,5.06,15.84,11.28-.37,17.21-.37,29.51.14,34.26S10.7,58.86,104.89,58s101.45-17,104.23-20C212.72,34.11,213.24,16.77,191.1,10.54Z"/><path class="cls-2" d="M96.4,0C34.12.47,4.26,11.88,4.26,24c0,11.28,36,19.56,89.56,20.45S199.6,37.07,203.46,24.77C207.21,12.81,178.24-.57,96.4,0Z"/><path class="cls-3" d="M7.86,24.62c.26,5,9,11,31.92,14.38,45.81,6.82,104.09,4,102.43,2.52-2.06-1.78-24.66,3.84-93.43-3.56-11.19-1.2-20.58-3.31-26.5-6.07-6.46-3-9-6.72-9-8.45C13,16.17,22,14.25,18.67,13.36,16.79,12.86,7.41,15.72,7.86,24.62Z"/><path class="cls-1" d="M54.11,3.81c-2.38.08-8.07,3.61-18,10.7S16.88,28,20.91,28.81s14.46-7.47,20.87-12.5S61.22,3.55,54.11,3.81Z"/><path class="cls-1" d="M84.56,2.67C82,2.79,69.42,11.79,59,19.3s-21.3,15.3-16.89,16,16.48-8.93,23.16-14.25S92.26,2.3,84.56,2.67Z"/><path class="cls-1" d="M118.27,2.54c-2.57.16-15.71,11.28-25.54,19S69.89,38.42,76.32,38.42c4.64,0,16.55-9.77,22.81-15.22S128.82,1.87,118.27,2.54Z"/><path class="cls-1" d="M153.35,4.43c-2.57-.13-15.94,9.87-26.16,17.46S103.52,38.45,110,38.54c4.63.06,17-9.55,23.55-14.91S160.8,4.8,153.35,4.43Z"/><path class="cls-1" d="M182.91,9.62c-2.07-.07-12.43,8-20.35,14.11s-18.38,13.36-13.21,13.36c3.73,0,13.31-7.74,18.35-12.06S188.91,9.83,182.91,9.62Z"/><path class="cls-1" d="M22.34,16.79c.68-.18,1.45-.27,2.17-.41s.45-.86-.35-.71-1.68.27-2.47.48-.09.84.65.64Z"/><path class="cls-1" d="M23.31,13.58a10.52,10.52,0,0,1,1.88.28c.79.16,1.13-.56.35-.71a11.63,11.63,0,0,0-2.23-.31c-.83,0-.83.73,0,.74Z"/><path class="cls-1" d="M29,10.8a6.79,6.79,0,0,0,2.08.69c.79.16,1.13-.56.35-.71a4.77,4.77,0,0,1-1.52-.5c-.6-.33-1.51.19-.91.52Z"/><path class="cls-1" d="M29.23,14.47a9.38,9.38,0,0,0,2.38-.2c.32-.08.39-.35.23-.51a1,1,0,0,0-.88-.13,7.1,7.1,0,0,1-1.73.1c-.83,0-.83.74,0,.74Z"/><path class="cls-1" d="M35.83,11.05a15.18,15.18,0,0,0,2.47-.78c.69-.26,0-.91-.65-.64a13.66,13.66,0,0,1-2.16.7c-.78.16-.44.88.34.72Z"/><path class="cls-1" d="M35.23,7.64a8.92,8.92,0,0,0,2.92.15c.81-.11.46-.82-.35-.72a6.67,6.67,0,0,1-2.23-.15c-.79-.15-1.12.57-.34.72Z"/><path class="cls-1" d="M43.38,6.91a2.64,2.64,0,0,0,.7-.07.57.57,0,0,0,.46-.45c0-.2-.31-.37-.65-.37s-.62.17-.64.37c0-.07.08-.14.23-.21-.07,0,.18,0,0,0,.21,0,.07,0,0,0h-.14c-.35,0-.64.17-.64.37s.29.37.64.37Z"/><path class="cls-1" d="M18,22.25c0,.43.44.72,1.09.91A.94.94,0,0,0,20,23c.17-.17.08-.41-.23-.51l-.26-.08s-.16-.07,0,0l-.1-.06c-.11-.06.07.07,0,0s-.07-.09,0,0a.59.59,0,0,1,0-.08c0,.09,0,0,0,0,0-.2-.29-.37-.65-.37s-.65.17-.64.37Z"/><path class="cls-1" d="M19,19.1a2.43,2.43,0,0,0,1.23.26c.35,0,.64-.17.64-.37s-.29-.37-.64-.37h-.13c-.05,0-.24,0,0,0-.05,0-.22-.05-.06,0a.16.16,0,0,1-.09,0h0a1,1,0,0,0-.91,0,.28.28,0,0,0,0,.52Z"/><path class="cls-1" d="M42.09,20.4h1.55c.83,0,.83-.74,0-.74H42.09c-.83,0-.83.74,0,.74Z"/><path class="cls-1" d="M45.35,16.83c.76-.14,1.56-.16,2.32-.3s.45-.86-.34-.71-1.56.16-2.32.29-.45.86.34.72Z"/><path class="cls-1" d="M58.65,15.49a12.48,12.48,0,0,0,2.23.31c.83,0,.83-.72,0-.74A10.63,10.63,0,0,1,59,14.78c-.79-.15-1.12.56-.34.71Z"/><path class="cls-1" d="M54.51,12.73l.77.45a1,1,0,0,0,.91,0c.25-.15.25-.39,0-.53l-.77-.44a1,1,0,0,0-.91,0,.27.27,0,0,0,0,.52Z"/><path class="cls-1" d="M50.84,11.65a2.43,2.43,0,0,0,1.23-.4.27.27,0,0,0,0-.52,1,1,0,0,0-.91,0l-.3.16h0l-.08,0c-.07,0-.06,0,0,0h0c-.35,0-.64.16-.64.37s.29.38.64.37Z"/><path class="cls-1" d="M55.22,8.84h3.86c.83,0,.83-.74,0-.74H55.22c-.83,0-.83.74,0,.74Z"/><path class="cls-1" d="M58.82,5.43a10.72,10.72,0,0,1,1.89.13c.79.15,1.13-.57.34-.71a12.66,12.66,0,0,0-2.23-.16c-.83,0-.83.74,0,.74Z"/><path class="cls-1" d="M65.77,3.06h2.57c.83,0,.83-.74,0-.74H65.77c-.83,0-.83.74,0,.74Z"/><path class="cls-1" d="M70.72,4.88c.48.27,1.06.47,1.54.74s1.51-.19.91-.53-1.06-.47-1.54-.74-1.51.19-.91.53Z"/><path class="cls-1" d="M65.57,6.36c.56.32,1,.71,1.55,1s1.49-.19.91-.53-1-.71-1.55-1S65,6,65.57,6.36Z"/><path class="cls-1" d="M62.17,11.21h2.06c.83,0,.83-.74,0-.74H62.17c-.83,0-.83.74,0,.74Z"/><path class="cls-1" d="M69.37,9.43h1.8c.83,0,.83-.74,0-.74h-1.8c-.83,0-.83.74,0,.74Z"/><path class="cls-1" d="M76.13,6.42a4.48,4.48,0,0,1,1.22-.1c.83,0,.83-.74,0-.74a6.79,6.79,0,0,0-1.87.2c-.32.08-.39.34-.23.5a1,1,0,0,0,.88.14Z"/><path class="cls-1" d="M76.58,3.06H78.9c.83,0,.83-.74,0-.74H76.58c-.83,0-.83.74,0,.74Z"/><path class="cls-1" d="M89.19,1.58a5.85,5.85,0,0,1,2,.24c.71.26,1.35-.39.65-.64A7.81,7.81,0,0,0,89.19.83c-.83,0-.83.74,0,.75Z"/><path class="cls-1" d="M89.38,4.19a6.61,6.61,0,0,1,1.41.69c.59.33,1.5-.19.91-.53A8.34,8.34,0,0,0,90,3.55c-.73-.22-1.38.42-.65.64Z"/><path class="cls-1" d="M83.53,9a10.79,10.79,0,0,1,1.89.13c.79.15,1.13-.57.34-.71a12.66,12.66,0,0,0-2.23-.17c-.83,0-.83.75,0,.75Z"/><path class="cls-1" d="M75.74,14c.5.14,1.05.17,1.54.3a1,1,0,0,0,.88-.13c.17-.16.09-.42-.23-.51-.49-.13-1.05-.16-1.54-.3a1,1,0,0,0-.88.14c-.17.16-.09.42.23.5Z"/><path class="cls-1" d="M88.8,13.21a4.49,4.49,0,0,0,.28,1.73c.2.46,1.44.27,1.25-.2a3.86,3.86,0,0,1-.24-1.53c0-.48-1.29-.48-1.29,0Z"/><path class="cls-1" d="M84.43,11.43v.74c0,.48,1.29.48,1.29,0v-.74c0-.48-1.29-.48-1.29,0Z"/><path class="cls-1" d="M81.14,16.35a9.32,9.32,0,0,0,2.39.34c.83,0,.83-.73,0-.74a7.09,7.09,0,0,1-1.74-.24c-.74-.21-1.39.43-.65.64Z"/><path class="cls-1" d="M97.62,13.09c.49.13,1,.16,1.54.29a.94.94,0,0,0,.88-.13c.16-.16.09-.42-.23-.51-.5-.13-1-.16-1.55-.29a1,1,0,0,0-.88.13c-.16.16-.08.42.24.51Z"/><path class="cls-1" d="M91.76,10A11.72,11.72,0,0,0,94,9.86c.79-.14.45-.86-.34-.71a10.72,10.72,0,0,1-1.89.13c-.83,0-.83.74,0,.74Z"/><path class="cls-1" d="M98,6.21a7,7,0,0,0,2.09.69c.78.15,1.12-.56.34-.72a5.22,5.22,0,0,1-1.52-.49c-.59-.34-1.5.19-.91.52Z"/><path class="cls-1" d="M96.59,2.86c.49.13,1,.16,1.54.3A1,1,0,0,0,99,3c.17-.16.09-.42-.23-.5-.5-.14-1-.17-1.54-.3a1,1,0,0,0-.88.13c-.17.16-.09.42.23.51Z"/><path class="cls-1" d="M105.3,1.75a13.63,13.63,0,0,1,.51,1.48c.2.46,1.44.27,1.24-.2a13.63,13.63,0,0,0-.51-1.48c-.25-.45-1.49-.26-1.24.2Z"/><path class="cls-1" d="M112,2.09V3c0,.48,1.28.48,1.28,0V2.09c0-.47-1.28-.47-1.28,0Z"/><path class="cls-1" d="M105.46,5.47a7.33,7.33,0,0,0,2.09.69c.79.15,1.12-.57.34-.72a4.94,4.94,0,0,1-1.52-.5c-.59-.33-1.5.19-.91.53Z"/><path class="cls-1" d="M72.78,19.85l.77.44a1,1,0,0,0,.91,0,.27.27,0,0,0,0-.52l-.77-.45a1,1,0,0,0-.91,0c-.25.14-.25.38,0,.53Z"/><path class="cls-1" d="M68.15,24.14a2.49,2.49,0,0,0,1.22.26c.35,0,.65-.17.65-.37s-.3-.37-.65-.37h-.13s-.23,0,0,0c0,0-.21-.05-.06,0a.16.16,0,0,1-.09,0c.06,0,.06,0,0,0a1,1,0,0,0-.91,0c-.25.14-.26.38,0,.52Z"/><path class="cls-1" d="M76.75,26.61a37.06,37.06,0,0,1,4-.13c.83,0,.83-.75,0-.75a40.81,40.81,0,0,0-4.29.17c-.82.08-.47.8.34.71Z"/><path class="cls-1" d="M82.5,20.25H84c.83,0,.83-.74,0-.74H82.5c-.83,0-.83.74,0,.74Z"/><path class="cls-1" d="M91.76,20.25c-.1,0-.11,0,0,0s.06,0,0,0l.21.06a2.52,2.52,0,0,0,.63.1c.35,0,.64-.18.64-.37s-.29-.36-.64-.37c.1,0,.11,0,0,0s-.06,0,0,0l-.21-.06a2.59,2.59,0,0,0-.63-.1c-.35,0-.64.18-.64.37s.29.36.64.37Z"/><path class="cls-1" d="M28,29.78a5.13,5.13,0,0,0,1.16.5,1,1,0,0,0,.88-.13c.17-.17.08-.42-.23-.51l-.33-.11-.11,0-.07,0a2.93,2.93,0,0,1-.39-.21c-.59-.34-1.5.19-.91.53Z"/><path class="cls-1" d="M34.18,25.77a2.83,2.83,0,0,0,1.48.41c.35,0,.64-.17.64-.37s-.29-.37-.64-.37h-.14c.06,0,.06,0,0,0l-.11,0c.13,0,0,0,0,0s-.06,0,0,0l-.08,0-.18-.1c-.59-.34-1.5.19-.91.52Z"/><path class="cls-1" d="M40.81,30.48a7.2,7.2,0,0,0,1.87-.2c.31-.09.39-.35.23-.51a1,1,0,0,0-.88-.13,5,5,0,0,1-1.22.1c-.83,0-.83.74,0,.74Z"/><path class="cls-1" d="M46.73,23.81h1.8c.83,0,.83-.74,0-.74h-1.8c-.83,0-.83.74,0,.74Z"/><path class="cls-1" d="M58.24,30.87l.31.1,0,0,.11.05.11.07c.11.07-.08-.06,0,0a1.34,1.34,0,0,1,.21.2.94.94,0,0,0,.88.13c.31-.1.39-.32.23-.5a2.7,2.7,0,0,0-1.26-.73,1,1,0,0,0-.88.13c-.17.17-.08.42.23.51Z"/><path class="cls-1" d="M55.56,34.76a6.52,6.52,0,0,1,2.29.94c.59.34,1.5-.18.91-.52a7.86,7.86,0,0,0-2.86-1.13c-.8-.13-1.14.58-.34.71Z"/><path class="cls-1" d="M69.12,35.22h2.57c.83,0,.83-.74,0-.74H69.12c-.83,0-.83.74,0,.74Z"/><path class="cls-1" d="M65,27.81h.13s.23,0,0,0c0,0,.21.05.06,0l.09,0c-.06,0-.06,0,0,0a1,1,0,0,0,.91,0,.28.28,0,0,0,0-.52A2.43,2.43,0,0,0,65,27.07c-.35,0-.64.17-.64.37s.29.37.64.37Z"/><path class="cls-1" d="M119.1,9.17a9.36,9.36,0,0,0,2.6.69c.79.15,1.13-.56.35-.71a8.35,8.35,0,0,1-2-.5c-.6-.32-1.52.2-.91.52Z"/><path class="cls-1" d="M123.48,5a8.06,8.06,0,0,0,2.86,1c.8.12,1.14-.59.34-.72a6.39,6.39,0,0,1-2.29-.79c-.59-.34-1.5.19-.91.52Z"/><path class="cls-1" d="M120.93,2.3a15.69,15.69,0,0,0,2.75.16c.83,0,.83-.74,0-.74a13.76,13.76,0,0,1-2.41-.13c-.79-.14-1.13.57-.34.71Z"/><path class="cls-1" d="M131,3.6c.58-.15,1.29-.15,1.9-.26.79-.14.46-.86-.34-.71S131,2.78,130.3,3c-.32.08-.39.35-.23.51a1,1,0,0,0,.88.13Z"/><path class="cls-1" d="M133,7.75l3.09-.89c.74-.21.09-.85-.65-.64l-3.09.89c-.74.21-.09.85.65.64Z"/><path class="cls-1" d="M136.29,6.76c.83,0,.83-.74,0-.74s-.83.74,0,.74Z"/><path class="cls-1" d="M126.76,12.4a7.73,7.73,0,0,1,1.74.09.94.94,0,0,0,.88-.13c.16-.16.09-.42-.23-.51a9.9,9.9,0,0,0-2.39-.2c-.83,0-.83.74,0,.75Z"/><path class="cls-1" d="M126.4,8.57a3.41,3.41,0,0,0,2.25,1c.79.15,1.13-.57.34-.72-.46-.09-1.16-.18-1.35-.48a.78.78,0,0,0-.79-.26c-.31.05-.57.27-.45.46Z"/><path class="cls-1" d="M134.8,9.91c.57.32,1.24.58,1.8.89s1.51-.19.91-.52-1.23-.57-1.8-.89-1.5.19-.91.52Z"/><path class="cls-1" d="M139.12,7.21h2.57c.83,0,.83-.74,0-.74h-2.57c-.83,0-.83.74,0,.74Z"/><path class="cls-1" d="M145.29,5.28a21.53,21.53,0,0,0,3-.16c.8-.11.46-.83-.35-.72a18,18,0,0,1-2.66.14c-.83,0-.83.74,0,.74Z"/><path class="cls-1" d="M135.7,2.86a9.42,9.42,0,0,0,2.39.2c.83,0,.83-.74,0-.74a7.72,7.72,0,0,1-1.74-.1,1,1,0,0,0-.88.13c-.16.16-.08.43.23.51Z"/><path class="cls-1" d="M145.74,3.45a7.15,7.15,0,0,0,1.87.2c.83,0,.83-.74,0-.74a4.91,4.91,0,0,1-1.22-.1,1,1,0,0,0-.88.13c-.16.17-.09.43.23.51Z"/><path class="cls-1" d="M113.19,16.94a7,7,0,0,1,1.74-.25c.82,0,.83-.75,0-.74a9.26,9.26,0,0,0-2.39.35c-.74.21-.09.85.65.64Z"/><path class="cls-1" d="M114.41,13.88h2.32c.83,0,.83-.74,0-.74h-2.32c-.83,0-.83.74,0,.74Z"/><path class="cls-1" d="M124.53,15.05a13.25,13.25,0,0,1,2.17.56c.7.26,1.34-.39.65-.64a15.66,15.66,0,0,0-2.47-.64c-.79-.15-1.13.57-.35.72Z"/><path class="cls-1" d="M119.23,19.16c.25.07.51.12.78.17l.31.05.07,0a1,1,0,0,0,.91,0c.24-.14.26-.39,0-.52a6.86,6.86,0,0,0-1.42-.36,1,1,0,0,0-.88.14c-.16.16-.08.42.23.5Z"/><path class="cls-1" d="M102.06,23.36h1.28c.83,0,.83-.74,0-.74h-1.28c-.83,0-.83.74,0,.74Z"/><path class="cls-1" d="M107.21,20.25h2.05c.83,0,.83-.74,0-.74h-2.05c-.83,0-.83.74,0,.74Z"/><path class="cls-1" d="M103.09,29h1.8c.83,0,.83-.75,0-.75h-1.8c-.83,0-.83.75,0,.75Z"/><path class="cls-1" d="M93.62,30.37c.55.3,1.27.45,1.81.74s1.51-.19.91-.52-1.27-.45-1.81-.75-1.51.2-.91.53Z"/><path class="cls-1" d="M89.89,36.06a9.42,9.42,0,0,0,2.39.2c.83,0,.83-.74,0-.74a7.72,7.72,0,0,1-1.74-.1,1,1,0,0,0-.88.13c-.16.16-.08.43.23.51Z"/><path class="cls-1" d="M97.68,38.63a12.35,12.35,0,0,0,2.23-.31c.78-.15.45-.87-.34-.72a9.68,9.68,0,0,1-1.89.29c-.83,0-.83.75,0,.74Z"/><path class="cls-1" d="M108.49,33.59a7.57,7.57,0,0,0,2.64-.35c.7-.25.06-.89-.65-.64a5.61,5.61,0,0,1-2,.25c-.83,0-.83.74,0,.74Z"/><path class="cls-1" d="M113.73,27.2c.64.13,1.29.24,1.9.41s1.4-.43.65-.64-1.47-.34-2.21-.48-1.13.56-.34.71Z"/><path class="cls-1" d="M116.4,22.87a9.9,9.9,0,0,0,3.16.34c.83,0,.83-.74,0-.74a7.94,7.94,0,0,1-2.51-.24c-.71-.25-1.35.39-.65.64Z"/><path class="cls-1" d="M128.57,17.88h1.54c.83,0,.83-.74,0-.74h-1.54c-.83,0-.83.74,0,.74Z"/><path class="cls-1" d="M151.15,14.86c.78.22,1.64.33,2.47.49s1.12-.57.34-.72-1.48-.22-2.16-.41-1.4.44-.65.64Z"/><path class="cls-1" d="M155.67,12.09a17.55,17.55,0,0,0,3,.31c.83,0,.83-.74,0-.75a14.45,14.45,0,0,1-2.66-.28c-.79-.15-1.13.57-.35.72Z"/><path class="cls-1" d="M165.88,10.91H169c.83,0,.83-.74,0-.74h-3.09c-.83,0-.83.74,0,.74Z"/><path class="cls-1" d="M158.59,8.82a12.74,12.74,0,0,1,2.15-.13c.83,0,.83-.74,0-.74a14.61,14.61,0,0,0-2.49.16c-.79.14-.45.86.34.71Z"/><path class="cls-1" d="M158.16,6.47h2.32c.83,0,.83-.74,0-.74h-2.32c-.83,0-.83.74,0,.74Z"/><path class="cls-1" d="M156.36,4.84a6.56,6.56,0,0,1,2.25.39c.7.26,1.35-.38.65-.64a9,9,0,0,0-2.9-.5c-.83,0-.83.74,0,.75Z"/><path class="cls-1" d="M166.59,6.56c.73.22,1.42.47,2.21.63s1.12-.55.34-.71-1.27-.37-1.9-.56-1.39.43-.65.64Z"/><path class="cls-1" d="M175.6,8.94a3.67,3.67,0,0,1,1.31.9c.46.4,1.57,0,1.11-.37a4.76,4.76,0,0,0-1.78-1.17c-.72-.23-1.37.41-.64.64Z"/><path class="cls-1" d="M171,9.54a5.8,5.8,0,0,0,1.39.82c.59.33,1.5-.19.91-.52a5.73,5.73,0,0,1-1.19-.67.94.94,0,0,0-.88-.13c-.31.1-.4.33-.23.5Z"/><path class="cls-1" d="M170.32,14.07l.07,0c.13.08-.07-.06.05,0l.18.15a2.91,2.91,0,0,0,.47.36,1,1,0,0,0,.91,0c.25-.15.24-.38,0-.53l-.07,0c-.13-.08.07.06-.05,0l-.18-.15a3.43,3.43,0,0,0-.47-.36,1,1,0,0,0-.91,0c-.25.15-.24.38,0,.53Z"/><path class="cls-1" d="M141.39,19.25c-.47.63.43,1.07,1.26,1.39a.92.92,0,0,0,.88-.13c.19-.18.06-.39-.23-.51a3.2,3.2,0,0,1-.62-.29.45.45,0,0,1-.15-.11s0,0,0,0,0,0,0,.05c.14-.18.1-.39-.23-.5a.92.92,0,0,0-.88.13Z"/><path class="cls-1" d="M147.16,17.47a7.88,7.88,0,0,0,2.34.84c.78.16,1.12-.56.34-.71a6.26,6.26,0,0,1-1.77-.65c-.6-.33-1.51.19-.91.52Z"/><path class="cls-1" d="M147.35,23.21a8.76,8.76,0,0,0,2.13-.19c.32-.09.39-.35.23-.51a.94.94,0,0,0-.88-.13,6.55,6.55,0,0,1-1.48.09c-.83,0-.83.74,0,.74Z"/><path class="cls-1" d="M156.62,22.47h2.57c.83,0,.83-.74,0-.74h-2.57c-.83,0-.83.74,0,.74Z"/><path class="cls-1" d="M157,18.31a14.68,14.68,0,0,0,2.49.16c.83,0,.83-.74,0-.74a12.8,12.8,0,0,1-2.15-.13c-.79-.15-1.13.57-.34.71Z"/><path class="cls-1" d="M162.47,14.27c.5.13,1.05.17,1.54.3a1,1,0,0,0,.88-.14c.17-.16.09-.42-.23-.5-.49-.14-1-.17-1.54-.3a1,1,0,0,0-.88.13c-.17.17-.09.43.23.51Z"/><path class="cls-1" d="M164.85,17.88a4.44,4.44,0,0,1,1.22.1,1,1,0,0,0,.88-.14c.17-.16.09-.42-.23-.5a6.75,6.75,0,0,0-1.87-.2c-.83,0-.83.74,0,.74Z"/><path class="cls-1" d="M130.11,31.37h1.54c.83,0,.83-.74,0-.74h-1.54c-.83,0-.83.74,0,.74Z"/><path class="cls-1" d="M135.19,26.72a8.29,8.29,0,0,0,2.13.2c.83,0,.83-.74,0-.74a6,6,0,0,1-1.48-.1,1,1,0,0,0-.88.13c-.16.17-.09.43.23.51Z"/><path class="cls-1" d="M144.78,29.14h2.32c.83,0,.83-.74,0-.74h-2.32c-.83,0-.83.74,0,.74Z"/><path class="cls-1" d="M138.93,34.87a12.88,12.88,0,0,1,2.16-.55c.78-.15.45-.87-.34-.72a16.51,16.51,0,0,0-2.47.63c-.7.26-.05.9.65.64Z"/><path class="cls-1" d="M121.7,37.58a14.61,14.61,0,0,0,2.49.31c.83,0,.83-.73,0-.74a11.61,11.61,0,0,1-2.14-.29c-.79-.15-1.13.57-.35.72Z"/><path class="cls-1" d="M137.06,38.78h1.8c.83,0,.83-.74,0-.74h-1.8c-.83,0-.83.74,0,.74Z"/><path class="cls-1" d="M163,36.39a19.33,19.33,0,0,1,2.66-.28c.82,0,.83-.75,0-.74a21.32,21.32,0,0,0-3,.31c-.8.12-.46.83.35.71Z"/><path class="cls-1" d="M164.85,32.7a25.16,25.16,0,0,0,3.26-.16c.81-.11.47-.82-.34-.72a21.72,21.72,0,0,1-2.92.14c-.83,0-.83.74,0,.74Z"/><path class="cls-1" d="M177.27,30.37a6.75,6.75,0,0,0,2.08.83c.79.17,1.12-.55.34-.71a5,5,0,0,1-1.51-.65c-.59-.33-1.5.19-.91.53Z"/><path class="cls-1" d="M175.6,33.54a1.64,1.64,0,0,1,.79.61,1,1,0,0,0,.88.13c.32-.11.39-.33.23-.51a2.6,2.6,0,0,0-1.26-.87,1,1,0,0,0-.88.13c-.17.17-.07.41.24.51Z"/><path class="cls-1" d="M169.49,26.92a7.79,7.79,0,0,0,2.12-.2c.32-.08.4-.34.23-.51a1,1,0,0,0-.88-.13,6,6,0,0,1-1.47.1c-.83,0-.83.74,0,.74Z"/><path class="cls-1" d="M180,24.84a21.35,21.35,0,0,1,2.66.14c.8.11,1.15-.6.34-.71a21.39,21.39,0,0,0-3-.17c-.83,0-.83.74,0,.74Z"/><path class="cls-1" d="M177,28a7.15,7.15,0,0,0,1.87-.2c.32-.09.39-.35.23-.51a1,1,0,0,0-.88-.13,4.91,4.91,0,0,1-1.22.1c-.83,0-.83.74,0,.74Z"/><path class="cls-1" d="M190,29.48a4.94,4.94,0,0,1,1.52-.5c.78-.15.45-.87-.34-.71a6.85,6.85,0,0,0-2.09.69c-.59.33.32.85.91.52Z"/><path class="cls-1" d="M195.42,25.92a5.84,5.84,0,0,1,2-.64c.8-.13.46-.84-.34-.72a7.72,7.72,0,0,0-2.6.84c-.6.33.32.86.91.52Z"/><path class="cls-1" d="M190.68,22.76a15.59,15.59,0,0,0,3.68.15c.82-.09.47-.8-.34-.72a11.56,11.56,0,0,1-3-.15c-.81-.11-1.15.6-.34.72Z"/><path class="cls-1" d="M179.84,18.22l1.54.88c.59.34,1.5-.18.91-.52l-1.54-.89c-.59-.34-1.5.19-.91.53Z"/><path class="cls-1" d="M176.65,20.66,178.2,22c.45.4,1.57,0,1.11-.37l-1.55-1.33c-.46-.4-1.57,0-1.11.37Z"/><path class="cls-1" d="M186.88,18.5a4.92,4.92,0,0,0,1.71,1.64c.58.35,1.49-.18.91-.52a4,4,0,0,1-1.38-1.32c-.27-.45-1.51-.26-1.24.2Z"/><path class="cls-1" d="M184.76,15.64a18.16,18.16,0,0,0,3.26.46c.83,0,.82-.73,0-.74a17.11,17.11,0,0,1-2.92-.43c-.79-.16-1.12.56-.34.71Z"/><path class="cls-1" d="M187.5,12.4a5.46,5.46,0,0,1,1.48.24c.74.21,1.39-.43.65-.64a9.12,9.12,0,0,0-2.13-.35c-.83,0-.83.73,0,.75Z"/><path class="cls-1" d="M195.12,16a17.46,17.46,0,0,0,2.12,2.31c.43.41,1.54,0,1.11-.38a15.78,15.78,0,0,1-2-2.13c-.32-.44-1.56-.25-1.24.2Z"/><path class="cls-1" d="M190.72,15.14a1.11,1.11,0,0,0,.83,1.21c.72.23,1.37-.41.65-.64l0,0,0,0a.36.36,0,0,1-.08-.15,1.17,1.17,0,0,1,0-.38c0-.48-1.28-.48-1.28,0Z"/><path class="cls-1" d="M193.87,19.46c.83.32,1.68.63,2.57.89s1.39-.43.65-.64c-.9-.26-1.74-.57-2.57-.89s-1.34.38-.65.64Z"/><path class="cls-1" d="M200,20.92a7.13,7.13,0,0,0,.54,2c.17.47,1.41.27,1.24-.19a6.46,6.46,0,0,1-.49-1.83c0-.48-1.3-.48-1.29,0Z"/><path class="cls-1" d="M87.39,6.91a17.38,17.38,0,0,1,2.4.14c.81.11,1.15-.61.34-.72a20.68,20.68,0,0,0-2.74-.16c-.83,0-.83.74,0,.74Z"/><path class="cls-1" d="M97.23,8.73a15.41,15.41,0,0,0,2.19,1.09c.68.28,1.33-.37.65-.64a13.91,13.91,0,0,1-1.93-1c-.59-.34-1.5.18-.91.52Z"/><path class="cls-1" d="M103.53,8.05c.46.14.79.44,1.29.59a1,1,0,0,0,.88-.13c.17-.17.08-.42-.23-.51s-.79-.44-1.29-.59a1,1,0,0,0-.88.13c-.17.17-.07.41.23.51Z"/><path class="cls-1" d="M97.68,1.43h3.09c.83,0,.83-.74,0-.74H97.68c-.83,0-.83.74,0,.74Z"/><path class="cls-1" d="M101,3l.77.89a.94.94,0,0,0,.88.13c.32-.1.39-.32.23-.5s-.51-.6-.77-.89a.94.94,0,0,0-.88-.13c-.32.1-.39.32-.23.5Z"/><path class="cls-1" d="M72,2.17h2.31c.83,0,.83-.74,0-.74H72c-.83,0-.83.74,0,.74Z"/><path class="cls-1" d="M62.25,7.34a12,12,0,0,1,1.91.71c.69.27,1.33-.38.65-.64a12.53,12.53,0,0,0-2.21-.78c-.79-.16-1.12.55-.35.71Z"/><path class="cls-1" d="M57,7.21h1.8c.83,0,.83-.74,0-.74H57c-.83,0-.83.74,0,.74Z"/><path class="cls-1" d="M58.05,3.35a33.75,33.75,0,0,0,3.77-.16c.82-.09.47-.8-.34-.71a32.67,32.67,0,0,1-3.43.13c-.83,0-.83.74,0,.74Z"/><path class="cls-1" d="M129.17,5.56a16.4,16.4,0,0,0,3,.31c.83,0,.83-.73,0-.74a15.47,15.47,0,0,1-2.66-.28c-.79-.15-1.13.57-.34.71Z"/><path class="cls-1" d="M126.76,2.46c.7,0,1.37-.13,2.06-.14s.83-.75,0-.74-1.36.13-2.06.14-.83.76,0,.74Z"/><path class="cls-1" d="M121.06,6.88a3.79,3.79,0,0,0,1.93.76c.79.15,1.12-.56.34-.72a4.94,4.94,0,0,1-.78-.19.84.84,0,0,1-.38-.23c-.39-.42-1.5,0-1.11.38Z"/><path class="cls-1" d="M149.84,13.86a25.44,25.44,0,0,0,3.24-.63c.75-.2.1-.84-.65-.64a24.5,24.5,0,0,1-2.93.56c-.81.12-.46.83.34.71Z"/><path class="cls-1" d="M154.22,10.16a14.45,14.45,0,0,1,2.66-.28c.82,0,.83-.75,0-.75a17.55,17.55,0,0,0-3,.31c-.78.15-.45.87.35.72Z"/><path class="cls-1" d="M160.89,11.09a4.87,4.87,0,0,0,1.71,1.34c.58.34,1.49-.18.91-.52a4.2,4.2,0,0,1-1.38-1c-.28-.45-1.53-.25-1.24.2Z"/><path class="cls-1" d="M167.94,12.1H170c.83,0,.83-.74,0-.74h-2.06c-.83,0-.83.74,0,.74Z"/><path class="cls-1" d="M163.46,8a3.46,3.46,0,0,0,2.25,1.15c.79.16,1.12-.56.34-.71a2.28,2.28,0,0,1-1.35-.63c-.28-.45-1.53-.26-1.24.19Z"/><path class="cls-1" d="M162.11,5.12c.69.14,1.36.31,2.06.44s1.12-.56.34-.71-1.36-.31-2.06-.45-1.12.57-.34.72Z"/><path class="cls-1" d="M173.18,7.05a21.68,21.68,0,0,1,3.44,1.14c.67.29,1.31-.36.65-.64a23.88,23.88,0,0,0-3.75-1.22c-.77-.18-1.1.54-.34.72Z"/><path class="cls-1" d="M185,10.21a3.45,3.45,0,0,0,1.74.55c.35,0,.64-.17.64-.37s-.29-.36-.64-.37a1.24,1.24,0,0,1-.42-.11l-.41-.22c-.59-.34-1.5.18-.91.52Z"/><path class="cls-2" d="M10.65,35.18a7,7,0,0,0,2.29,1.18c.7.26,1.34-.38.65-.64a5.64,5.64,0,0,1-1.82-.91c-.4-.42-1.52,0-1.12.37Z"/><path class="cls-2" d="M7.48,36.92a4.72,4.72,0,0,0,1,2.47c.3.44,1.55.25,1.24-.19a4.5,4.5,0,0,1-1-2.28c0-.47-1.31-.47-1.29,0Z"/><path class="cls-2" d="M13.2,39.47a3.71,3.71,0,0,1,1.32.9c.45.4,1.57,0,1.11-.37a5,5,0,0,0-1.78-1.17c-.73-.23-1.38.41-.65.64Z"/><path class="cls-2" d="M14.23,43.91c1.33.45,2.79.74,4.12,1.19.72.24,1.37-.4.65-.64-1.33-.45-2.79-.74-4.12-1.19-.72-.24-1.37.4-.65.64Z"/><path class="cls-2" d="M25.88,46.63h3.86c.83,0,.83-.74,0-.74H25.88c-.83,0-.83.74,0,.74Z"/><path class="cls-2" d="M21.25,43.22a34.91,34.91,0,0,1,3.69.14c.81.08,1.15-.63.34-.72a38.68,38.68,0,0,0-4-.16c-.83,0-.83.74,0,.74Z"/><path class="cls-2" d="M20.13,39.36a15.53,15.53,0,0,0,3-.63c.69-.26.05-.9-.65-.64a14.14,14.14,0,0,1-2.68.55c-.81.12-.46.83.34.72Z"/><path class="cls-2" d="M29.67,40.65a9.71,9.71,0,0,1,3,1.43c.51.38,1.41-.15.91-.53A10.59,10.59,0,0,0,30.32,40c-.73-.22-1.38.42-.65.64Z"/><path class="cls-2" d="M29.29,43.26a15.85,15.85,0,0,0,2.18,1.1c.69.27,1.33-.37.65-.64a13.8,13.8,0,0,1-1.92-1c-.59-.34-1.5.19-.91.52Z"/><path class="cls-2" d="M33.77,51.07A29.48,29.48,0,0,0,37,50.44c.75-.21.1-.85-.65-.64a22.66,22.66,0,0,1-2.93.55c-.81.12-.46.83.34.72Z"/><path class="cls-2" d="M27.68,49h1.55c.83,0,.83-.74,0-.74H27.68c-.83,0-.83.74,0,.74Z"/><path class="cls-2" d="M37.89,47.51a23.87,23.87,0,0,1,3.17-.14c.83,0,.83-.74,0-.74a27.24,27.24,0,0,0-3.51.16c-.81.11-.47.83.34.72Z"/><path class="cls-2" d="M38.58,44c1.11.16,2.22.32,3.34.45.81.09,1.16-.62.34-.72-1.12-.13-2.23-.28-3.34-.44-.81-.12-1.15.6-.34.71Z"/><path class="cls-2" d="M45.24,43.56a4.79,4.79,0,0,0,2,.26c.83,0,.83-.74,0-.74h-.69l-.26,0c-.09,0-.2,0-.14,0a1,1,0,0,0-.91,0,.28.28,0,0,0,0,.52Z"/><path class="cls-2" d="M56,47.37a21.8,21.8,0,0,1,2.92.14c.81.11,1.15-.61.34-.72A25.16,25.16,0,0,0,56,46.63c-.83,0-.83.74,0,.74Z"/><path class="cls-2" d="M47.24,50h2.83c.83,0,.83-.74,0-.74H47.24c-.83,0-.83.74,0,.74Z"/><path class="cls-2" d="M45.37,52.21a12.47,12.47,0,0,0,3.5,1.08c.81.1,1.15-.61.34-.72a11.14,11.14,0,0,1-3.19-1c-.66-.28-1.3.36-.65.64Z"/><path class="cls-2" d="M58.91,53.88c1,.14,2.07.16,3.09.3.8.11,1.15-.61.34-.72-1-.13-2.07-.16-3.09-.29-.81-.11-1.15.6-.34.71Z"/><path class="cls-2" d="M64.23,50.34c.86,0,1.7-.14,2.57-.15s.83-.75,0-.74-1.71.14-2.57.15-.83.75,0,.74Z"/><path class="cls-2" d="M71.69,47.82a14.68,14.68,0,0,0,2.49-.16c.79-.14.45-.86-.35-.72a11.67,11.67,0,0,1-2.14.14c-.83,0-.83.74,0,.74Z"/><path class="cls-2" d="M60.11,44.85h2.57c.83,0,.83-.74,0-.74H60.11c-.83,0-.83.74,0,.74Z"/><path class="cls-2" d="M86.81,53.1a8.6,8.6,0,0,0,3.32.19c.8-.13.46-.85-.34-.72a6.08,6.08,0,0,1-2.33-.11c-.75-.19-1.41.44-.65.64Z"/><path class="cls-2" d="M73.94,54.59a16,16,0,0,0,4,.92c.81.1,1.16-.61.34-.71a14.62,14.62,0,0,1-3.7-.85c-.68-.28-1.32.36-.65.64Z"/><path class="cls-2" d="M78.64,51.08a8.33,8.33,0,0,0,2.9-.64c.68-.27,0-.91-.65-.64a6.64,6.64,0,0,1-2.25.54c-.83,0-.83.75,0,.74Z"/><path class="cls-2" d="M87.9,47.67c1.29,0,2.57-.14,3.86-.15.83,0,.83-.75,0-.74-1.29,0-2.57.14-3.86.15-.83,0-.83.75,0,.74Z"/><path class="cls-2" d="M103,47.92c.88.32,1.9.48,2.83.74.74.2,1.4-.43.65-.64-.93-.26-2-.42-2.83-.74-.7-.26-1.35.38-.65.64Z"/><path class="cls-2" d="M100.09,51.51c.53.1,1.14.12,1.64.26a1,1,0,0,0,.88-.13c.17-.17.09-.42-.23-.51-.62-.17-1.3-.21-1.95-.33s-1.13.56-.34.71Z"/><path class="cls-2" d="M99.81,56.07a7.1,7.1,0,0,1,1.73-.1c.83,0,.83-.74,0-.74a9.34,9.34,0,0,0-2.38.2c-.32.08-.39.34-.23.5a1,1,0,0,0,.88.14Z"/><path class="cls-2" d="M120.85,51.23a22.93,22.93,0,0,0,3-.31c.8-.12.46-.83-.34-.72a19.67,19.67,0,0,1-2.66.29c-.83,0-.83.75,0,.74Z"/><path class="cls-2" d="M1.84,30.06a15.75,15.75,0,0,1,1,1.48c.21.46,1.46.26,1.24-.2a15.75,15.75,0,0,0-1-1.48c-.27-.45-1.52-.26-1.24.2Z"/><path class="cls-2" d="M21,41.59a19.74,19.74,0,0,0,4-.45c.77-.17.43-.89-.34-.72a17.25,17.25,0,0,1-3.69.43c-.83,0-.83.75,0,.74Z"/><path class="cls-2" d="M18.1,42.67a1,1,0,0,0,.42-1.4c-.23-.45-1.47-.26-1.24.2a.53.53,0,0,1-.09.68c-.55.35.35.88.91.52Z"/><path class="cls-2" d="M21.21,46c.51.63.77,1.31,1.28,1.93.36.43,1.47.06,1.11-.37-.51-.62-.77-1.31-1.28-1.93-.36-.43-1.47-.05-1.11.37Z"/><path class="cls-2" d="M32.31,48.71H35.4c.83,0,.83-.74,0-.74H32.31c-.83,0-.83.74,0,.74Z"/><path class="cls-2" d="M32.83,46.48a7.81,7.81,0,0,0,3.54-.7c.61-.32-.3-.85-.91-.52a5.81,5.81,0,0,1-2.63.48c-.83,0-.83.75,0,.74Z"/><path class="cls-2" d="M36,43.84a4,4,0,0,1,1-1.54c.44-.41-.67-.78-1.11-.37a4.54,4.54,0,0,0-1.1,1.71c-.2.47,1,.66,1.24.2Z"/><path class="cls-2" d="M39.43,46a10.11,10.11,0,0,1,3-.15c.81.1,1.15-.61.34-.72a12.66,12.66,0,0,0-3.69.15c-.79.15-.45.86.34.72Z"/><path class="cls-2" d="M40.59,50.3a5.48,5.48,0,0,1,2.45-1c.8-.13.46-.84-.35-.72a7.15,7.15,0,0,0-3.21,1.36c-.51.38.61.75,1.11.37Z"/><path class="cls-2" d="M40.81,52.26c.83,0,.83-.74,0-.74s-.83.74,0,.74Z"/><path class="cls-2" d="M41.06,52.26h1.55c.83,0,.83-.74,0-.74H41.06c-.83,0-.83.74,0,.74Z"/><path class="cls-2" d="M44.67,47.23a8.53,8.53,0,0,1,2.76.39c.71.25,1.35-.39.65-.64a10.78,10.78,0,0,0-3.41-.5c-.83,0-.83.74,0,.75Z"/><path class="cls-2" d="M50.33,45.3h3.09c.83,0,.83-.74,0-.74H50.33c-.83,0-.83.74,0,.74Z"/><path class="cls-2" d="M53.93,49.45c1,0,1.88.14,2.83.15s.83-.74,0-.74-1.88-.14-2.83-.15-.83.73,0,.74Z"/><path class="cls-2" d="M53,52.4a10.79,10.79,0,0,1,1.9.56c.7.26,1.34-.38.65-.64a12.35,12.35,0,0,0-2.21-.63c-.79-.16-1.12.56-.34.71Z"/><path class="cls-2" d="M64.48,52.41a6.75,6.75,0,0,0,1.87-.2c.32-.08.4-.34.23-.5a1,1,0,0,0-.88-.14,4.44,4.44,0,0,1-1.22.1c-.83,0-.83.74,0,.74Z"/><path class="cls-2" d="M65.51,47.37h-.08l-.1,0-.07,0,.11.06a1.37,1.37,0,0,0,.66.15c.35,0,.64-.17.64-.37s-.29-.36-.64-.37h.08l.1,0,.07,0-.11-.05a1.49,1.49,0,0,0-.66-.16c-.35,0-.64.18-.64.37s.29.36.64.37Z"/><path class="cls-2" d="M58.24,51.47a9.24,9.24,0,0,0,2.38.35c.83,0,.83-.73,0-.74a7,7,0,0,1-1.73-.25c-.74-.2-1.4.44-.65.64Z"/><path class="cls-2" d="M140.66,45.45H143c.83,0,.83-.74,0-.74h-2.32c-.83,0-.83.74,0,.74Z"/><path class="cls-2" d="M146.26,52.9l1.55-.89c.59-.34-.32-.86-.91-.53l-1.55.89c-.58.34.33.87.91.53Z"/><path class="cls-2" d="M132.55,54.41a.15.15,0,0,0,0-.07c0,.12,0,0,0,0s0,0,0,0-.08,0,0,0-.13,0,0,0-.11,0,0,0h.14c-.21,0,0,0,0,0,.35,0,.65-.17.65-.37s-.3-.37-.65-.37a2.11,2.11,0,0,0-1,.22.66.66,0,0,0-.38.59c0,.21.29.37.64.37s.64-.16.64-.37Z"/><path class="cls-2" d="M164.68,45.14c.64.12,1.3.23,1.91.4s1.39-.43.65-.64-1.47-.33-2.22-.48-1.12.57-.34.72Z"/><path class="cls-2" d="M172,41.88c.76-.14,1.56-.16,2.32-.3s.45-.86-.34-.71-1.56.16-2.32.29-.45.86.34.72Z"/><path class="cls-2" d="M15.78,46.88a16.14,16.14,0,0,1,2.18,1c.59.33,1.5-.19.91-.53a17.76,17.76,0,0,0-2.45-1.09c-.69-.27-1.33.37-.64.64Z"/><path class="cls-2" d="M10.22,43.19C11,42.57,12,42,12.8,41.41c.5-.38-.62-.75-1.12-.37-.81.61-1.76,1.16-2.57,1.77-.5.38.62.75,1.11.38Z"/><path class="cls-2" d="M16.1,37.44a4.31,4.31,0,0,1,2.12.64c.59.33,1.5-.19.91-.53a6.17,6.17,0,0,0-3-.85c-.83,0-.83.73,0,.74Z"/><path class="cls-2" d="M25.11,45.3h2.31c.83,0,.83-.74,0-.74H25.11c-.83,0-.83.74,0,.74Z"/><path class="cls-2" d="M27.53,42.21c.24-.59.28-1.19.51-1.78s-1.05-.66-1.24-.2-.27,1.2-.51,1.78,1.05.67,1.24.2Z"/><path class="cls-2" d="M39,42.48a13.7,13.7,0,0,1,2.4.14c.79.14,1.13-.57.34-.72A15.58,15.58,0,0,0,39,41.74c-.83,0-.83.74,0,.74Z"/><path class="cls-2" d="M28.71,50.49H31.8c.83,0,.83-.74,0-.74H28.71c-.83,0-.83.74,0,.74Z"/></g></g></svg>