<svg xmlns="http://www.w3.org/2000/svg" viewBox="0 0 169.85 48.32"><defs><style>.cls-1{fill:#e22727;}.cls-2{fill:#ff6a5f;}.cls-3,.cls-4{fill:#f9453d;}.cls-3{opacity:0.8;}.cls-4{opacity:0.6;}.cls-5{opacity:0.5;}.cls-6{fill:#f2b981;}.cls-7{fill:#c62424;}.cls-8{fill:#994575;}.cls-9{fill:#ecceed;}.cls-10{fill:#c1599a;}.cls-11{fill:#703459;}</style></defs><title>Asset 25</title><g id="Layer_2" data-name="Layer 2"><g id="Layer_1-2" data-name="Layer 1"><path class="cls-1" d="M113.46,15.19c2.18.37,21.41-2.65,36,1.51,4.71,1.34,6.3,5.81,3.5,9.12s-14.35,7-30.16,8.44c-29.76,2.62-51.1-.68-61.23-2.74C45.6,28.28,40.21,19.24,48.3,13.83c1.87-1.25,6.24-2.24,9.68-3.22a90,90,0,0,1,45.66-1.25C112.6,11.23,110.36,14.67,113.46,15.19Z"/><path class="cls-2" d="M115.78,12.35c2.19.37,17.06-1.07,31.6,3.08,9.42,2.7,9.32,13.2-22.31,16C95.31,34,74,30.74,63.85,28.68c-19.59-4-24.38-14.13-6-19.33C80.59,2.88,99.91,5.26,106,6.52,114.93,8.4,112.69,11.83,115.78,12.35Z"/><path class="cls-3" d="M111.58,13.94c1.94.32,17.3-1.45,30.21,2.21,8.36,2.37,8.32,11.6-19.7,14-26.37,2.3-45.31-.62-54.29-2.43-17.39-3.52-20.86-12.23-6-17.38A78.45,78.45,0,0,1,82.09,6.57c10.82-.78,19.65.28,23.2,1.34C112.33,10,108.83,13.48,111.58,13.94Z"/><path class="cls-4" d="M113,17c-3.58.59-37.21,6.78-35.24,8.15s22.11,4.94,47.05,1.57c14.56-2,17.73-6.29,12.24-8S117.11,16.32,113,17Z"/><path class="cls-4" d="M98.56,15.25c-4.74,3-28.73,8.63-31.16,8s-6.56-4.2-3.22-8.82c3.66-5.05,21-6.62,28.17-5.64S102,13,98.56,15.25Z"/><g class="cls-5"><path class="cls-6" d="M128.48,19.36c-.27-.65,6.07-.77,6.16-.26h-.15C133.59,19.3,128.86,20.31,128.48,19.36Z"/><path class="cls-6" d="M130.78,21.41c-1.31-.22-2.17-.83,0-.81h-.15a29.47,29.47,0,0,1,4.72.14c1.71.25,2.27.73.11.84A25.16,25.16,0,0,1,130.78,21.41Z"/><path class="cls-6" d="M126,23.05c-.83-.79.82-.9,2.47-.82a11.59,11.59,0,0,1,3.31.94c.9.61-.3,1.1-2.14,1A8.83,8.83,0,0,1,126,23.05Z"/><path class="cls-6" d="M128.58,22.24h0Z"/><path class="cls-6" d="M123.11,23.87l-.35-.19c1.66.23,4.8,2,1.15,1.95-1.3,0-3.43-.64-3.48-1.11S122.08,23.53,123.11,23.87Z"/><path class="cls-6" d="M115.57,25.32l.55-.14c2.07.06,3.8,1.78,1.06,1.91C115.41,27.17,113.36,25.68,115.57,25.32Z"/><path class="cls-6" d="M110.74,25.9l0-.17c2.59-.16,1.85,2.61-1.66,1.72C107,26.92,108.41,24.68,110.74,25.9Z"/><path class="cls-6" d="M102.42,25.82l1.12-.05c2.45.17,1.77,2.13-1.28,1.87C99.77,27.43,100.82,26,102.42,25.82Z"/><path class="cls-6" d="M97.08,25.68l.57.09c1.3.31-1.07,1.9-2.92,1.45S95.55,25.27,97.08,25.68Z"/><path class="cls-6" d="M92.54,25.25l.3,0c1.62.63-1.49,2.27-3.52,1.74C87.76,26.61,90.87,25,92.54,25.25Z"/><path class="cls-6" d="M87.36,24.61l.38.13c.14,0,.07-.1.33,0,.71.62-3.35,1.75-4.48,1.33C81.94,25.42,86.32,24.61,87.36,24.61Z"/><path class="cls-6" d="M127.87,17.74H128c.54.66-3.81,1.64-4.37.89C123.3,18.16,126.93,17.47,127.87,17.74Z"/><path class="cls-6" d="M122.14,17.24l.26.07c-.37.34-3.93,1.5-4.73,1C116.46,17.49,121.45,17.28,122.14,17.24Z"/><path class="cls-6" d="M96.84,13.79c1.89-.42,1.83.21,1.52.24a6.82,6.82,0,0,1-3.26.84C94.5,14.43,95.87,14,96.84,13.79Z"/><path class="cls-6" d="M94,12.81c-.19-.54,3.43-1.75,3.93-.86l0-.06C98.47,12.55,94.27,13.63,94,12.81Z"/><path class="cls-6" d="M93,11.89c-1.57-.15.58-2.31,2.45-1.74l.43-.21C96.72,10.31,94.52,12.05,93,11.89Z"/><path class="cls-6" d="M90.14,9.15l.48,0c.79.1.54,2.09-1.2,2C88,11.05,88,9.18,90.14,9.15Z"/><path class="cls-6" d="M85.1,9l.4-.14c1.3-.15,2.51,1.61,1.17,1.91C84.67,11.25,83.21,9.32,85.1,9Z"/><path class="cls-6" d="M82.64,10.55l.23.13c.89.54-1.33.42-2,.27-1-.21-1.48-.59-1.45-1C79.46,8.83,82.65,10.05,82.64,10.55Z"/><path class="cls-6" d="M74.23,10.42c2.12-.17,3,.51,4.14.8l0,.17c1.89.7-1.19.67-2.38.34C75.13,11.47,73.88,10.88,74.23,10.42Z"/><path class="cls-6" d="M74.89,12.62l-.18.05c-.73.4-5.37-.25-4.76-.85C70.71,11.06,74.54,12.2,74.89,12.62Z"/><path class="cls-6" d="M72.55,13.69c-.75.29-6,.09-5.53-.61s5.14.25,5.78.45Z"/><path class="cls-6" d="M71.55,14.62c.16.09-.11,0-.2,0l.23.12c-1.14.46-5.37.72-5.85,0C65.1,13.71,70.55,14.35,71.55,14.62Z"/><path class="cls-6" d="M70.87,16.22l-.25.16c-.71.66-6.24.9-6,0S70.14,16,70.87,16.22Z"/><path class="cls-6" d="M70.47,17.91l-.28.21c-1,.37-5.36.87-5.35.15S69.59,17.53,70.47,17.91Z"/><path class="cls-6" d="M70.74,19.53l-.1.16c-1,.54-6.89,1.07-5.68.12C65.63,19.27,70,19.16,70.74,19.53Z"/><path class="cls-6" d="M71.59,21c-.47.52-5.3,1.73-4.91.69C67,21,70.54,20.86,71.59,21Z"/></g><path class="cls-1" d="M100.33,27C98,27.31,80,24.21,63.84,28.29c-5.22,1.32-8.51,5.78-7,9.1S68.52,44.49,83.78,46A226.43,226.43,0,0,0,146,43.51c17.14-3.16,26-12.16,19.94-17.61-1.39-1.26-5.37-2.27-8.44-3.26-20.29-6.56-38.61-2.7-45.14-1.46C102.69,23,103.62,26.45,100.33,27Z"/><path class="cls-2" d="M99.09,24.11C96.76,24.47,82.45,23,66.35,27,55.91,29.69,52,40.18,82.54,43.11a226,226,0,0,0,62.22-2.45c21.09-3.89,29.73-14,13.39-19.29-20.29-6.56-40.5-4.28-47-3C101.45,20.16,102.38,23.6,99.09,24.11Z"/><path class="cls-4" d="M102.69,25.71c-2.07.32-16.74-1.53-31,2.07C62.4,30.11,58.92,39.33,86,41.9a202.27,202.27,0,0,0,55.17-2.18c18.71-3.43,25.5-12.12,12.58-17.33-6.27-2.53-12.91-3.43-18.78-3.9-10.52-.83-19.75.19-23.69,1.23C103.43,21.8,105.61,25.27,102.69,25.71Z"/><path class="cls-2" d="M100.11,28.76c3.35.6,34.59,6.94,32.11,8.3s-24,4.83-47.62,1.35c-13.79-2-15.3-6.37-9.17-8S96.25,28.06,100.11,28.76Z"/><path class="cls-2" d="M115.2,27.08c3.57,3.05,25.41,8.76,28.06,8.17s8.16-4.16,6.58-8.79c-1.73-5.07-18.47-6.72-26-5.77S112.6,24.86,115.2,27.08Z"/><g class="cls-5"><path class="cls-6" d="M83.73,31.05c.52-.65-5.77-.8-6.06-.29h.16C78.65,31,83,32,83.73,31.05Z"/><path class="cls-6" d="M80.66,33.09c1.39-.22,2.48-.82.28-.82h.15a29.15,29.15,0,0,0-4.76.12c-1.81.24-2.55.71-.44.83A26.24,26.24,0,0,0,80.66,33.09Z"/><path class="cls-6" d="M84.84,34.75c1.13-.78-.47-.9-2.15-.83a14.92,14.92,0,0,0-3.66.92c-1.14.61-.13,1.1,1.77,1A11.85,11.85,0,0,0,84.84,34.75Z"/><path class="cls-6" d="M82.54,33.93h0Z"/><path class="cls-6" d="M87.38,35.58l.43-.19c-1.75.23-5.57,2-1.9,2,1.31,0,3.67-.62,3.9-1.1S88.54,35.25,87.38,35.58Z"/><path class="cls-6" d="M94.36,37.07l-.5-.15c-2.09,0-4.48,1.76-1.79,1.9C93.81,38.91,96.43,37.43,94.36,37.07Z"/><path class="cls-6" d="M99,37.67l.12-.18c-2.53-.16-2.85,2.61,1,1.73C102.33,38.71,101.76,36.46,99,37.67Z"/><path class="cls-6" d="M107.31,37.63l-1.1-.06c-2.51.16-2.58,2.12.57,1.88C109.35,39.24,108.84,37.81,107.31,37.63Z"/><path class="cls-6" d="M112.69,37.51l-.6.09c-1.41.3.34,1.91,2.36,1.46S114.38,37.1,112.69,37.51Z"/><path class="cls-6" d="M117.39,37.1l-.3,0c-1.86.62.62,2.27,2.85,1.76C121.65,38.48,119.15,36.87,117.39,37.1Z"/><path class="cls-6" d="M122.82,36.48l-.43.14c-.14,0,0-.1-.33,0-.93.61,2.69,1.76,4,1.34C127.93,37.32,123.85,36.5,122.82,36.48Z"/><path class="cls-6" d="M85,29.43H84.8c-.78.66,3.19,1.66,4,.91C89.37,29.88,86,29.17,85,29.43Z"/><path class="cls-6" d="M90.88,29l-.29.07c.24.35,3.35,1.52,4.36,1C96.46,29.23,91.55,29,90.88,29Z"/><path class="cls-6" d="M117.47,25.63c-1.73-.42-1.91.2-1.61.24a5,5,0,0,0,2.93.85C119.56,26.29,118.36,25.85,117.47,25.63Z"/><path class="cls-6" d="M120.7,24.66c.4-.53-2.77-1.76-3.6-.87v-.06C116.31,24.38,120.09,25.49,120.7,24.66Z"/><path class="cls-6" d="M122,23.76c1.63-.15.3-2.32-1.77-1.76l-.36-.21C118.91,22.16,120.45,23.9,122,23.76Z"/><path class="cls-6" d="M125.93,21l-.47,0c-.83.1-1.34,2.08.44,2C127.34,22.94,128.09,21.07,125.93,21Z"/><path class="cls-6" d="M131,20.94l-.34-.15c-1.25-.15-3.13,1.6-1.91,1.9C130.6,23.15,132.79,21.23,131,20.94Z"/><path class="cls-6" d="M132.89,22.46l-.28.13c-1.1.53,1.17.43,1.91.28,1.07-.21,1.7-.58,1.83-1C136.72,20.76,133.07,22,132.89,22.46Z"/><path class="cls-6" d="M141.34,22.37c-2.05-.18-3.16.5-4.44.78l-.11.17c-2.15.69.93.68,2.24.35C140,23.42,141.52,22.83,141.34,22.37Z"/><path class="cls-6" d="M139.84,24.57l.17,0c.57.41,5.45-.22,5.08-.82C144.62,23,140.36,24.14,139.84,24.57Z"/><path class="cls-6" d="M141.78,25.64c.63.3,5.92.13,5.75-.58s-5.23.22-5.94.42Z"/><path class="cls-6" d="M142.42,26.58c-.2.09.11,0,.19,0l-.29.12c1,.47,5.1.75,5.87,0C149.21,25.7,143.52,26.32,142.42,26.58Z"/><path class="cls-6" d="M142.49,28.18l.19.16c.45.66,5.89.93,6,0S143.3,28,142.49,28.18Z"/><path class="cls-6" d="M142.24,29.87l.2.22c.89.37,5,.89,5.29.17S143.26,29.49,142.24,29.87Z"/><path class="cls-6" d="M141.36,31.49l0,.16c.85.54,6.48,1.11,5.64.15C146.56,31.26,142.26,31.12,141.36,31.49Z"/><path class="cls-6" d="M140,32.9c.26.53,4.63,1.76,4.63.72C144.6,32.93,141.05,32.82,140,32.9Z"/></g><path class="cls-1" d="M60.39,25.17c2.47-.1,15.53-6.15,34.3-5.36,6.08.26,13.67,3.68,15.73,7S107.29,35.26,95,39.33C72,47,48.31,48.17,36.39,48.31,17.65,48.54.34,42,.12,36c0-1.38,2.5-3,4.23-4.46,11.49-9.56,32-9.37,39.2-9.43C54.17,22,56.9,25.3,60.39,25.17Z"/><path class="cls-2" d="M58.56,22.37c2.47-.09,13.8-4,32.57-3.24,12.17.51,26.57,9.27,2.08,17.41-23,7.66-46.73,8.83-58.66,9-23.06.28-41.35-7.29-32.1-15C13.94,21,34.54,19.39,41.71,19.33,52.33,19.24,55.06,22.51,58.56,22.37Z"/><path class="cls-4" d="M57,24.47c2.19-.09,13.5-4.39,30.12-3.72,10.78.44,23.48,8.13,1.73,15.32-20.46,6.76-41.45,7.81-52,8-20.44.27-35.58-6.35-29.33-13.37,3-3.41,8.08-5.41,12.89-6.89A74.47,74.47,0,0,1,43,20.61C52.25,21.07,53.88,24.59,57,24.47Z"/><path class="cls-2" d="M62.46,26.75C60.07,27.9,38.47,39.23,42.12,40s26.64.05,44.35-7.34c10.33-4.31,7.19-8.5-.06-8.9S65.23,25.43,62.46,26.75Z"/><path class="cls-2" d="M47.11,28c0,3.4-13.82,12.47-16.82,12.42s-11.68-2.29-15.06-6.75c-3.7-4.88,9.69-9.38,17.46-9.87S47.15,25.48,47.11,28Z"/><g class="cls-5"><path class="cls-6" d="M79.62,25.88c-1.15-.5,4.37-1.76,5.16-1.35l-.15,0C84.11,24.89,81.27,26.6,79.62,25.88Z"/><path class="cls-6" d="M84.5,27.16c-1.48.05-3.09-.29-1.1-.68l-.14,0a24.65,24.65,0,0,1,4.42-.75c1.87-.11,3,.19,1.26.67A21.31,21.31,0,0,1,84.5,27.16Z"/><path class="cls-6" d="M82.45,29.41c-1.83-.5-.51-.9,1.09-1.13a22.88,22.88,0,0,1,4.25.16c1.65.35,1.26,1-.59,1.2A17.27,17.27,0,0,1,82.45,29.41Z"/><path class="cls-6" d="M83.68,28.26l-.14,0h0Z"/><path class="cls-6" d="M81,30.62l-.58-.1c1.82-.11,7.08.79,3.73,1.42a11.38,11.38,0,0,1-4.65-.29C78.8,31.25,79.64,30.52,81,30.62Z"/><path class="cls-6" d="M76.28,33.21l.3-.22c1.93-.33,5.86.79,3.58,1.4C78.68,34.78,74.78,33.92,76.28,33.21Z"/><path class="cls-6" d="M72.74,34.58l-.29-.13c2.11-.61,5.28,1.84.89,1.73C70.79,36.12,69,34,72.74,34.58Z"/><path class="cls-6" d="M65.18,36l.93-.24c2.43-.31,4.53,1.45,1.43,1.79C65,37.87,64,36.48,65.18,36Z"/><path class="cls-6" d="M60.2,36.91l.63,0c1.59,0,1.68,1.78-.61,1.74C58.1,38.59,58.26,36.85,60.2,36.91Z"/><path class="cls-6" d="M55.54,37.38l.29,0c2.32.23,1.79,2.17-.75,2.1C53.12,39.4,53.71,37.49,55.54,37.38Z"/><path class="cls-6" d="M50,37.8l.53.05c.11,0-.08-.1.26-.09,1.48.39-.6,2.07-2.19,1.93C46.26,39.47,49.08,38,50,37.8Z"/><path class="cls-6" d="M76.83,24.64l.15,0c1.39.45-1.16,2.06-2.69,1.54C73.31,25.83,75.61,24.58,76.83,24.64Z"/><path class="cls-6" d="M71,25.27h.33c.14.36-1.45,2-2.9,1.69C66.25,26.52,70.43,25.43,71,25.27Z"/><path class="cls-6" d="M43.56,27.05c1.12-.69,1.93-.16,1.7-.07.08.43-.68,1.07-1.77,1.29C42.36,28,43,27.41,43.56,27.05Z"/><path class="cls-6" d="M39.64,26.76c-.91-.41.67-2.09,2.34-1.44l0-.05C43.31,25.72,41.05,27.4,39.64,26.76Z"/><path class="cls-6" d="M37.49,26.19c-1.62.15-2.67-2-.22-1.91l.1-.25C38.65,24.18,39.08,26,37.49,26.19Z"/><path class="cls-6" d="M31.16,24.43l.39-.12c.85-.06,3.37,1.64,1.68,1.89C31.86,26.4,29.24,24.85,31.16,24.43Z"/><path class="cls-6" d="M26.48,25.25l.15-.19c1-.36,4.48.88,3.7,1.37C29.15,27.18,25.18,25.83,26.48,25.25Z"/><path class="cls-6" d="M26.37,27l.38.06c1.54.29-.61.6-1.43.6a5.3,5.3,0,0,1-2.67-.55C21.15,26.12,25.69,26.55,26.37,27Z"/><path class="cls-6" d="M18.65,28.4c1.66-.53,3.37-.11,4.81-.09l.29.14c2.65.23-.15.77-1.67.71C20.91,29.11,19,28.85,18.65,28.4Z"/><path class="cls-6" d="M22.28,30.11l-.1.08c-.1.47-5.14.78-5.44.17C16.38,29.59,21.37,29.83,22.28,30.11Z"/><path class="cls-6" d="M21.65,31.43c-.26.39-5.21,1.18-5.78.52s4.93-.74,5.79-.69Z"/><path class="cls-6" d="M22,32.39c.27,0-.1,0-.14.06l.39.07c-.39.59-3.82,1.59-5.32,1C15,32.82,20.78,32.35,22,32.39Z"/><path class="cls-6" d="M23.65,33.85V34c.28.68-4.35,1.9-5.42,1.11S22.69,33.8,23.65,33.85Z"/><path class="cls-6" d="M25.63,35.33l0,.23c-.42.5-3.61,1.71-4.6,1.11S24.31,35.18,25.63,35.33Z"/><path class="cls-6" d="M28.1,36.63l.14.16c-.2.63-4.7,2.15-4.94,1.14C23.17,37.36,26.9,36.46,28.1,36.63Z"/><path class="cls-6" d="M30.82,37.66c.3.52-2.36,2.41-3.44,1.47C26.66,38.51,29.75,37.77,30.82,37.66Z"/></g><polygon class="cls-7" points="81.92 43.09 80.45 45.57 74.24 44.72 81.92 43.09"/><path class="cls-8" d="M142.66,2.45,118.4.48,84.82,1.72,61,4.89,48.52,9.82l3.64,3s-.95-1.61,3.74-3.49S66.4,5,84.41,4.05c21-1.16,37.29-1.57,46.52-.83,8,.63,17.3,2.61,17.49,3s2.23-.94,2.23-.94Z"/><path class="cls-8" d="M153.71,4.85l-5.65,5.76L124.92,16.3,91.51,18l-26.69-1.3-11.73-2L46,11.25l-1.34,3.18s-.56,1.63,9,4c8,2,39.57,3.88,61.86,1.88C163.4,16,157.34,8.11,157.34,8.11Z"/><path class="cls-9" d="M88.34.91C71.82,2,44,5.81,46.2,11.74c1.95,5.32,25.57,7,48.93,7,29.6-.07,54.62-5.91,59.17-10.4C159.69,3,136.11-2.12,88.34.91Zm59.47,7.38c-4.23,4.19-23.54,8.09-52.54,8.57-21.78.36-42.46-.57-44.28-5.53C49,5.81,74.6,2.92,90,1.94,134.49-.87,152.84,3.32,147.81,8.29Z"/><path class="cls-10" d="M60.36,17.39c.29.56-.65,1.12-.36,1.69.12.22,1.17.11,1.06-.11-.3-.56.64-1.12.35-1.69-.12-.22-1.17-.11-1,.11Z"/><path class="cls-10" d="M68.29,18.19c-.28.52-.68,1-1,1.55-.14.23.9.31,1,.09.32-.52.71-1,1-1.56.12-.23-.91-.31-1-.08Z"/><path class="cls-10" d="M74.5,18.65a2.75,2.75,0,0,1-.34,1.72c-.17.22.87.3,1,.08a2.91,2.91,0,0,0,.38-1.81c0-.23-1.07-.22-1.08,0Z"/><path class="cls-10" d="M88.51,19.05a4.77,4.77,0,0,1,.3,1.61c0,.23,1.07.22,1.08,0a4.54,4.54,0,0,0-.3-1.61c-.07-.23-1.15-.22-1.08,0Z"/><path class="cls-10" d="M104.8,19c.69.34.52.82.92,1.21.23.21,1.28.1,1-.11-.44-.42-.26-.92-1-1.29-.37-.19-1.32,0-.94.19Z"/><path class="cls-10" d="M118.2,17.92a1.41,1.41,0,0,0,.35,1.31c.22.21,1.27.11,1-.1a1.31,1.31,0,0,1-.32-1.22c0-.22-1.06-.21-1.08,0Z"/><path class="cls-10" d="M128.68,16.79c.24.39.15.8.34,1.19.11.23,1.16.12,1-.1-.19-.39-.1-.8-.34-1.19-.13-.22-1.18-.12-1,.1Z"/><path class="cls-10" d="M142.29,13.84l-.12,1.55c0,.23,1.06.22,1.08,0l.12-1.55c0-.23-1.06-.21-1.08,0Z"/><path class="cls-10" d="M46.55,14.13A5.48,5.48,0,0,1,46,15.75c-.1.23,1,.21,1.08,0a5.21,5.21,0,0,0,.56-1.62c0-.23-1.05-.22-1.08,0Z"/><path class="cls-10" d="M51.36,16.11a2.32,2.32,0,0,1-.28,1.15c-.15.23.89.31,1,.08a2.6,2.6,0,0,0,.34-1.24c0-.23-1.07-.22-1.09,0Z"/><path class="cls-10" d="M56.12,17.06c.45.35.08.86,0,1.25,0,.22,1.06.21,1.08,0,0-.46.37-1-.18-1.42-.26-.2-1.2,0-.94.19Z"/><path class="cls-10" d="M64.84,18.09a3,3,0,0,0-.34,1.31c0,.23,1.06.22,1.08,0a2.83,2.83,0,0,1,.29-1.22c.13-.23-.91-.31-1-.08Z"/><path class="cls-10" d="M71.27,18.67A3.62,3.62,0,0,1,71.82,20c.08.22,1.13.11,1.05-.11a3.62,3.62,0,0,0-.55-1.33c-.18-.21-1.24-.11-1,.11Z"/><path class="cls-10" d="M77.3,19c.36.5.16,1,.29,1.56,0,.23,1.14.22,1.08,0-.14-.55.06-1.12-.32-1.66-.15-.22-1.2-.11-1,.11Z"/><path class="cls-10" d="M81.16,19.06a2.29,2.29,0,0,0,.32,1.67c.16.21,1.21.11,1-.11a2.16,2.16,0,0,1-.29-1.57c0-.22-1.06-.21-1.08,0Z"/><path class="cls-10" d="M83.31,19.25a3.93,3.93,0,0,0,.33,1.52c.08.22,1.13.12,1-.11a3.77,3.77,0,0,1-.3-1.42c0-.23-1.07-.22-1.08,0Z"/><path class="cls-10" d="M117.57,1.48c0,.35.14.7.13,1s1.07.21,1.08,0-.14-.7-.13-1.06-1.07-.21-1.08,0Z"/><path class="cls-10" d="M119.78,1.75c.3.22.32.49.54.73s1.24.1,1.05-.11-.3-.55-.64-.81-1.22,0-1,.19Z"/><path class="cls-10" d="M122.51,1.84c0,.21,0,.42-.05.63s1.06.22,1.08,0,0-.42,0-.63-1.06-.22-1.08,0Z"/><path class="cls-10" d="M128.54,2.05a.84.84,0,0,0,.18.68c.19.21,1.24.11,1.05-.11a.75.75,0,0,1-.15-.58c0-.23-1.06-.22-1.08,0Z"/><path class="cls-10" d="M132.48,2.37a5.22,5.22,0,0,1,.75.73c.2.21,1.26.1,1.05-.11a5.47,5.47,0,0,0-.85-.8c-.29-.21-1.23,0-1,.18Z"/><path class="cls-10" d="M136.27,2.73a.73.73,0,0,0,.18.61c.2.21,1.25.11,1.05-.11a.6.6,0,0,1-.15-.51c0-.23-1.07-.21-1.08,0Z"/><path class="cls-10" d="M141.1,3.71a.25.25,0,0,1,.05.4c-.22.22.82.3,1,.08s.19-.55-.3-.73-1.22.09-.78.25Z"/><path class="cls-10" d="M113,1.39l-.08,1c0,.22,1.06.21,1.08,0s0-.65.08-1-1.06-.22-1.08,0Z"/><path class="cls-10" d="M109,1.8c-.07,0,0,0,0,0a.38.38,0,0,1,0,.17,1.93,1.93,0,0,1-.23.38c-.16.22.88.3,1,.08s.74-.78-.17-1c-.57-.12-1.14.19-.57.31Z"/><path class="cls-10" d="M106.13,1.57A.94.94,0,0,0,106,2.64c.11.23,1.16.12,1-.1a.81.81,0,0,1,.07-.89c.18-.23-.86-.31-1-.08Z"/><path class="cls-10" d="M102.19,1.94c0,.22.21.4.4.6s1.26.11,1-.1-.37-.33-.37-.51-1.08-.22-1.08,0Z"/><path class="cls-10" d="M98.93,2.19a.92.92,0,0,0,.18.75c.18.21,1.23.11,1-.11a.75.75,0,0,1-.15-.65C100,2,99,2,98.93,2.19Z"/><path class="cls-8" d="M96.65,8.16,71.73,6.91,38.51,9.59,15.7,14,4.8,20l4.64,3.26s-1.47-1.75,2.61-4,9.1-5.24,26.81-7C59.56,10.09,75.68,9,85.16,9.48c8.17.4,18.16,2.24,18.46,2.63S105.55,11,105.55,11Z"/><path class="cls-8" d="M108.49,10.42l-3.78,6.65L83.39,24.31,50.51,27.53l-27.15-.42L11,25.36,2.77,21.73l-.3,3.6s0,1.83,10.27,4.09c8.7,1.9,40.88,2.79,62.54-.3,46.54-6.65,37.9-15.2,37.9-15.2Z"/><path class="cls-9" d="M41.77,8.55C25.58,10.35-1,15.73,3.11,22.27,6.79,28.13,31,29.09,54.34,28.13c29.62-1.22,52.77-8.7,55.86-13.9C113.86,8.07,88.61,3.32,41.77,8.55Zm61.94,5.94c-2.88,4.84-20.95,9.93-49.81,11.59-21.7,1.25-42.7,1-46.13-4.45-3.83-6.09,20.9-10.31,36-12C87.39,4.77,107.12,8.75,103.71,14.49Z"/><path class="cls-10" d="M19.11,28c.48.62-.28,1.28.2,1.9.19.25,1.2.09,1-.15-.48-.62.28-1.28-.2-1.91-.19-.24-1.2-.08-1,.16Z"/><path class="cls-10" d="M27.31,28.61c-.11.59-.34,1.18-.48,1.77-.06.26,1,.31,1.06.06.15-.6.37-1.19.48-1.78.05-.26-1-.31-1.06-.05Z"/><path class="cls-10" d="M33.68,28.89a3.2,3.2,0,0,1,.22,1.92c-.09.26,1,.31,1.06.05a3.4,3.4,0,0,0-.2-2c-.06-.25-1.14-.2-1.08.06Z"/><path class="cls-10" d="M47.84,28.79a7.17,7.17,0,0,1,.82,1.79c.07.25,1.14.2,1.08-.06a7.21,7.21,0,0,0-.83-1.79c-.14-.24-1.22-.19-1.07.06Z"/><path class="cls-10" d="M64.11,28c.81.36.79.91,1.32,1.32.29.23,1.31.07,1-.16-.58-.45-.57-1-1.46-1.4-.43-.19-1.32.05-.88.24Z"/><path class="cls-10" d="M77.19,26.39A2.11,2.11,0,0,0,78,27.83c.28.23,1.3.07,1-.15a2,2,0,0,1-.71-1.35c0-.25-1.13-.2-1.08.06Z"/><path class="cls-10" d="M87.32,24.72c.36.42.4.88.72,1.32.18.24,1.2.08,1-.16-.32-.43-.36-.89-.73-1.32-.2-.24-1.22-.08-1,.16Z"/><path class="cls-10" d="M100,20.9l.37,1.73c.06.26,1.14.2,1.08-.05l-.38-1.74c0-.25-1.13-.19-1.07.06Z"/><path class="cls-10" d="M4.23,24.92a5.62,5.62,0,0,1,0,1.83c0,.26,1,.2,1.08-.05a6,6,0,0,0,0-1.84c0-.25-1.12-.2-1.08.06Z"/><path class="cls-10" d="M9.7,26.94a2.74,2.74,0,0,1,.08,1.3c-.07.26,1,.31,1.06.05a2.77,2.77,0,0,0-.07-1.4c0-.26-1.13-.2-1.07.05Z"/><path class="cls-10" d="M14.76,27.82c.57.38.36,1,.45,1.39,0,.25,1.13.2,1.08-.06-.11-.52.05-1.12-.64-1.58-.33-.22-1.21,0-.89.25Z"/><path class="cls-10" d="M23.83,28.63a3.69,3.69,0,0,0,.08,1.48c.06.25,1.14.2,1.08-.06a3.34,3.34,0,0,1-.1-1.37c.05-.26-1-.31-1.06-.05Z"/><path class="cls-10" d="M30.46,29a5.88,5.88,0,0,1,1,1.46c.16.25,1.18.08,1-.16a5.67,5.67,0,0,0-1-1.46c-.25-.23-1.27-.08-1,.16Z"/><path class="cls-10" d="M36.58,29.11c.53.55.5,1.16.8,1.74.13.24,1.21.19,1.08-.06-.32-.61-.3-1.25-.86-1.84-.23-.24-1.24-.08-1,.16Z"/><path class="cls-10" d="M40.49,29.09a3.36,3.36,0,0,0,.85,1.84c.23.24,1.25.08,1-.16a3.17,3.17,0,0,1-.8-1.74c-.05-.25-1.13-.19-1.07.06Z"/><path class="cls-10" d="M42.69,29.21a6.3,6.3,0,0,0,.83,1.69c.15.24,1.17.08,1-.16a6,6,0,0,1-.76-1.58c-.06-.25-1.14-.2-1.08.05Z"/><path class="cls-10" d="M71.22,8.05c.1.4.37.78.47,1.17s1.14.2,1.08-.05c-.1-.4-.37-.78-.48-1.17s-1.14-.2-1.07.05Z"/><path class="cls-10" d="M73.52,8.27c.37.24.48.54.77.79s1.28.07,1-.16a6.85,6.85,0,0,0-.9-.88c-.34-.21-1.23,0-.89.25Z"/><path class="cls-10" d="M76.28,8.27l.15.71c.06.25,1.14.19,1.08-.06l-.15-.71c-.06-.25-1.14-.2-1.08.06Z"/><path class="cls-10" d="M82.39,8.27a1.22,1.22,0,0,0,.4.75c.26.23,1.28.07,1-.16a1,1,0,0,1-.34-.65c-.06-.25-1.14-.2-1.08.06Z"/><path class="cls-10" d="M86.43,8.48a7.38,7.38,0,0,1,1,.77c.27.23,1.29.08,1-.15a7.89,7.89,0,0,0-1.12-.87c-.35-.21-1.24,0-.89.25Z"/><path class="cls-10" d="M90.34,8.73a1.12,1.12,0,0,0,.39.67c.26.23,1.28.07,1-.16a.9.9,0,0,1-.32-.56c-.06-.26-1.13-.2-1.08.05Z"/><path class="cls-10" d="M95.5,9.64a.32.32,0,0,1,.17.43c-.14.26.92.31,1.06.06s0-.62-.53-.81-1.2.15-.7.32Z"/><path class="cls-10" d="M66.65,8.13l.24,1.1c.06.26,1.14.2,1.08-.05l-.24-1.11c-.06-.25-1.13-.19-1.08.06Z"/><path class="cls-10" d="M62.69,8.75c-.07,0,0,0,0,0a.41.41,0,0,1,0,.19,2.26,2.26,0,0,1-.11.43c-.08.26,1,.31,1.06,0s.48-.9-.49-1.07c-.61-.11-1.08.26-.47.37Z"/><path class="cls-10" d="M59.79,8.59a1.21,1.21,0,0,0,.27,1.21c.18.24,1.19.08,1-.16a1,1,0,0,1-.22-1c.11-.25-1-.3-1.06-.05Z"/><path class="cls-10" d="M56,9.16a1.67,1.67,0,0,0,.6.66c.28.23,1.3.07,1-.16s-.48-.35-.54-.55-1.15-.2-1.08.05Z"/><path class="cls-10" d="M52.79,9.57a1.33,1.33,0,0,0,.42.82c.25.24,1.27.08,1-.15a1.19,1.19,0,0,1-.35-.73c-.06-.25-1.14-.2-1.08.06Z"/><path class="cls-8" d="M160.55,15.31l-21.41-4.55-32.85-1.9L81.15,10,65.29,14.28l1,3.74s.4-1.87,6.38-3.5S86.13,10.74,104,11.4c20.9.76,36.62,1.9,44.78,3.62,7,1.48,14.27,4.58,14.17,5s2.88-.82,2.88-.82Z"/><path class="cls-8" d="M169.06,19.05l-10,5.83-26.57,4.05L99.37,27.58l-24.24-4L65.62,20.2l-3.86-4.57L57.91,19s-1.85,1.75,5.28,5.28c6,3,34.37,8.15,57.13,8.12,48.88-.08,49.53-9.4,49.53-9.4Z"/><path class="cls-9" d="M110.29,8.3c-16.51-.46-46,1.1-48.76,7.89-2.47,6.09,18.55,10.25,40.74,12.48,28.13,2.81,56.59-1.21,64.56-5.75C176.28,17.53,158.05,9.61,110.29,8.3Zm50.39,14c-7.43,4.23-28.9,6.66-56.78,4.36-21-1.72-39.8-4.77-37.5-10.44C69,9.88,95.63,9.18,111,9.61,155.5,10.83,169.48,17.27,160.68,22.29Z"/><path class="cls-10" d="M70.36,23.83c-.18.65-1.53,1.18-1.71,1.84-.07.26,1,.24,1.08,0,.18-.65,1.53-1.18,1.71-1.84.07-.25-1-.24-1.08,0Z"/><path class="cls-10" d="M77.23,25.49c-.69.55-1.48,1.08-2.2,1.63-.31.23.6.42.91.19.72-.55,1.52-1.08,2.21-1.63.29-.24-.62-.43-.92-.19Z"/><path class="cls-10" d="M82.74,26.61A7,7,0,0,1,81,28.48c-.34.23.57.42.92.19a7.57,7.57,0,0,0,1.83-2c.19-.25-.84-.34-1-.09Z"/><path class="cls-10" d="M95.7,28.42a8.53,8.53,0,0,1-1,1.82c-.2.25.84.34,1,.09a8.58,8.58,0,0,0,1-1.82c.11-.25-.92-.35-1-.09Z"/><path class="cls-10" d="M111.23,29.89c.38.45-.18,1-.11,1.44,0,.25,1.13.24,1.08,0-.08-.5.5-1,.08-1.53-.2-.24-1.26-.13-1,.11Z"/><path class="cls-10" d="M124.77,30.07c-.39.48-.82,1-.74,1.49,0,.25,1.12.24,1.08,0-.07-.47.33-.93.69-1.38.2-.25-.83-.34-1-.09Z"/><path class="cls-10" d="M135.62,29.84c-.09.45-.51.9-.65,1.35-.07.26,1,.24,1.09,0,.13-.45.56-.9.65-1.35,0-.26-1-.25-1.09,0Z"/><path class="cls-10" d="M150.93,27.9l-1.38,1.71c-.2.24.84.34,1,.09L152,28c.21-.25-.83-.34-1-.09Z"/><path class="cls-10" d="M59.92,18.87a14.15,14.15,0,0,1-1.85,1.74c-.28.24.76.33,1,.1A15.65,15.65,0,0,0,61,19c.21-.25-.83-.34-1-.09Z"/><path class="cls-10" d="M62.87,21.54a6.11,6.11,0,0,1-1.21,1.24c-.31.24.6.43.92.2a7,7,0,0,0,1.33-1.35c.2-.25-.83-.34-1-.09Z"/><path class="cls-10" d="M66.61,23.05c.14.44-.63,1-1,1.39-.21.24.82.34,1,.09.43-.51,1.16-1.06,1-1.6-.08-.25-1.13-.13-1,.12Z"/><path class="cls-10" d="M74,25a8.45,8.45,0,0,0-1.39,1.43c-.2.24.83.34,1,.09A7.84,7.84,0,0,1,75,25.23c.3-.23-.62-.43-.92-.19Z"/><path class="cls-10" d="M79.67,26.31a4.74,4.74,0,0,1-.56,1.53c-.1.25,1,.24,1.08,0a4.69,4.69,0,0,0,.56-1.52c0-.26-1.08-.25-1.08,0Z"/><path class="cls-10" d="M85.16,27.21c-.07.6-.7,1.17-1,1.76-.13.26.91.35,1,.1.32-.63,1-1.24,1-1.87,0-.26-1-.25-1.08,0Z"/><path class="cls-10" d="M88.72,27.72a4,4,0,0,0-1,1.87c0,.26,1,.24,1.08,0a3.78,3.78,0,0,1,1-1.76c.2-.25-.84-.34-1-.09Z"/><path class="cls-10" d="M90.61,28.13a7.08,7.08,0,0,0-.93,1.72c-.1.25,1,.24,1.09,0a6.35,6.35,0,0,1,.87-1.61c.2-.26-.84-.35-1-.1Z"/><path class="cls-10" d="M137.54,11.78c-.3.39-.43.79-.73,1.18s.84.35,1,.1.43-.79.73-1.18-.85-.35-1-.1Z"/><path class="cls-10" d="M139.42,12.3c.1.28-.1.58-.08.86s1.09.24,1.08,0,.17-.64.05-1-1.15-.14-1.05.11Z"/><path class="cls-10" d="M141.93,12.67l-.56.7c-.2.25.83.34,1,.09l.57-.7c.2-.25-.84-.34-1-.09Z"/><path class="cls-10" d="M147.48,13.49a1.37,1.37,0,0,0-.38.77c0,.25,1.09.24,1.08,0a1.17,1.17,0,0,1,.34-.66c.2-.25-.84-.34-1-.09Z"/><path class="cls-10" d="M151,14.23a3,3,0,0,1,.13.88c0,.25,1.1.24,1.08,0a3,3,0,0,0-.16-1c-.11-.25-1.16-.14-1.05.11Z"/><path class="cls-10" d="M154.25,15a1.09,1.09,0,0,0-.32.69c0,.26,1.09.24,1.08,0a.91.91,0,0,1,.27-.59c.21-.25-.83-.34-1-.09Z"/><path class="cls-10" d="M158,16.56c.11.09-.08.33-.27.44-.39.22.53.41.91.19s.63-.59.32-.84-1.24,0-1,.21Z"/><path class="cls-10" d="M133.32,11.25l-.88,1.08c-.2.25.84.34,1,.09l.87-1.08c.21-.25-.83-.34-1-.09Z"/><path class="cls-10" d="M129.11,11.3c-.05,0,0,0,0,0a1,1,0,0,1-.18.19c-.15.13-.35.26-.53.39-.33.24.59.43.92.19s1.33-.79.62-1.09c-.45-.18-1.24.11-.79.29Z"/><path class="cls-10" d="M126.62,10.76a2.22,2.22,0,0,0-1,1.19c-.08.26,1,.24,1.08,0a1.77,1.77,0,0,1,.79-1c.35-.23-.57-.43-.92-.2Z"/><path class="cls-10" d="M122.59,10.8a.84.84,0,0,0-.11.7c0,.26,1.1.25,1.08,0s-.09-.4.06-.6-.85-.35-1-.09Z"/><path class="cls-10" d="M119.29,10.75a1.56,1.56,0,0,0-.44.85c0,.25,1.09.24,1.08,0a1.36,1.36,0,0,1,.4-.74c.2-.25-.84-.34-1-.09Z"/><path class="cls-11" d="M71,26.75l1.38,2.73s2.05-.21,3.78-.49l3.32-.52s-3-.41-4.67-.76S71,26.75,71,26.75Z"/></g></g></svg>