<svg xmlns="http://www.w3.org/2000/svg" viewBox="0 0 229.3 105.66"><defs><style>.cls-1{fill:#ffa944;}.cls-2{fill:#eae8a9;}.cls-3,.cls-5{fill:#ffc050;}.cls-3{opacity:0.7;}.cls-4{fill:#f68d32;}.cls-5{opacity:0.2;}</style></defs><title>Asset 26</title><g id="Layer_2" data-name="Layer 2"><g id="Layer_1-2" data-name="Layer 1"><path class="cls-1" d="M1.06,72.18s10.51,32.95,114.48,33.47c103.34.53,113.24-34.52,113.24-34.52s1-13.72.2-19.42C226.49,34.62,209.54.4,113.94,0,25.79-.36,5.17,30.09.79,48.7-1.13,56.88,1.06,72.18,1.06,72.18Z"/><path class="cls-2" d="M185.83,21.91c-.12.47,2.29,2.06,3.28,2.27,1.36.29,4.84-.31,4.7-1s-2-2.11-3.36-2.4S186.13,20.79,185.83,21.91Z"/><path class="cls-3" d="M13.3,78c.89,3.67,13.2,9.07,22.27,13S78,102,82.33,101.2c7.7-1.4,6-16.28,2.2-22.32-3.26-5.12-19-20-31.9-21.85s-36.31-4.65-38.78.23S11.65,71.21,13.3,78Z"/><path class="cls-4" d="M228.31,50.8C225.35,33.44,207.36.39,113.42,0,28.16-.35,6.51,28.32,1.19,47a19.26,19.26,0,0,0,1.32,2.66,26.38,26.38,0,0,0,11.14,8.5c9.58,3.65,20.84.21,30.46,4.17,9.89,4.07,16.51,12,26.61,16.23,13.49,5.71,27.6,5.46,41.46.52,13-4.63,24.6-4.88,38.35-2.63,11.76,1.92,28.1,2.74,38.41-4.18,3.71-2.49,4.2-6.69,7.42-9.55,3.44-3,8.74-4.55,13.58-5.62C217.73,55.39,224.14,54.56,228.31,50.8Z"/><path class="cls-2" d="M52.29,43.59c.44.31,3.23-.75,3.91-1.39.93-.88,1.92-3.76,1.1-4a6.17,6.17,0,0,0-4.07,1.4C52.38,40.4,51.25,42.85,52.29,43.59Z"/><path class="cls-2" d="M38,29.41c.43.31,3.22-.75,3.91-1.39.93-.88,1.92-3.76,1.09-4a6.16,6.16,0,0,0-4.06,1.4C38.08,26.21,37,28.67,38,29.41Z"/><path class="cls-2" d="M93.36,16.34c0,.47,2.57,1.8,3.59,1.91,1.39.14,4.75-.82,4.51-1.52s-2.29-1.89-3.68-2S93.49,15.19,93.36,16.34Z"/><path class="cls-2" d="M69.55,11.73c-.42.32.41,2.81,1.06,3.47.9.91,4.13,2.16,4.52,1.5s-.14-2.69-1-3.6S70.58,11,69.55,11.73Z"/><path class="cls-2" d="M94.44,3.74c-.2-.45-3.25-.65-4.22-.36C88.9,3.77,86.4,5.9,87,6.44s3,.82,4.37.42S94.94,4.81,94.44,3.74Z"/><path class="cls-2" d="M83,30.68c-.25.43,1.61,2.48,2.51,2.89,1.23.56,4.78.71,4.86,0s-1.32-2.46-2.55-3S83.6,29.65,83,30.68Z"/><path class="cls-2" d="M51.63,10.42c.09.48,3,1.23,4,1.12,1.39-.15,4.37-1.77,3.93-2.4s-2.76-1.36-4.15-1.21S51.42,9.28,51.63,10.42Z"/><path class="cls-2" d="M140.44,7.52c.31-.41-1.28-2.61-2.13-3.1-1.15-.68-4.66-1.14-4.83-.42s1,2.56,2.15,3.23S139.7,8.49,140.44,7.52Z"/><path class="cls-2" d="M109.89,6.83c-.31.4,1.24,2.63,2.07,3.13,1.14.69,4.64,1.2,4.82.48s-.94-2.57-2.09-3.26S110.65,5.87,109.89,6.83Z"/><path class="cls-2" d="M175,45.94c.5-.22.41-2.81,0-3.59-.61-1.06-3.38-2.94-3.95-2.38s-.64,2.64,0,3.71S173.8,46.47,175,45.94Z"/><path class="cls-2" d="M115.55,26.16c.44.31,3.22-.75,3.91-1.39.93-.89,1.92-3.77,1.1-4a6.21,6.21,0,0,0-4.07,1.39C115.64,23,114.51,25.42,115.55,26.16Z"/><path class="cls-2" d="M105.11,48.66c.43.31,3.22-.75,3.9-1.39.93-.89,1.92-3.77,1.1-4A6.23,6.23,0,0,0,106,44.66C105.2,45.46,104.06,47.92,105.11,48.66Z"/><path class="cls-2" d="M148.7,23.26c.31-.4-1.29-2.6-2.14-3.09-1.15-.67-4.66-1.12-4.83-.4s1,2.56,2.16,3.23S148,24.24,148.7,23.26Z"/><path class="cls-2" d="M147.64,38.32c-.17-.46-3.19-.84-4.18-.61-1.35.31-4,2.28-3.48,2.85s3,1,4.31.69S148,39.42,147.64,38.32Z"/><path class="cls-2" d="M172.62,12.34c.23-.44-1.75-2.41-2.67-2.78-1.26-.52-4.81-.52-4.85.22s1.46,2.4,2.72,2.91S172.07,13.39,172.62,12.34Z"/><path class="cls-5" d="M108.46,13.15a60.22,60.22,0,0,0-14.52-2.61c-5.4-.24-10.9,1.23-16,2.14-10.27,1.84-20.79,5.82-30.86,9-8,2.5-16.52,5.2-22.35,10.92a26.54,26.54,0,0,0-3.23,4v1.86c-2,4.9,2.31,6.26,7.15,8.08,3,1.13,6,1.29,9.15,1.92a90.13,90.13,0,0,1,10.71,3.25c6.42,2.13,11.31,5.52,17.26,8.2,4,1.81,8.73,4.27,13.21,4.36,13,.24,12.74-13.74,18.43-20.46a41.53,41.53,0,0,1,11-8.89c4.5-2.55,10.73-4.45,14.25-7.91C129.47,20.32,113.93,14.78,108.46,13.15Z"/></g></g></svg>